%TF.GenerationSoftware,KiCad,Pcbnew,9.0.7*%
%TF.CreationDate,2026-02-17T11:17:25-06:00*%
%TF.ProjectId,nfc-card,6e66632d-6361-4726-942e-6b696361645f,rev?*%
%TF.SameCoordinates,Original*%
%TF.FileFunction,Legend,Bot*%
%TF.FilePolarity,Positive*%
%FSLAX46Y46*%
G04 Gerber Fmt 4.6, Leading zero omitted, Abs format (unit mm)*
G04 Created by KiCad (PCBNEW 9.0.7) date 2026-02-17 11:17:25*
%MOMM*%
%LPD*%
G01*
G04 APERTURE LIST*
%ADD10C,0.000000*%
G04 APERTURE END LIST*
D10*
G36*
X121895834Y-49941667D02*
G01*
X122425001Y-49941667D01*
X122425001Y-50470833D01*
X122954167Y-50470833D01*
X122954167Y-49941667D01*
X123483334Y-49941667D01*
X124012500Y-49941667D01*
X124012500Y-50470833D01*
X123483334Y-50470833D01*
X123483334Y-51000000D01*
X122954167Y-51000000D01*
X122954167Y-51529166D01*
X122425001Y-51529166D01*
X122425001Y-51000000D01*
X122425001Y-50470833D01*
X121895834Y-50470833D01*
X121895834Y-51000000D01*
X121895834Y-51529166D01*
X121366667Y-51529166D01*
X121366667Y-51000000D01*
X121366667Y-50470833D01*
X121366667Y-49941667D01*
X121366667Y-49412499D01*
X121895834Y-49412499D01*
X121895834Y-49941667D01*
G37*
G36*
X119779168Y-45708334D02*
G01*
X119250001Y-45708334D01*
X119250001Y-45179167D01*
X119779168Y-45179167D01*
X119779168Y-45708334D01*
G37*
G36*
X117662501Y-46766666D02*
G01*
X117133335Y-46766666D01*
X117133335Y-46237500D01*
X117662501Y-46237500D01*
X117662501Y-46766666D01*
G37*
G36*
X119250001Y-46237500D02*
G01*
X119779168Y-46237500D01*
X119779168Y-45708334D01*
X120308334Y-45708334D01*
X120837501Y-45708334D01*
X121366667Y-45708334D01*
X121366667Y-46237500D01*
X120837501Y-46237500D01*
X120837501Y-46766666D01*
X120308334Y-46766666D01*
X120308334Y-47295833D01*
X119779168Y-47295833D01*
X119779168Y-47825000D01*
X119779168Y-48354167D01*
X120308334Y-48354167D01*
X120308334Y-48883333D01*
X120308334Y-49412499D01*
X119779168Y-49412499D01*
X119250001Y-49412499D01*
X119250001Y-49941667D01*
X119250001Y-50470833D01*
X119250001Y-51000000D01*
X118720834Y-51000000D01*
X118720834Y-50470833D01*
X118720834Y-49941667D01*
X118720834Y-49412499D01*
X118720834Y-48883333D01*
X118720834Y-48354167D01*
X118720834Y-47825000D01*
X118720834Y-47295833D01*
X118720834Y-46766666D01*
X118720834Y-46237500D01*
X118720834Y-45708334D01*
X119250001Y-45708334D01*
X119250001Y-46237500D01*
G37*
G36*
X125600000Y-42533334D02*
G01*
X125600000Y-43062500D01*
X126129167Y-43062500D01*
X126129167Y-42533334D01*
X126658334Y-42533334D01*
X127187501Y-42533334D01*
X127187501Y-42004167D01*
X127716667Y-42004167D01*
X128245833Y-42004167D01*
X128245833Y-42533334D01*
X127716667Y-42533334D01*
X127716667Y-43062500D01*
X127187501Y-43062500D01*
X127187501Y-43591667D01*
X127716667Y-43591667D01*
X127716667Y-44120833D01*
X127716667Y-44650000D01*
X127187501Y-44650000D01*
X127187501Y-44120833D01*
X126658334Y-44120833D01*
X126658334Y-44650000D01*
X126129167Y-44650000D01*
X126129167Y-44120833D01*
X126129167Y-43591667D01*
X125600000Y-43591667D01*
X125600000Y-44120833D01*
X125600000Y-44650000D01*
X125070834Y-44650000D01*
X125070834Y-44120833D01*
X125070834Y-43591667D01*
X124541668Y-43591667D01*
X124541668Y-44120833D01*
X124541668Y-44650000D01*
X125070834Y-44650000D01*
X125070834Y-45179167D01*
X124541668Y-45179167D01*
X124012500Y-45179167D01*
X124012500Y-45708334D01*
X124541668Y-45708334D01*
X124541668Y-46237500D01*
X125070834Y-46237500D01*
X125070834Y-45708334D01*
X125600000Y-45708334D01*
X125600000Y-46237500D01*
X125600000Y-46766666D01*
X125600000Y-47295833D01*
X126129167Y-47295833D01*
X126129167Y-47825000D01*
X125600000Y-47825000D01*
X125070834Y-47825000D01*
X124541668Y-47825000D01*
X124541668Y-47295833D01*
X125070834Y-47295833D01*
X125070834Y-46766666D01*
X124541668Y-46766666D01*
X124541668Y-47295833D01*
X124012500Y-47295833D01*
X124012500Y-46766666D01*
X124012500Y-46237500D01*
X123483334Y-46237500D01*
X123483334Y-45708334D01*
X122954167Y-45708334D01*
X122425001Y-45708334D01*
X122425001Y-45179167D01*
X122954167Y-45179167D01*
X122954167Y-44650000D01*
X122954167Y-44120833D01*
X122954167Y-43591667D01*
X123483334Y-43591667D01*
X123483334Y-44120833D01*
X123483334Y-44650000D01*
X124012500Y-44650000D01*
X124012500Y-44120833D01*
X124012500Y-43591667D01*
X124012500Y-43062500D01*
X124541668Y-43062500D01*
X124541668Y-42533334D01*
X125070834Y-42533334D01*
X125070834Y-42004167D01*
X125600000Y-42004167D01*
X125600000Y-42533334D01*
G37*
G36*
X128245833Y-54174999D02*
G01*
X127716667Y-54174999D01*
X127716667Y-53645833D01*
X128245833Y-53645833D01*
X128245833Y-54174999D01*
G37*
G36*
X116075000Y-45708334D02*
G01*
X116075000Y-46237500D01*
X116075000Y-46766666D01*
X116604168Y-46766666D01*
X116604168Y-47295833D01*
X117133335Y-47295833D01*
X117133335Y-47825000D01*
X116604168Y-47825000D01*
X116604168Y-48354167D01*
X116604168Y-48883333D01*
X117133335Y-48883333D01*
X117133335Y-49412499D01*
X117662501Y-49412499D01*
X117662501Y-49941667D01*
X118191667Y-49941667D01*
X118191667Y-50470833D01*
X117662501Y-50470833D01*
X117662501Y-51000000D01*
X117662501Y-51529166D01*
X118191667Y-51529166D01*
X118191667Y-51000000D01*
X118720834Y-51000000D01*
X118720834Y-51529166D01*
X119250001Y-51529166D01*
X119250001Y-52058333D01*
X118720834Y-52058333D01*
X118720834Y-52587500D01*
X118191667Y-52587500D01*
X118191667Y-52058333D01*
X117662501Y-52058333D01*
X117662501Y-51529166D01*
X117133335Y-51529166D01*
X116604168Y-51529166D01*
X116604168Y-52058333D01*
X116075000Y-52058333D01*
X116075000Y-52587500D01*
X116075000Y-53116666D01*
X116075000Y-53645833D01*
X116604168Y-53645833D01*
X116604168Y-54174999D01*
X116075000Y-54174999D01*
X115545835Y-54174999D01*
X115545835Y-53645833D01*
X115545835Y-53116666D01*
X115545835Y-52587500D01*
X115545835Y-52058333D01*
X115545835Y-51529166D01*
X115545835Y-51000000D01*
X116075000Y-51000000D01*
X116075000Y-50470833D01*
X116604168Y-50470833D01*
X117133335Y-50470833D01*
X117133335Y-49941667D01*
X116604168Y-49941667D01*
X116604168Y-49412499D01*
X116075000Y-49412499D01*
X115545835Y-49412499D01*
X115545835Y-48883333D01*
X115545835Y-48354167D01*
X116075000Y-48354167D01*
X116075000Y-47825000D01*
X115545835Y-47825000D01*
X115545835Y-47295833D01*
X115545835Y-46766666D01*
X115545835Y-46237500D01*
X115545835Y-45708334D01*
X115545835Y-45179167D01*
X116075000Y-45179167D01*
X116075000Y-45708334D01*
G37*
G36*
X129833334Y-53116666D02*
G01*
X129304167Y-53116666D01*
X129304167Y-52587500D01*
X129833334Y-52587500D01*
X129833334Y-53116666D01*
G37*
G36*
X122425001Y-44120833D02*
G01*
X122425001Y-44650000D01*
X122425001Y-45179167D01*
X121895834Y-45179167D01*
X121895834Y-44650000D01*
X121895834Y-44120833D01*
X121895834Y-43591667D01*
X122425001Y-43591667D01*
X122425001Y-44120833D01*
G37*
G36*
X127716667Y-54704166D02*
G01*
X127716667Y-55233333D01*
X127187501Y-55233333D01*
X127187501Y-54704166D01*
X127187501Y-54174999D01*
X127716667Y-54174999D01*
X127716667Y-54704166D01*
G37*
G36*
X121366667Y-44650000D02*
G01*
X120837501Y-44650000D01*
X120837501Y-44120833D01*
X121366667Y-44120833D01*
X121366667Y-44650000D01*
G37*
G36*
X133008333Y-53116666D02*
G01*
X132479167Y-53116666D01*
X132479167Y-52587500D01*
X133008333Y-52587500D01*
X133008333Y-53116666D01*
G37*
G36*
X131420833Y-52058333D02*
G01*
X131950000Y-52058333D01*
X131950000Y-52587500D01*
X131420833Y-52587500D01*
X130891667Y-52587500D01*
X130891667Y-52058333D01*
X130891667Y-51529166D01*
X131420833Y-51529166D01*
X131420833Y-52058333D01*
G37*
G36*
X118191667Y-47825000D02*
G01*
X118191667Y-48354167D01*
X117662501Y-48354167D01*
X117662501Y-47825000D01*
X117662501Y-47295833D01*
X118191667Y-47295833D01*
X118191667Y-47825000D01*
G37*
G36*
X129304167Y-51529166D02*
G01*
X128775000Y-51529166D01*
X128775000Y-51000000D01*
X129304167Y-51000000D01*
X129304167Y-51529166D01*
G37*
G36*
X122425001Y-46766666D02*
G01*
X122954167Y-46766666D01*
X122954167Y-47295833D01*
X122954167Y-47825000D01*
X123483334Y-47825000D01*
X123483334Y-47295833D01*
X124012500Y-47295833D01*
X124012500Y-47825000D01*
X124541668Y-47825000D01*
X124541668Y-48354167D01*
X124541668Y-48883333D01*
X124012500Y-48883333D01*
X124012500Y-48354167D01*
X123483334Y-48354167D01*
X123483334Y-48883333D01*
X122954167Y-48883333D01*
X122954167Y-48354167D01*
X122954167Y-47825000D01*
X122425001Y-47825000D01*
X122425001Y-48354167D01*
X121895834Y-48354167D01*
X121895834Y-48883333D01*
X121366667Y-48883333D01*
X121366667Y-48354167D01*
X121366667Y-47825000D01*
X121895834Y-47825000D01*
X121895834Y-47295833D01*
X121895834Y-46766666D01*
X121366667Y-46766666D01*
X121366667Y-46237500D01*
X121895834Y-46237500D01*
X122425001Y-46237500D01*
X122425001Y-46766666D01*
G37*
G36*
X126129167Y-56820832D02*
G01*
X125600000Y-56820832D01*
X125600000Y-57349999D01*
X126129167Y-57349999D01*
X126658334Y-57349999D01*
X126658334Y-56820832D01*
X127187501Y-56820832D01*
X127187501Y-57349999D01*
X127716667Y-57349999D01*
X127716667Y-57879167D01*
X127187501Y-57879167D01*
X127187501Y-58408332D01*
X126658334Y-58408332D01*
X126129167Y-58408332D01*
X126129167Y-57879167D01*
X125600000Y-57879167D01*
X125600000Y-58408332D01*
X125070834Y-58408332D01*
X124541668Y-58408332D01*
X124012500Y-58408332D01*
X123483334Y-58408332D01*
X122954167Y-58408332D01*
X122425001Y-58408332D01*
X121895834Y-58408332D01*
X121895834Y-57879167D01*
X121895834Y-57349999D01*
X122425001Y-57349999D01*
X122425001Y-57879167D01*
X122954167Y-57879167D01*
X122954167Y-57349999D01*
X123483334Y-57349999D01*
X123483334Y-57879167D01*
X124012500Y-57879167D01*
X124541668Y-57879167D01*
X124541668Y-57349999D01*
X125070834Y-57349999D01*
X125070834Y-56820832D01*
X124541668Y-56820832D01*
X124541668Y-57349999D01*
X124012500Y-57349999D01*
X123483334Y-57349999D01*
X123483334Y-56820832D01*
X124012500Y-56820832D01*
X124012500Y-56291666D01*
X124541668Y-56291666D01*
X124541668Y-55762500D01*
X125070834Y-55762500D01*
X125070834Y-56291666D01*
X125600000Y-56291666D01*
X125600000Y-55762500D01*
X125070834Y-55762500D01*
X124541668Y-55762500D01*
X124541668Y-55233333D01*
X124012500Y-55233333D01*
X124012500Y-54704166D01*
X124541668Y-54704166D01*
X124541668Y-54174999D01*
X124012500Y-54174999D01*
X124012500Y-53645833D01*
X124541668Y-53645833D01*
X125600000Y-53645833D01*
X126129167Y-53645833D01*
X126129167Y-53116666D01*
X125600000Y-53116666D01*
X125600000Y-53645833D01*
X124541668Y-53645833D01*
X124541668Y-53116666D01*
X125070834Y-53116666D01*
X125070834Y-52587500D01*
X125070834Y-52058333D01*
X125600000Y-52058333D01*
X126129167Y-52058333D01*
X126129167Y-52587500D01*
X126658334Y-52587500D01*
X126658334Y-52058333D01*
X126658334Y-51529166D01*
X126129167Y-51529166D01*
X125600000Y-51529166D01*
X125600000Y-51000000D01*
X125600000Y-50470833D01*
X126129167Y-50470833D01*
X126129167Y-51000000D01*
X126658334Y-51000000D01*
X126658334Y-50470833D01*
X127187501Y-50470833D01*
X127187501Y-51000000D01*
X127187501Y-51529166D01*
X127716667Y-51529166D01*
X127716667Y-52058333D01*
X128245833Y-52058333D01*
X128245833Y-51529166D01*
X128775000Y-51529166D01*
X128775000Y-52058333D01*
X128775000Y-52587500D01*
X128775000Y-53116666D01*
X128245833Y-53116666D01*
X127716667Y-53116666D01*
X127716667Y-52587500D01*
X127716667Y-52058333D01*
X127187501Y-52058333D01*
X127187501Y-52587500D01*
X127187501Y-53116666D01*
X127716667Y-53116666D01*
X127716667Y-53645833D01*
X127187501Y-53645833D01*
X127187501Y-54174999D01*
X126658334Y-54174999D01*
X126658334Y-53645833D01*
X126129167Y-53645833D01*
X126129167Y-54174999D01*
X125600000Y-54174999D01*
X125070834Y-54174999D01*
X125070834Y-54704166D01*
X125600000Y-54704166D01*
X125600000Y-55233333D01*
X126129167Y-55233333D01*
X126129167Y-55762500D01*
X126129167Y-56291666D01*
X126129167Y-56820832D01*
G37*
G36*
X122954167Y-57349999D02*
G01*
X122425001Y-57349999D01*
X122425001Y-56820832D01*
X122954167Y-56820832D01*
X122954167Y-57349999D01*
G37*
G36*
X116075000Y-57349999D02*
G01*
X116075000Y-57879167D01*
X116604168Y-57879167D01*
X117133335Y-57879167D01*
X117133335Y-58408332D01*
X116604168Y-58408332D01*
X116075000Y-58408332D01*
X115545835Y-58408332D01*
X115545835Y-57879167D01*
X115545835Y-57349999D01*
X115545835Y-56820832D01*
X116075000Y-56820832D01*
X116075000Y-57349999D01*
G37*
G36*
X127187501Y-55762500D02*
G01*
X127716667Y-55762500D01*
X128245833Y-55762500D01*
X128245833Y-55233333D01*
X128775000Y-55233333D01*
X128775000Y-55762500D01*
X128775000Y-56291666D01*
X128245833Y-56291666D01*
X127716667Y-56291666D01*
X127187501Y-56291666D01*
X126658334Y-56291666D01*
X126658334Y-55762500D01*
X126658334Y-55233333D01*
X127187501Y-55233333D01*
X127187501Y-55762500D01*
G37*
G36*
X126129167Y-45179167D02*
G01*
X125600000Y-45179167D01*
X125600000Y-44650000D01*
X126129167Y-44650000D01*
X126129167Y-45179167D01*
G37*
G36*
X130362500Y-52058333D02*
G01*
X130362500Y-52587500D01*
X129833334Y-52587500D01*
X129833334Y-52058333D01*
X129304167Y-52058333D01*
X129304167Y-51529166D01*
X129833334Y-51529166D01*
X130362500Y-51529166D01*
X130362500Y-52058333D01*
G37*
G36*
X128775000Y-57349999D02*
G01*
X128245833Y-57349999D01*
X128245833Y-56820832D01*
X128775000Y-56820832D01*
X128775000Y-57349999D01*
G37*
G36*
X130891667Y-50470833D02*
G01*
X130891667Y-51000000D01*
X130362500Y-51000000D01*
X129833334Y-51000000D01*
X129304167Y-51000000D01*
X129304167Y-50470833D01*
X129833334Y-50470833D01*
X130362500Y-50470833D01*
X130362500Y-49941667D01*
X130891667Y-49941667D01*
X130891667Y-50470833D01*
G37*
G36*
X124541668Y-53116666D02*
G01*
X124012500Y-53116666D01*
X124012500Y-52587500D01*
X124541668Y-52587500D01*
X124541668Y-53116666D01*
G37*
G36*
X125600000Y-41475000D02*
G01*
X125070834Y-41475000D01*
X125070834Y-40945834D01*
X125600000Y-40945834D01*
X125600000Y-41475000D01*
G37*
G36*
X130891667Y-49412499D02*
G01*
X130362500Y-49412499D01*
X130362500Y-48883333D01*
X130891667Y-48883333D01*
X130891667Y-49412499D01*
G37*
G36*
X126658334Y-45708334D02*
G01*
X126129167Y-45708334D01*
X126129167Y-45179167D01*
X126658334Y-45179167D01*
X126658334Y-45708334D01*
G37*
G36*
X124012500Y-53645833D02*
G01*
X123483334Y-53645833D01*
X123483334Y-53116666D01*
X124012500Y-53116666D01*
X124012500Y-53645833D01*
G37*
G36*
X126658334Y-55233333D02*
G01*
X126129167Y-55233333D01*
X126129167Y-54704166D01*
X126658334Y-54704166D01*
X126658334Y-55233333D01*
G37*
G36*
X128775000Y-45708334D02*
G01*
X129304167Y-45708334D01*
X129304167Y-46237500D01*
X128775000Y-46237500D01*
X128245833Y-46237500D01*
X128245833Y-46766666D01*
X128775000Y-46766666D01*
X128775000Y-47295833D01*
X129304167Y-47295833D01*
X129833334Y-47295833D01*
X129833334Y-47825000D01*
X129304167Y-47825000D01*
X128775000Y-47825000D01*
X128245833Y-47825000D01*
X128245833Y-47295833D01*
X127716667Y-47295833D01*
X127187501Y-47295833D01*
X127187501Y-46766666D01*
X127187501Y-46237500D01*
X127187501Y-45708334D01*
X127716667Y-45708334D01*
X127716667Y-45179167D01*
X128245833Y-45179167D01*
X128775000Y-45179167D01*
X128775000Y-45708334D01*
G37*
G36*
X124541668Y-49941667D02*
G01*
X124012500Y-49941667D01*
X124012500Y-49412499D01*
X124541668Y-49412499D01*
X124541668Y-49941667D01*
G37*
G36*
X131950000Y-42533334D02*
G01*
X131950000Y-43062500D01*
X131950000Y-43591667D01*
X131420833Y-43591667D01*
X130891667Y-43591667D01*
X130362500Y-43591667D01*
X130362500Y-43062500D01*
X130362500Y-42533334D01*
X130362500Y-42004167D01*
X130891667Y-42004167D01*
X131420833Y-42004167D01*
X131950000Y-42004167D01*
X131950000Y-42533334D01*
G37*
G36*
X120837501Y-45179167D02*
G01*
X120308334Y-45179167D01*
X120308334Y-44650000D01*
X120837501Y-44650000D01*
X120837501Y-45179167D01*
G37*
G36*
X133008333Y-56291666D02*
G01*
X133008333Y-56820832D01*
X133008333Y-57349999D01*
X133008333Y-57879167D01*
X133008333Y-58408332D01*
X132479167Y-58408332D01*
X131950000Y-58408332D01*
X131420833Y-58408332D01*
X130891667Y-58408332D01*
X130362500Y-58408332D01*
X129833334Y-58408332D01*
X129304167Y-58408332D01*
X129304167Y-57879167D01*
X129304167Y-57349999D01*
X129304167Y-56820832D01*
X129304167Y-56291666D01*
X129304167Y-55762500D01*
X129304167Y-55233333D01*
X129833334Y-55233333D01*
X129833334Y-55762500D01*
X129833334Y-56291666D01*
X129833334Y-56820832D01*
X129833334Y-57349999D01*
X129833334Y-57879167D01*
X130362500Y-57879167D01*
X130891667Y-57879167D01*
X131420833Y-57879167D01*
X131950000Y-57879167D01*
X132479167Y-57879167D01*
X132479167Y-57349999D01*
X132479167Y-56820832D01*
X132479167Y-56291666D01*
X132479167Y-55762500D01*
X132479167Y-55233333D01*
X131950000Y-55233333D01*
X131420833Y-55233333D01*
X130891667Y-55233333D01*
X130362500Y-55233333D01*
X129833334Y-55233333D01*
X129304167Y-55233333D01*
X129304167Y-54704166D01*
X129833334Y-54704166D01*
X130362500Y-54704166D01*
X130891667Y-54704166D01*
X131420833Y-54704166D01*
X131950000Y-54704166D01*
X132479167Y-54704166D01*
X133008333Y-54704166D01*
X133008333Y-55233333D01*
X133008333Y-55762500D01*
X133008333Y-56291666D01*
G37*
G36*
X130362500Y-54174999D02*
G01*
X129833334Y-54174999D01*
X129304167Y-54174999D01*
X129304167Y-53645833D01*
X129833334Y-53645833D01*
X130362500Y-53645833D01*
X130362500Y-54174999D01*
G37*
G36*
X129833334Y-48883333D02*
G01*
X129304167Y-48883333D01*
X128775000Y-48883333D01*
X128775000Y-48354167D01*
X129304167Y-48354167D01*
X129833334Y-48354167D01*
X129833334Y-48883333D01*
G37*
G36*
X120308334Y-41475000D02*
G01*
X119779168Y-41475000D01*
X119779168Y-40945834D01*
X120308334Y-40945834D01*
X120308334Y-41475000D01*
G37*
G36*
X132479167Y-53645833D02*
G01*
X131950000Y-53645833D01*
X131420833Y-53645833D01*
X130891667Y-53645833D01*
X130891667Y-53116666D01*
X131420833Y-53116666D01*
X131950000Y-53116666D01*
X132479167Y-53116666D01*
X132479167Y-53645833D01*
G37*
G36*
X128245833Y-51529166D02*
G01*
X127716667Y-51529166D01*
X127716667Y-51000000D01*
X128245833Y-51000000D01*
X128245833Y-51529166D01*
G37*
G36*
X119250001Y-42533334D02*
G01*
X119250001Y-43062500D01*
X119250001Y-43591667D01*
X119250001Y-44120833D01*
X119250001Y-44650000D01*
X118720834Y-44650000D01*
X118191667Y-44650000D01*
X117662501Y-44650000D01*
X117133335Y-44650000D01*
X116604168Y-44650000D01*
X116075000Y-44650000D01*
X115545835Y-44650000D01*
X115545835Y-44120833D01*
X115545835Y-43591667D01*
X115545835Y-43062500D01*
X115545835Y-42533334D01*
X115545835Y-42004167D01*
X115545835Y-41475000D01*
X116075000Y-41475000D01*
X116075000Y-42004167D01*
X116075000Y-42533334D01*
X116075000Y-43062500D01*
X116075000Y-43591667D01*
X116075000Y-44120833D01*
X116604168Y-44120833D01*
X117133335Y-44120833D01*
X117662501Y-44120833D01*
X118191667Y-44120833D01*
X118720834Y-44120833D01*
X118720834Y-43591667D01*
X118720834Y-43062500D01*
X118720834Y-42533334D01*
X118720834Y-42004167D01*
X118720834Y-41475000D01*
X118191667Y-41475000D01*
X117662501Y-41475000D01*
X117133335Y-41475000D01*
X116604168Y-41475000D01*
X116075000Y-41475000D01*
X115545835Y-41475000D01*
X115545835Y-40945834D01*
X116075000Y-40945834D01*
X116604168Y-40945834D01*
X117133335Y-40945834D01*
X117662501Y-40945834D01*
X118191667Y-40945834D01*
X118720834Y-40945834D01*
X119250001Y-40945834D01*
X119250001Y-41475000D01*
X119250001Y-42004167D01*
X119250001Y-42533334D01*
G37*
G36*
X121366667Y-42004167D02*
G01*
X121895834Y-42004167D01*
X121895834Y-41475000D01*
X122425001Y-41475000D01*
X122954167Y-41475000D01*
X122954167Y-42004167D01*
X122425001Y-42004167D01*
X122425001Y-42533334D01*
X122425001Y-43062500D01*
X121895834Y-43062500D01*
X121366667Y-43062500D01*
X121366667Y-42533334D01*
X120837501Y-42533334D01*
X120837501Y-43062500D01*
X120308334Y-43062500D01*
X120308334Y-43591667D01*
X120837501Y-43591667D01*
X120837501Y-44120833D01*
X120308334Y-44120833D01*
X120308334Y-44650000D01*
X119779168Y-44650000D01*
X119779168Y-44120833D01*
X119779168Y-43591667D01*
X119779168Y-43062500D01*
X119779168Y-42533334D01*
X120308334Y-42533334D01*
X120308334Y-42004167D01*
X120837501Y-42004167D01*
X120837501Y-41475000D01*
X121366667Y-41475000D01*
X121366667Y-42004167D01*
G37*
G36*
X124541668Y-42533334D02*
G01*
X124012500Y-42533334D01*
X123483334Y-42533334D01*
X122954167Y-42533334D01*
X122954167Y-42004167D01*
X123483334Y-42004167D01*
X124012500Y-42004167D01*
X124541668Y-42004167D01*
X124541668Y-42533334D01*
G37*
G36*
X123483334Y-41475000D02*
G01*
X122954167Y-41475000D01*
X122954167Y-40945834D01*
X123483334Y-40945834D01*
X123483334Y-41475000D01*
G37*
G36*
X129304167Y-53645833D02*
G01*
X128775000Y-53645833D01*
X128775000Y-53116666D01*
X129304167Y-53116666D01*
X129304167Y-53645833D01*
G37*
G36*
X117662501Y-45708334D02*
G01*
X117133335Y-45708334D01*
X117133335Y-45179167D01*
X117662501Y-45179167D01*
X117662501Y-45708334D01*
G37*
G36*
X128775000Y-44650000D02*
G01*
X128245833Y-44650000D01*
X128245833Y-44120833D01*
X128775000Y-44120833D01*
X128775000Y-44650000D01*
G37*
G36*
X128775000Y-41475000D02*
G01*
X128245833Y-41475000D01*
X127716667Y-41475000D01*
X127187501Y-41475000D01*
X126658334Y-41475000D01*
X126658334Y-40945834D01*
X127187501Y-40945834D01*
X127716667Y-40945834D01*
X128245833Y-40945834D01*
X128775000Y-40945834D01*
X128775000Y-41475000D01*
G37*
G36*
X128245833Y-48354167D02*
G01*
X127716667Y-48354167D01*
X127716667Y-48883333D01*
X127716667Y-49412499D01*
X127187501Y-49412499D01*
X127187501Y-48883333D01*
X126658334Y-48883333D01*
X126658334Y-49412499D01*
X126658334Y-49941667D01*
X126658334Y-50470833D01*
X126129167Y-50470833D01*
X126129167Y-49941667D01*
X126129167Y-49412499D01*
X125600000Y-49412499D01*
X125070834Y-49412499D01*
X124541668Y-49412499D01*
X124541668Y-48883333D01*
X125070834Y-48883333D01*
X125070834Y-48354167D01*
X125600000Y-48354167D01*
X126129167Y-48354167D01*
X126658334Y-48354167D01*
X127187501Y-48354167D01*
X127187501Y-47825000D01*
X127716667Y-47825000D01*
X128245833Y-47825000D01*
X128245833Y-48354167D01*
G37*
G36*
X116075000Y-50470833D02*
G01*
X115545835Y-50470833D01*
X115545835Y-49941667D01*
X116075000Y-49941667D01*
X116075000Y-50470833D01*
G37*
G36*
X118191667Y-42533334D02*
G01*
X118191667Y-43062500D01*
X118191667Y-43591667D01*
X117662501Y-43591667D01*
X117133335Y-43591667D01*
X116604168Y-43591667D01*
X116604168Y-43062500D01*
X116604168Y-42533334D01*
X116604168Y-42004167D01*
X117133335Y-42004167D01*
X117662501Y-42004167D01*
X118191667Y-42004167D01*
X118191667Y-42533334D01*
G37*
G36*
X126658334Y-42004167D02*
G01*
X126129167Y-42004167D01*
X125600000Y-42004167D01*
X125600000Y-41475000D01*
X126129167Y-41475000D01*
X126658334Y-41475000D01*
X126658334Y-42004167D01*
G37*
G36*
X121366667Y-43591667D02*
G01*
X120837501Y-43591667D01*
X120837501Y-43062500D01*
X121366667Y-43062500D01*
X121366667Y-43591667D01*
G37*
G36*
X121895834Y-45708334D02*
G01*
X121366667Y-45708334D01*
X121366667Y-45179167D01*
X121895834Y-45179167D01*
X121895834Y-45708334D01*
G37*
G36*
X127187501Y-47825000D02*
G01*
X126658334Y-47825000D01*
X126658334Y-47295833D01*
X127187501Y-47295833D01*
X127187501Y-47825000D01*
G37*
G36*
X128775000Y-54704166D02*
G01*
X128245833Y-54704166D01*
X128245833Y-54174999D01*
X128775000Y-54174999D01*
X128775000Y-54704166D01*
G37*
G36*
X122954167Y-53645833D02*
G01*
X122954167Y-54174999D01*
X123483334Y-54174999D01*
X123483334Y-54704166D01*
X122954167Y-54704166D01*
X122425001Y-54704166D01*
X121895834Y-54704166D01*
X121366667Y-54704166D01*
X121366667Y-54174999D01*
X120837501Y-54174999D01*
X120308334Y-54174999D01*
X120308334Y-54704166D01*
X120837501Y-54704166D01*
X121366667Y-54704166D01*
X121366667Y-55233333D01*
X121895834Y-55233333D01*
X122425001Y-55233333D01*
X122954167Y-55233333D01*
X122954167Y-55762500D01*
X123483334Y-55762500D01*
X123483334Y-55233333D01*
X124012500Y-55233333D01*
X124012500Y-55762500D01*
X124012500Y-56291666D01*
X123483334Y-56291666D01*
X122954167Y-56291666D01*
X122954167Y-55762500D01*
X122425001Y-55762500D01*
X122425001Y-56291666D01*
X121895834Y-56291666D01*
X121895834Y-55762500D01*
X121366667Y-55762500D01*
X121366667Y-56291666D01*
X121366667Y-56820832D01*
X121366667Y-57349999D01*
X121366667Y-57879167D01*
X120837501Y-57879167D01*
X120837501Y-58408332D01*
X120308334Y-58408332D01*
X119779168Y-58408332D01*
X119250001Y-58408332D01*
X119250001Y-57879167D01*
X119779168Y-57879167D01*
X120308334Y-57879167D01*
X120308334Y-57349999D01*
X119779168Y-57349999D01*
X119779168Y-56820832D01*
X119779168Y-56291666D01*
X119250001Y-56291666D01*
X119250001Y-56820832D01*
X118720834Y-56820832D01*
X118720834Y-56291666D01*
X118191667Y-56291666D01*
X118191667Y-56820832D01*
X118720834Y-56820832D01*
X118720834Y-57349999D01*
X118720834Y-57879167D01*
X118720834Y-58408332D01*
X118191667Y-58408332D01*
X117662501Y-58408332D01*
X117662501Y-57879167D01*
X117133335Y-57879167D01*
X117133335Y-57349999D01*
X117662501Y-57349999D01*
X117662501Y-56820832D01*
X117133335Y-56820832D01*
X117133335Y-56291666D01*
X117662501Y-56291666D01*
X117662501Y-55762500D01*
X117133335Y-55762500D01*
X117133335Y-55233333D01*
X117133335Y-54704166D01*
X117133335Y-54174999D01*
X117662501Y-54174999D01*
X118191667Y-54174999D01*
X118191667Y-54704166D01*
X118191667Y-55233333D01*
X118191667Y-55762500D01*
X118720834Y-55762500D01*
X119250001Y-55762500D01*
X119779168Y-55762500D01*
X120308334Y-55762500D01*
X120837501Y-55762500D01*
X120837501Y-55233333D01*
X120308334Y-55233333D01*
X120308334Y-55762500D01*
X119779168Y-55762500D01*
X119779168Y-55233333D01*
X119779168Y-54704166D01*
X119779168Y-54174999D01*
X119250001Y-54174999D01*
X118720834Y-54174999D01*
X118191667Y-54174999D01*
X117662501Y-54174999D01*
X117662501Y-53645833D01*
X118191667Y-53645833D01*
X118720834Y-53645833D01*
X118720834Y-53116666D01*
X118720834Y-52587500D01*
X119250001Y-52587500D01*
X119250001Y-53116666D01*
X119779168Y-53116666D01*
X120308334Y-53116666D01*
X120308334Y-53645833D01*
X120837501Y-53645833D01*
X121366667Y-53645833D01*
X121895834Y-53645833D01*
X121895834Y-54174999D01*
X122425001Y-54174999D01*
X122425001Y-53645833D01*
X121895834Y-53645833D01*
X121366667Y-53645833D01*
X121366667Y-53116666D01*
X121366667Y-52587500D01*
X120837501Y-52587500D01*
X120837501Y-53116666D01*
X120308334Y-53116666D01*
X119779168Y-53116666D01*
X119779168Y-52587500D01*
X119779168Y-52058333D01*
X119779168Y-51529166D01*
X119779168Y-51000000D01*
X119779168Y-50470833D01*
X119779168Y-49941667D01*
X120308334Y-49941667D01*
X120837501Y-49941667D01*
X120837501Y-50470833D01*
X120837501Y-51000000D01*
X120308334Y-51000000D01*
X120308334Y-51529166D01*
X120308334Y-52058333D01*
X120837501Y-52058333D01*
X121366667Y-52058333D01*
X121895834Y-52058333D01*
X121895834Y-51529166D01*
X122425001Y-51529166D01*
X122425001Y-52058333D01*
X122425001Y-52587500D01*
X122954167Y-52587500D01*
X123483334Y-52587500D01*
X123483334Y-53116666D01*
X122954167Y-53116666D01*
X122954167Y-53645833D01*
G37*
G36*
X117662501Y-53116666D02*
G01*
X117662501Y-53645833D01*
X117133335Y-53645833D01*
X117133335Y-53116666D01*
X117133335Y-52587500D01*
X117662501Y-52587500D01*
X117662501Y-53116666D01*
G37*
G36*
X118191667Y-49412499D02*
G01*
X117662501Y-49412499D01*
X117662501Y-48883333D01*
X118191667Y-48883333D01*
X118191667Y-49412499D01*
G37*
G36*
X133008333Y-42533334D02*
G01*
X133008333Y-43062500D01*
X133008333Y-43591667D01*
X133008333Y-44120833D01*
X133008333Y-44650000D01*
X132479167Y-44650000D01*
X131950000Y-44650000D01*
X131420833Y-44650000D01*
X130891667Y-44650000D01*
X130362500Y-44650000D01*
X129833334Y-44650000D01*
X129304167Y-44650000D01*
X129304167Y-44120833D01*
X129304167Y-43591667D01*
X129304167Y-43062500D01*
X129304167Y-42533334D01*
X129304167Y-42004167D01*
X129304167Y-41475000D01*
X129833334Y-41475000D01*
X129833334Y-42004167D01*
X129833334Y-42533334D01*
X129833334Y-43062500D01*
X129833334Y-43591667D01*
X129833334Y-44120833D01*
X130362500Y-44120833D01*
X130891667Y-44120833D01*
X131420833Y-44120833D01*
X131950000Y-44120833D01*
X132479167Y-44120833D01*
X132479167Y-43591667D01*
X132479167Y-43062500D01*
X132479167Y-42533334D01*
X132479167Y-42004167D01*
X132479167Y-41475000D01*
X131950000Y-41475000D01*
X131420833Y-41475000D01*
X130891667Y-41475000D01*
X130362500Y-41475000D01*
X129833334Y-41475000D01*
X129304167Y-41475000D01*
X129304167Y-40945834D01*
X129833334Y-40945834D01*
X130362500Y-40945834D01*
X130891667Y-40945834D01*
X131420833Y-40945834D01*
X131950000Y-40945834D01*
X132479167Y-40945834D01*
X133008333Y-40945834D01*
X133008333Y-41475000D01*
X133008333Y-42004167D01*
X133008333Y-42533334D01*
G37*
G36*
X118191667Y-46237500D02*
G01*
X117662501Y-46237500D01*
X117662501Y-45708334D01*
X118191667Y-45708334D01*
X118191667Y-46237500D01*
G37*
G36*
X126658334Y-47295833D02*
G01*
X126129167Y-47295833D01*
X126129167Y-46766666D01*
X126658334Y-46766666D01*
X126658334Y-47295833D01*
G37*
G36*
X117133335Y-57349999D02*
G01*
X116604168Y-57349999D01*
X116604168Y-56820832D01*
X117133335Y-56820832D01*
X117133335Y-57349999D01*
G37*
G36*
X124012500Y-52058333D02*
G01*
X123483334Y-52058333D01*
X122954167Y-52058333D01*
X122954167Y-51529166D01*
X123483334Y-51529166D01*
X124012500Y-51529166D01*
X124012500Y-52058333D01*
G37*
G36*
X130362500Y-48354167D02*
G01*
X129833334Y-48354167D01*
X129833334Y-47825000D01*
X130362500Y-47825000D01*
X130362500Y-48354167D01*
G37*
G36*
X131420833Y-46237500D02*
G01*
X130891667Y-46237500D01*
X130891667Y-45708334D01*
X131420833Y-45708334D01*
X131420833Y-46237500D01*
G37*
G36*
X133008333Y-54174999D02*
G01*
X132479167Y-54174999D01*
X132479167Y-53645833D01*
X133008333Y-53645833D01*
X133008333Y-54174999D01*
G37*
G36*
X116604168Y-55233333D02*
G01*
X116604168Y-55762500D01*
X116604168Y-56291666D01*
X116075000Y-56291666D01*
X115545835Y-56291666D01*
X115545835Y-55762500D01*
X115545835Y-55233333D01*
X115545835Y-54704166D01*
X116075000Y-54704166D01*
X116604168Y-54704166D01*
X116604168Y-55233333D01*
G37*
G36*
X131950000Y-56291666D02*
G01*
X131950000Y-56820832D01*
X131950000Y-57349999D01*
X131420833Y-57349999D01*
X130891667Y-57349999D01*
X130362500Y-57349999D01*
X130362500Y-56820832D01*
X130362500Y-56291666D01*
X130362500Y-55762500D01*
X130891667Y-55762500D01*
X131420833Y-55762500D01*
X131950000Y-55762500D01*
X131950000Y-56291666D01*
G37*
G36*
X132479167Y-47295833D02*
G01*
X133008333Y-47295833D01*
X133008333Y-47825000D01*
X132479167Y-47825000D01*
X131950000Y-47825000D01*
X131950000Y-48354167D01*
X132479167Y-48354167D01*
X132479167Y-48883333D01*
X133008333Y-48883333D01*
X133008333Y-49412499D01*
X133008333Y-49941667D01*
X132479167Y-49941667D01*
X132479167Y-50470833D01*
X132479167Y-51000000D01*
X133008333Y-51000000D01*
X133008333Y-51529166D01*
X132479167Y-51529166D01*
X131950000Y-51529166D01*
X131950000Y-51000000D01*
X131950000Y-50470833D01*
X131420833Y-50470833D01*
X131420833Y-49941667D01*
X131950000Y-49941667D01*
X131950000Y-49412499D01*
X131950000Y-48883333D01*
X131420833Y-48883333D01*
X130891667Y-48883333D01*
X130891667Y-48354167D01*
X131420833Y-48354167D01*
X131420833Y-47825000D01*
X130891667Y-47825000D01*
X130891667Y-47295833D01*
X130891667Y-46766666D01*
X131420833Y-46766666D01*
X131950000Y-46766666D01*
X132479167Y-46766666D01*
X132479167Y-47295833D01*
G37*
G36*
X128775000Y-43062500D02*
G01*
X128245833Y-43062500D01*
X128245833Y-42533334D01*
X128775000Y-42533334D01*
X128775000Y-43062500D01*
G37*
G36*
X124012500Y-49412499D02*
G01*
X123483334Y-49412499D01*
X123483334Y-48883333D01*
X124012500Y-48883333D01*
X124012500Y-49412499D01*
G37*
G36*
X125070834Y-51000000D02*
G01*
X124541668Y-51000000D01*
X124541668Y-51529166D01*
X124012500Y-51529166D01*
X124012500Y-51000000D01*
X124012500Y-50470833D01*
X124541668Y-50470833D01*
X125070834Y-50470833D01*
X125070834Y-51000000D01*
G37*
G36*
X125600000Y-50470833D02*
G01*
X125070834Y-50470833D01*
X125070834Y-49941667D01*
X125600000Y-49941667D01*
X125600000Y-50470833D01*
G37*
G36*
X130362500Y-49941667D02*
G01*
X129833334Y-49941667D01*
X129304167Y-49941667D01*
X128775000Y-49941667D01*
X128245833Y-49941667D01*
X128245833Y-50470833D01*
X127716667Y-50470833D01*
X127187501Y-50470833D01*
X127187501Y-49941667D01*
X127716667Y-49941667D01*
X127716667Y-49412499D01*
X128245833Y-49412499D01*
X128775000Y-49412499D01*
X129304167Y-49412499D01*
X129833334Y-49412499D01*
X130362500Y-49412499D01*
X130362500Y-49941667D01*
G37*
G36*
X129833334Y-46766666D02*
G01*
X129304167Y-46766666D01*
X129304167Y-46237500D01*
X129833334Y-46237500D01*
X129833334Y-46766666D01*
G37*
G36*
X131950000Y-45708334D02*
G01*
X131420833Y-45708334D01*
X131420833Y-45179167D01*
X131950000Y-45179167D01*
X131950000Y-45708334D01*
G37*
G36*
X130891667Y-45708334D02*
G01*
X130362500Y-45708334D01*
X129833334Y-45708334D01*
X129304167Y-45708334D01*
X129304167Y-45179167D01*
X129833334Y-45179167D01*
X130362500Y-45179167D01*
X130891667Y-45179167D01*
X130891667Y-45708334D01*
G37*
G36*
X119250001Y-55233333D02*
G01*
X118720834Y-55233333D01*
X118720834Y-54704166D01*
X119250001Y-54704166D01*
X119250001Y-55233333D01*
G37*
%TO.C,G\u002A\u002A\u002A*%
G36*
X90907423Y-72658247D02*
G01*
X90894330Y-72671340D01*
X90881237Y-72658247D01*
X90894330Y-72645154D01*
X90907423Y-72658247D01*
G37*
G36*
X92792784Y-73836598D02*
G01*
X92779691Y-73849691D01*
X92766598Y-73836598D01*
X92779691Y-73823505D01*
X92792784Y-73836598D01*
G37*
G36*
X91631890Y-72156357D02*
G01*
X91635987Y-72164233D01*
X91614433Y-72173814D01*
X91600571Y-72171925D01*
X91596976Y-72156357D01*
X91600814Y-72153223D01*
X91631890Y-72156357D01*
G37*
G36*
X91998488Y-72837182D02*
G01*
X92002585Y-72845058D01*
X91981031Y-72854639D01*
X91967169Y-72852749D01*
X91963574Y-72837182D01*
X91967412Y-72834048D01*
X91998488Y-72837182D01*
G37*
G36*
X92731684Y-74225017D02*
G01*
X92735781Y-74232893D01*
X92714227Y-74242474D01*
X92700364Y-74240584D01*
X92696770Y-74225017D01*
X92700608Y-74221883D01*
X92731684Y-74225017D01*
G37*
G36*
X92810241Y-74172646D02*
G01*
X92814337Y-74180522D01*
X92792784Y-74190103D01*
X92778921Y-74188213D01*
X92775327Y-74172646D01*
X92779165Y-74169512D01*
X92810241Y-74172646D01*
G37*
G36*
X92888797Y-74146460D02*
G01*
X92892894Y-74154336D01*
X92871340Y-74163917D01*
X92857478Y-74162028D01*
X92853883Y-74146460D01*
X92857721Y-74143326D01*
X92888797Y-74146460D01*
G37*
G36*
X93674364Y-70532852D02*
G01*
X93678461Y-70540728D01*
X93656907Y-70550309D01*
X93643045Y-70548419D01*
X93639450Y-70532852D01*
X93643288Y-70529718D01*
X93674364Y-70532852D01*
G37*
G36*
X93122604Y-74055129D02*
G01*
X93114521Y-74066762D01*
X93092372Y-74085361D01*
X93088712Y-74085106D01*
X93082945Y-74069948D01*
X93111056Y-74043582D01*
X93125690Y-74037211D01*
X93122604Y-74055129D01*
G37*
G36*
X93288994Y-74359496D02*
G01*
X93298559Y-74368209D01*
X93300874Y-74403678D01*
X93289182Y-74415195D01*
X93256368Y-74402306D01*
X93241808Y-74378720D01*
X93251820Y-74353389D01*
X93288994Y-74359496D01*
G37*
G36*
X92640745Y-74221864D02*
G01*
X92648763Y-74242474D01*
X92639429Y-74252701D01*
X92594847Y-74268660D01*
X92578211Y-74265960D01*
X92557114Y-74242474D01*
X92567647Y-74226972D01*
X92611030Y-74216289D01*
X92640745Y-74221864D01*
G37*
G36*
X93812668Y-70743945D02*
G01*
X93877375Y-70799634D01*
X93912823Y-70879495D01*
X93908729Y-70979506D01*
X93906851Y-70985897D01*
X93868605Y-71047590D01*
X93806772Y-71100920D01*
X93735033Y-71136103D01*
X93633678Y-71149001D01*
X93527852Y-71114267D01*
X93466648Y-71070909D01*
X93424421Y-70996746D01*
X93431431Y-70909950D01*
X93488280Y-70815064D01*
X93545836Y-70762127D01*
X93636615Y-70721169D01*
X93728987Y-70716449D01*
X93812668Y-70743945D01*
G37*
G36*
X92464003Y-71064162D02*
G01*
X92551873Y-71109384D01*
X92615225Y-71193997D01*
X92626232Y-71222452D01*
X92626239Y-71271807D01*
X92591869Y-71330086D01*
X92537232Y-71389225D01*
X92476033Y-71435098D01*
X92413152Y-71455342D01*
X92316406Y-71456766D01*
X92223921Y-71432857D01*
X92158051Y-71386996D01*
X92156745Y-71385372D01*
X92117050Y-71308289D01*
X92126718Y-71232922D01*
X92186576Y-71152489D01*
X92259472Y-71096228D01*
X92362805Y-71059415D01*
X92464003Y-71064162D01*
G37*
G36*
X92994279Y-69255582D02*
G01*
X93010759Y-69283486D01*
X92999520Y-69309806D01*
X92985575Y-69331453D01*
X92986544Y-69332680D01*
X92996880Y-69345773D01*
X93007751Y-69343457D01*
X93036018Y-69313041D01*
X93045499Y-69307186D01*
X93081384Y-69322235D01*
X93131093Y-69359815D01*
X93152898Y-69380687D01*
X93182104Y-69408644D01*
X93214855Y-69448810D01*
X93221893Y-69457442D01*
X93237938Y-69494930D01*
X93239474Y-69508145D01*
X93257578Y-69529276D01*
X93282628Y-69549611D01*
X93309028Y-69599282D01*
X93326250Y-69655118D01*
X93324814Y-69693909D01*
X93320345Y-69703776D01*
X93334980Y-69704038D01*
X93343679Y-69703312D01*
X93373760Y-69730418D01*
X93400933Y-69777835D01*
X93407067Y-69788539D01*
X93441611Y-69852213D01*
X93485486Y-69887206D01*
X93557381Y-69903523D01*
X93590475Y-69909954D01*
X93675639Y-69939467D01*
X93764032Y-69983669D01*
X93845360Y-70035544D01*
X93909331Y-70088076D01*
X93945649Y-70134251D01*
X93944022Y-70167051D01*
X93943626Y-70167363D01*
X93911756Y-70167456D01*
X93843784Y-70157336D01*
X93753786Y-70139074D01*
X93749367Y-70138086D01*
X93659472Y-70120632D01*
X93591631Y-70112179D01*
X93560225Y-70114551D01*
X93556875Y-70139431D01*
X93562953Y-70202614D01*
X93578213Y-70287805D01*
X93611692Y-70445567D01*
X93714157Y-70445567D01*
X93762502Y-70448333D01*
X93896985Y-70488664D01*
X94007986Y-70573814D01*
X94025115Y-70594533D01*
X94037035Y-70623523D01*
X94013148Y-70622227D01*
X93959583Y-70588755D01*
X93908130Y-70563689D01*
X93833480Y-70550309D01*
X93772270Y-70543782D01*
X93707929Y-70523401D01*
X93680816Y-70513729D01*
X93626190Y-70518950D01*
X93546080Y-70553414D01*
X93512876Y-70571395D01*
X93445585Y-70614543D01*
X93405659Y-70649786D01*
X93385335Y-70668521D01*
X93342607Y-70668099D01*
X93326536Y-70660344D01*
X93323049Y-70670658D01*
X93324667Y-70676306D01*
X93311762Y-70716904D01*
X93274854Y-70772899D01*
X93273118Y-70775068D01*
X93233606Y-70820791D01*
X93215978Y-70827427D01*
X93211883Y-70798352D01*
X93227954Y-70734604D01*
X93277363Y-70651276D01*
X93349638Y-70571798D01*
X93355184Y-70566789D01*
X93378428Y-70540400D01*
X93385788Y-70508563D01*
X93377599Y-70456357D01*
X93354197Y-70368860D01*
X93328159Y-70282856D01*
X93305180Y-70234564D01*
X93277032Y-70214124D01*
X93234987Y-70209897D01*
X93188492Y-70200872D01*
X93146926Y-70158431D01*
X93141116Y-70089906D01*
X93173944Y-70004976D01*
X93191760Y-69973283D01*
X93202775Y-69938330D01*
X93196645Y-69899050D01*
X93170513Y-69841676D01*
X93135461Y-69777835D01*
X93342681Y-69777835D01*
X93355773Y-69790928D01*
X93368866Y-69777835D01*
X93355773Y-69764742D01*
X93342681Y-69777835D01*
X93135461Y-69777835D01*
X93121521Y-69752446D01*
X93044517Y-69637536D01*
X92927370Y-69519273D01*
X92797292Y-69436282D01*
X92692636Y-69399849D01*
X93113431Y-69399849D01*
X93120103Y-69424330D01*
X93125483Y-69432081D01*
X93149380Y-69450515D01*
X93152961Y-69448810D01*
X93146289Y-69424330D01*
X93140909Y-69416578D01*
X93117013Y-69398144D01*
X93113431Y-69399849D01*
X92692636Y-69399849D01*
X92661294Y-69388938D01*
X92656827Y-69388563D01*
X93033086Y-69388563D01*
X93054639Y-69398144D01*
X93068502Y-69396254D01*
X93072096Y-69380687D01*
X93068258Y-69377553D01*
X93037182Y-69380687D01*
X93033086Y-69388563D01*
X92656827Y-69388563D01*
X92526389Y-69377614D01*
X92399589Y-69402685D01*
X92384144Y-69411237D01*
X92289563Y-69463608D01*
X92287907Y-69464525D01*
X92238649Y-69518969D01*
X92198353Y-69563507D01*
X92179509Y-69606083D01*
X92147152Y-69679194D01*
X92137941Y-69700005D01*
X92130073Y-69731457D01*
X92118438Y-69843299D01*
X92116654Y-69860448D01*
X92125371Y-69948041D01*
X92131391Y-70008527D01*
X92139014Y-70039691D01*
X92175197Y-70187619D01*
X92218884Y-70335548D01*
X92317845Y-70322275D01*
X92320920Y-70321871D01*
X92405132Y-70322402D01*
X92460775Y-70352969D01*
X92498895Y-70409645D01*
X92500167Y-70474110D01*
X92457064Y-70525607D01*
X92373815Y-70554346D01*
X92334969Y-70564169D01*
X92315989Y-70592500D01*
X92317395Y-70655051D01*
X92324819Y-70708250D01*
X92349723Y-70768570D01*
X92400742Y-70797351D01*
X92490575Y-70805635D01*
X92577332Y-70816013D01*
X92687205Y-70863940D01*
X92742886Y-70908695D01*
X92763142Y-70939654D01*
X92738076Y-70946924D01*
X92668402Y-70928064D01*
X92636696Y-70917883D01*
X92503587Y-70894961D01*
X92373364Y-70899409D01*
X92267003Y-70931070D01*
X92262195Y-70933492D01*
X92200300Y-70954600D01*
X92157015Y-70953057D01*
X92143717Y-70946798D01*
X92144597Y-70956257D01*
X92146480Y-70959442D01*
X92133153Y-70988244D01*
X92087102Y-71024669D01*
X92021109Y-71076266D01*
X91965814Y-71139051D01*
X91963962Y-71141850D01*
X91929939Y-71183646D01*
X91908496Y-71193512D01*
X91904446Y-71185899D01*
X91911301Y-71141438D01*
X91941512Y-71077999D01*
X91986602Y-71011099D01*
X92038097Y-70956253D01*
X92082234Y-70914021D01*
X92103144Y-70866671D01*
X92097196Y-70799381D01*
X92095032Y-70788629D01*
X92075885Y-70725372D01*
X92054624Y-70691262D01*
X92039620Y-70690919D01*
X91991202Y-70712988D01*
X91928200Y-70757015D01*
X91892502Y-70784982D01*
X91839517Y-70823316D01*
X91812360Y-70838350D01*
X91806488Y-70837421D01*
X91795129Y-70810092D01*
X91807950Y-70753100D01*
X91840363Y-70677566D01*
X91887780Y-70594613D01*
X91945612Y-70515360D01*
X91954919Y-70503652D01*
X91986640Y-70449859D01*
X91990845Y-70414076D01*
X91983314Y-70398952D01*
X91968784Y-70356236D01*
X91949744Y-70284561D01*
X91924271Y-70176462D01*
X91893826Y-70039691D01*
X91981031Y-70039691D01*
X91994124Y-70052783D01*
X92007217Y-70039691D01*
X91994124Y-70026598D01*
X91981031Y-70039691D01*
X91893826Y-70039691D01*
X91890439Y-70024474D01*
X91877089Y-69959302D01*
X91874007Y-69934422D01*
X91960440Y-69934422D01*
X91963574Y-69965498D01*
X91971450Y-69969595D01*
X91981031Y-69948041D01*
X91979141Y-69934179D01*
X91963574Y-69930584D01*
X91960440Y-69934422D01*
X91874007Y-69934422D01*
X91866126Y-69870796D01*
X91868385Y-69829680D01*
X91960440Y-69829680D01*
X91963574Y-69860756D01*
X91971450Y-69864852D01*
X91981031Y-69843299D01*
X91979141Y-69829436D01*
X91963574Y-69825842D01*
X91960440Y-69829680D01*
X91868385Y-69829680D01*
X91870558Y-69790130D01*
X91888645Y-69699278D01*
X91981031Y-69699278D01*
X91982169Y-69717174D01*
X91991322Y-69738557D01*
X91998100Y-69733732D01*
X92016686Y-69699278D01*
X92020803Y-69679194D01*
X92006395Y-69660000D01*
X91994735Y-69664425D01*
X91981031Y-69699278D01*
X91888645Y-69699278D01*
X91890383Y-69690547D01*
X91910985Y-69622267D01*
X91981031Y-69622267D01*
X91981712Y-69624880D01*
X92007217Y-69633814D01*
X92014394Y-69632749D01*
X92033402Y-69606083D01*
X92031346Y-69596612D01*
X92007217Y-69594536D01*
X91999380Y-69599910D01*
X91981031Y-69622267D01*
X91910985Y-69622267D01*
X91929007Y-69562538D01*
X91963526Y-69496340D01*
X92033803Y-69496340D01*
X92034878Y-69524406D01*
X92046495Y-69554183D01*
X92069407Y-69534368D01*
X92072622Y-69518969D01*
X92058261Y-69475451D01*
X92053744Y-69468607D01*
X92046032Y-69463608D01*
X92085773Y-69463608D01*
X92098866Y-69476701D01*
X92111959Y-69463608D01*
X92098866Y-69450515D01*
X92085773Y-69463608D01*
X92046032Y-69463608D01*
X92038202Y-69458533D01*
X92033803Y-69496340D01*
X91963526Y-69496340D01*
X92007903Y-69411237D01*
X92033402Y-69411237D01*
X92046495Y-69424330D01*
X92059588Y-69411237D01*
X92046495Y-69398144D01*
X92033402Y-69411237D01*
X92007903Y-69411237D01*
X92018558Y-69390804D01*
X92072739Y-69332680D01*
X92164330Y-69332680D01*
X92177423Y-69345773D01*
X92190516Y-69332680D01*
X92177423Y-69319587D01*
X92164330Y-69332680D01*
X92072739Y-69332680D01*
X92142257Y-69258104D01*
X92147215Y-69254124D01*
X92242887Y-69254124D01*
X92255980Y-69267216D01*
X92269072Y-69254124D01*
X92897526Y-69254124D01*
X92910619Y-69267216D01*
X92923712Y-69254124D01*
X92910619Y-69241031D01*
X92897526Y-69254124D01*
X92269072Y-69254124D01*
X92255980Y-69241031D01*
X92242887Y-69254124D01*
X92147215Y-69254124D01*
X92161626Y-69242555D01*
X92221758Y-69194165D01*
X92261421Y-69162079D01*
X92309131Y-69138794D01*
X92354459Y-69143869D01*
X92373815Y-69178368D01*
X92382144Y-69204721D01*
X92419639Y-69201004D01*
X92464782Y-69184984D01*
X92567959Y-69161983D01*
X92677884Y-69150111D01*
X92775666Y-69150930D01*
X92842414Y-69166005D01*
X92851485Y-69170604D01*
X92943411Y-69219989D01*
X92992195Y-69254124D01*
X92994279Y-69255582D01*
G37*
G36*
X92753128Y-73140082D02*
G01*
X92787176Y-73303962D01*
X92821987Y-73422954D01*
X92858106Y-73499644D01*
X92866105Y-73510572D01*
X92920573Y-73548182D01*
X93011676Y-73565465D01*
X93046919Y-73567499D01*
X93101120Y-73566099D01*
X93117833Y-73557974D01*
X93123898Y-73549263D01*
X93163709Y-73532893D01*
X93223306Y-73516903D01*
X93283471Y-73506156D01*
X93324988Y-73505520D01*
X93332055Y-73505443D01*
X93330464Y-73484510D01*
X93328579Y-73479694D01*
X93334089Y-73435201D01*
X93360048Y-73372573D01*
X93370611Y-73349940D01*
X93385602Y-73300633D01*
X93396735Y-73232123D01*
X93404855Y-73136116D01*
X93410805Y-73004324D01*
X93415429Y-72828453D01*
X93416926Y-72729887D01*
X93417108Y-72556576D01*
X93414528Y-72390608D01*
X93409474Y-72246980D01*
X93402234Y-72140691D01*
X93398075Y-72095707D01*
X93391395Y-71996566D01*
X93389923Y-71922641D01*
X93394088Y-71887333D01*
X93399140Y-71882397D01*
X93443492Y-71865863D01*
X93513227Y-71854992D01*
X93539484Y-71852281D01*
X93597899Y-71836215D01*
X93613141Y-71807216D01*
X93612688Y-71803060D01*
X93607791Y-71751980D01*
X93600178Y-71667381D01*
X93591291Y-71565247D01*
X93573929Y-71362556D01*
X93464851Y-71313739D01*
X93438929Y-71301301D01*
X93362145Y-71255713D01*
X93308407Y-71211531D01*
X93288694Y-71188138D01*
X93285590Y-71175960D01*
X93315411Y-71186583D01*
X93384855Y-71220822D01*
X93500528Y-71264554D01*
X93648885Y-71276395D01*
X93802181Y-71238588D01*
X93964588Y-71150627D01*
X93986068Y-71136507D01*
X94048578Y-71101916D01*
X94072229Y-71102071D01*
X94056258Y-71135862D01*
X93999907Y-71202179D01*
X93928565Y-71260405D01*
X93855577Y-71283505D01*
X93847177Y-71283554D01*
X93807659Y-71289915D01*
X93794673Y-71317594D01*
X93799606Y-71381701D01*
X93799713Y-71382554D01*
X93821909Y-71596683D01*
X93839187Y-71841109D01*
X93851470Y-72105535D01*
X93858679Y-72379663D01*
X93860736Y-72653198D01*
X93857564Y-72915842D01*
X93849085Y-73157298D01*
X93835221Y-73367271D01*
X93815894Y-73535464D01*
X93795868Y-73664975D01*
X93777230Y-73781070D01*
X93761666Y-73869630D01*
X93746683Y-73943802D01*
X93729788Y-74016730D01*
X93708484Y-74101560D01*
X93677929Y-74205244D01*
X93633698Y-74328687D01*
X93589550Y-74429809D01*
X93559408Y-74483924D01*
X93554516Y-74491237D01*
X93504139Y-74566538D01*
X93501546Y-74569794D01*
X93480689Y-74595979D01*
X93464282Y-74616578D01*
X93445081Y-74640685D01*
X93390251Y-74697462D01*
X93347663Y-74727963D01*
X93325335Y-74723287D01*
X93314966Y-74712112D01*
X93272456Y-74710380D01*
X93191117Y-74730487D01*
X93094421Y-74750069D01*
X92918831Y-74745342D01*
X92732780Y-74694015D01*
X92710160Y-74685655D01*
X92649684Y-74669413D01*
X92617860Y-74670525D01*
X92615826Y-74673657D01*
X92633540Y-74694135D01*
X92692059Y-74719245D01*
X92782270Y-74745707D01*
X92895059Y-74770243D01*
X93012358Y-74783262D01*
X93148871Y-74768267D01*
X93178113Y-74761142D01*
X93248453Y-74746023D01*
X93290358Y-74740000D01*
X93301505Y-74741724D01*
X93305775Y-74760679D01*
X93278397Y-74790904D01*
X93228712Y-74820238D01*
X93213993Y-74824627D01*
X93146797Y-74833158D01*
X93049179Y-74837308D01*
X92936804Y-74836221D01*
X92820676Y-74829909D01*
X92719850Y-74816102D01*
X92632137Y-74790921D01*
X92536697Y-74749867D01*
X92529978Y-74746657D01*
X92452398Y-74706649D01*
X92400964Y-74674702D01*
X92386507Y-74657480D01*
X92385573Y-74634622D01*
X92367026Y-74576378D01*
X92334172Y-74497798D01*
X92324559Y-74476417D01*
X92310421Y-74440830D01*
X92381168Y-74440830D01*
X92390826Y-74484096D01*
X92421216Y-74542455D01*
X92462113Y-74598414D01*
X92503292Y-74634481D01*
X92543118Y-74654142D01*
X92564417Y-74656926D01*
X92547119Y-74629859D01*
X92490777Y-74570667D01*
X92461152Y-74539313D01*
X92417265Y-74484112D01*
X92400000Y-74448467D01*
X92398771Y-74437283D01*
X92384977Y-74432068D01*
X92381168Y-74440830D01*
X92310421Y-74440830D01*
X92302127Y-74419954D01*
X92292761Y-74386495D01*
X92347629Y-74386495D01*
X92360722Y-74399587D01*
X92373815Y-74386495D01*
X92360722Y-74373402D01*
X92347629Y-74386495D01*
X92292761Y-74386495D01*
X92285890Y-74361947D01*
X92274488Y-74292230D01*
X92266561Y-74200640D01*
X92260749Y-74077012D01*
X92255693Y-73911181D01*
X92252410Y-73796520D01*
X92243319Y-73548667D01*
X92231813Y-73342408D01*
X92216715Y-73170089D01*
X92196846Y-73024054D01*
X92171027Y-72896651D01*
X92138080Y-72780226D01*
X92096827Y-72667124D01*
X92046089Y-72549692D01*
X92013414Y-72478267D01*
X91957898Y-72357006D01*
X91919621Y-72273570D01*
X91895511Y-72221267D01*
X91882494Y-72193404D01*
X91892720Y-72173381D01*
X91946153Y-72146585D01*
X92047144Y-72111954D01*
X92056961Y-72108966D01*
X92076499Y-72106046D01*
X92095001Y-72113613D01*
X92116363Y-72137812D01*
X92144485Y-72184789D01*
X92183264Y-72260690D01*
X92236599Y-72371662D01*
X92308387Y-72523849D01*
X92329635Y-72569255D01*
X92376621Y-72675242D01*
X92407856Y-72762147D01*
X92427920Y-72847816D01*
X92441395Y-72950097D01*
X92452858Y-73086839D01*
X92461076Y-73220168D01*
X92468785Y-73398220D01*
X92474112Y-73583748D01*
X92476224Y-73753037D01*
X92476314Y-73780295D01*
X92478239Y-73920436D01*
X92482236Y-74047182D01*
X92487788Y-74147542D01*
X92494377Y-74208524D01*
X92499854Y-74241818D01*
X92499467Y-74282609D01*
X92480837Y-74283162D01*
X92477129Y-74281351D01*
X92469763Y-74294448D01*
X92480563Y-74336155D01*
X92501412Y-74386495D01*
X92503603Y-74391785D01*
X92532959Y-74446655D01*
X92562707Y-74486079D01*
X92611793Y-74515731D01*
X92698083Y-74548993D01*
X92802117Y-74579004D01*
X92906237Y-74600713D01*
X92992786Y-74609072D01*
X93010347Y-74609519D01*
X93083967Y-74620569D01*
X93131801Y-74641804D01*
X93150864Y-74656926D01*
X93154419Y-74659746D01*
X93151407Y-74649896D01*
X93368866Y-74649896D01*
X93369121Y-74653556D01*
X93384279Y-74659323D01*
X93410645Y-74631212D01*
X93417016Y-74616578D01*
X93399098Y-74619664D01*
X93395499Y-74622165D01*
X93387465Y-74627748D01*
X93368866Y-74649896D01*
X93151407Y-74649896D01*
X93149274Y-74642919D01*
X93153467Y-74622165D01*
X93185567Y-74622165D01*
X93198660Y-74635258D01*
X93211753Y-74622165D01*
X93198660Y-74609072D01*
X93185567Y-74622165D01*
X93153467Y-74622165D01*
X93155980Y-74609730D01*
X93173640Y-74595979D01*
X93237938Y-74595979D01*
X93251031Y-74609072D01*
X93264124Y-74595979D01*
X93251031Y-74582886D01*
X93237938Y-74595979D01*
X93173640Y-74595979D01*
X93204350Y-74572067D01*
X93208203Y-74569794D01*
X93290309Y-74569794D01*
X93303402Y-74582886D01*
X93316495Y-74569794D01*
X93303402Y-74556701D01*
X93290309Y-74569794D01*
X93208203Y-74569794D01*
X93236130Y-74553320D01*
X93309080Y-74491237D01*
X93368866Y-74491237D01*
X93381959Y-74504330D01*
X93395052Y-74491237D01*
X93381959Y-74478144D01*
X93368866Y-74491237D01*
X93309080Y-74491237D01*
X93320932Y-74481151D01*
X93391929Y-74379916D01*
X93453768Y-74241847D01*
X93511095Y-74059175D01*
X93530693Y-73985392D01*
X93554302Y-73883775D01*
X93570337Y-73787803D01*
X93581769Y-73678144D01*
X93591569Y-73535464D01*
X93604972Y-73312886D01*
X93562203Y-73427448D01*
X93537815Y-73484063D01*
X93448463Y-73610882D01*
X93324231Y-73699089D01*
X93163664Y-73749860D01*
X93147903Y-73752711D01*
X93016134Y-73775870D01*
X92924142Y-73788863D01*
X92861278Y-73791150D01*
X92816894Y-73782189D01*
X92780342Y-73761438D01*
X92740972Y-73728355D01*
X92698612Y-73686706D01*
X92614026Y-73569384D01*
X92568934Y-73447800D01*
X92559403Y-73401282D01*
X92541120Y-73318118D01*
X92519005Y-73221237D01*
X92503553Y-73140655D01*
X92498090Y-73103402D01*
X92609485Y-73103402D01*
X92622578Y-73116495D01*
X92635670Y-73103402D01*
X92622578Y-73090309D01*
X92609485Y-73103402D01*
X92498090Y-73103402D01*
X92485009Y-73014200D01*
X92467942Y-72869192D01*
X92454690Y-72723711D01*
X92442023Y-72583721D01*
X92423912Y-72423563D01*
X92402167Y-72257028D01*
X92378296Y-72093858D01*
X92353804Y-71943800D01*
X92330201Y-71816598D01*
X92308992Y-71721997D01*
X92291685Y-71669742D01*
X92271596Y-71644666D01*
X92226367Y-71623917D01*
X92219549Y-71623493D01*
X92167151Y-71607428D01*
X92105753Y-71576221D01*
X92054717Y-71541009D01*
X92033402Y-71512926D01*
X92050477Y-71509402D01*
X92093646Y-71531255D01*
X92147925Y-71555205D01*
X92254174Y-71572846D01*
X92375525Y-71569797D01*
X92492175Y-71545358D01*
X92511747Y-71538575D01*
X92606207Y-71497604D01*
X92695772Y-71447657D01*
X92765683Y-71397736D01*
X92801184Y-71356844D01*
X92810987Y-71340509D01*
X92816902Y-71364044D01*
X92812612Y-71388472D01*
X92772200Y-71446924D01*
X92698464Y-71506649D01*
X92602579Y-71557556D01*
X92549656Y-71582735D01*
X92521840Y-71610497D01*
X92528343Y-71643909D01*
X92529288Y-71645835D01*
X92545272Y-71700795D01*
X92565835Y-71806113D01*
X92590724Y-71960115D01*
X92619682Y-72161133D01*
X92652457Y-72407493D01*
X92688793Y-72697526D01*
X92719296Y-72928732D01*
X92747256Y-73103402D01*
X92753128Y-73140082D01*
G37*
%TD*%
M02*
