%TF.GenerationSoftware,KiCad,Pcbnew,9.0.7*%
%TF.CreationDate,2026-02-17T11:17:13-06:00*%
%TF.ProjectId,nfc-card,6e66632d-6361-4726-942e-6b696361645f,rev?*%
%TF.SameCoordinates,Original*%
%TF.FileFunction,Copper,L1,Top*%
%TF.FilePolarity,Positive*%
%FSLAX46Y46*%
G04 Gerber Fmt 4.6, Leading zero omitted, Abs format (unit mm)*
G04 Created by KiCad (PCBNEW 9.0.7) date 2026-02-17 11:17:13*
%MOMM*%
%LPD*%
G01*
G04 APERTURE LIST*
G04 Aperture macros list*
%AMRoundRect*
0 Rectangle with rounded corners*
0 $1 Rounding radius*
0 $2 $3 $4 $5 $6 $7 $8 $9 X,Y pos of 4 corners*
0 Add a 4 corners polygon primitive as box body*
4,1,4,$2,$3,$4,$5,$6,$7,$8,$9,$2,$3,0*
0 Add four circle primitives for the rounded corners*
1,1,$1+$1,$2,$3*
1,1,$1+$1,$4,$5*
1,1,$1+$1,$6,$7*
1,1,$1+$1,$8,$9*
0 Add four rect primitives between the rounded corners*
20,1,$1+$1,$2,$3,$4,$5,0*
20,1,$1+$1,$4,$5,$6,$7,0*
20,1,$1+$1,$6,$7,$8,$9,0*
20,1,$1+$1,$8,$9,$2,$3,0*%
G04 Aperture macros list end*
%TA.AperFunction,SMDPad,CuDef*%
%ADD10O,0.370000X1.350000*%
%TD*%
%TA.AperFunction,SMDPad,CuDef*%
%ADD11RoundRect,0.160000X0.197500X0.160000X-0.197500X0.160000X-0.197500X-0.160000X0.197500X-0.160000X0*%
%TD*%
%TA.AperFunction,SMDPad,CuDef*%
%ADD12RoundRect,0.250000X-0.325000X-0.450000X0.325000X-0.450000X0.325000X0.450000X-0.325000X0.450000X0*%
%TD*%
%TA.AperFunction,SMDPad,CuDef*%
%ADD13RoundRect,0.155000X-0.212500X-0.155000X0.212500X-0.155000X0.212500X0.155000X-0.212500X0.155000X0*%
%TD*%
%TA.AperFunction,ViaPad*%
%ADD14C,0.600000*%
%TD*%
%TA.AperFunction,Conductor*%
%ADD15C,0.200000*%
%TD*%
G04 APERTURE END LIST*
D10*
%TO.P,U1,1,LA*%
%TO.N,Net-(U1-LA)*%
X107712500Y-59870000D03*
%TO.P,U1,2,VSS*%
%TO.N,Net-(D1-K)*%
X108372500Y-59870000D03*
%TO.P,U1,3,SCL*%
%TO.N,unconnected-(U1-SCL-Pad3)*%
X109022500Y-59870000D03*
%TO.P,U1,4,FD*%
%TO.N,unconnected-(U1-FD-Pad4)*%
X109672500Y-59870000D03*
%TO.P,U1,8,LB*%
%TO.N,Net-(U1-LA)*%
X107712500Y-55430000D03*
%TO.P,U1,7,VOUT*%
%TO.N,Net-(U1-VCC)*%
X108372500Y-55430000D03*
%TO.P,U1,6,VCC*%
X109022500Y-55430000D03*
%TO.P,U1,5,SDA*%
%TO.N,unconnected-(U1-SDA-Pad5)*%
X109672500Y-55430000D03*
%TD*%
D11*
%TO.P,R1,1*%
%TO.N,Net-(D1-A)*%
X112550000Y-56500000D03*
%TO.P,R1,2*%
%TO.N,Net-(U1-VCC)*%
X111355000Y-56500000D03*
%TD*%
D12*
%TO.P,D1,1,K*%
%TO.N,Net-(D1-K)*%
X110975000Y-54000000D03*
%TO.P,D1,2,A*%
%TO.N,Net-(D1-A)*%
X113025000Y-54000000D03*
%TD*%
D13*
%TO.P,C1,1*%
%TO.N,Net-(D1-K)*%
X111432500Y-59000000D03*
%TO.P,C1,2*%
%TO.N,Net-(U1-VCC)*%
X112567500Y-59000000D03*
%TD*%
D14*
%TO.N,Net-(D1-K)*%
X110593753Y-55900000D03*
X110794668Y-58002042D03*
%TO.N,Net-(U1-LA)*%
X93500000Y-57000000D03*
X103500000Y-57750000D03*
%TD*%
D15*
%TO.N,Net-(U1-LA)*%
X96499989Y-75786606D02*
G75*
G02*
X96349103Y-76150885I-515189J6D01*
G01*
X97749999Y-58749999D02*
G75*
G02*
X98500016Y-60560660I-1810699J-1810701D01*
G01*
X98750000Y-58249999D02*
G75*
G02*
X99500017Y-60060660I-1810700J-1810701D01*
G01*
X106826604Y-55429999D02*
G75*
G03*
X105534998Y-55964998I-4J-1826601D01*
G01*
X97792891Y-79499999D02*
G75*
G03*
X99000001Y-79000001I9J1707099D01*
G01*
X79676775Y-36823224D02*
G75*
G03*
X79499984Y-37250000I426725J-426776D01*
G01*
X97499987Y-76646445D02*
G75*
G02*
X97249977Y-77249977I-853587J45D01*
G01*
X79823228Y-77323214D02*
G75*
G03*
X80250003Y-77499976I426772J426814D01*
G01*
X82353548Y-38499979D02*
G75*
G03*
X81749973Y-38749966I-48J-853521D01*
G01*
X81353552Y-37500000D02*
G75*
G03*
X80750014Y-37750014I48J-853600D01*
G01*
X100000000Y-33999999D02*
G75*
G03*
X98792891Y-33500002I-1207100J-1207101D01*
G01*
X104880189Y-59130189D02*
G75*
G03*
X106666250Y-59870027I1786111J1786089D01*
G01*
X80695083Y-37804917D02*
G75*
G03*
X80499976Y-38275887I470917J-470983D01*
G01*
X78000000Y-78999999D02*
G75*
G03*
X79207106Y-79499996I1207100J1207099D01*
G01*
X78999999Y-35999999D02*
G75*
G03*
X78500001Y-37207106I1207101J-1207101D01*
G01*
X99000000Y-34999999D02*
G75*
G03*
X97792891Y-34500002I-1207100J-1207101D01*
G01*
X98249987Y-78249985D02*
G75*
G02*
X97646444Y-78500000I-603587J603585D01*
G01*
X99000000Y-34999999D02*
G75*
G02*
X99499998Y-36207106I-1207100J-1207101D01*
G01*
X77250003Y-79749991D02*
G75*
G03*
X79060663Y-80500008I1810697J1810691D01*
G01*
X99499999Y-77792891D02*
G75*
G02*
X99000001Y-79000001I-1707099J-9D01*
G01*
X95749989Y-37750004D02*
G75*
G02*
X96000009Y-38353557I-603589J-603596D01*
G01*
X76500000Y-77939342D02*
G75*
G03*
X77250029Y-79749965I2560600J42D01*
G01*
X80207108Y-35500000D02*
G75*
G03*
X78999998Y-35999998I-8J-1707100D01*
G01*
X100500000Y-55646449D02*
G75*
G03*
X100750031Y-56249962I853500J49D01*
G01*
X100750004Y-56249989D02*
G75*
G03*
X101353557Y-56500009I603596J603589D01*
G01*
X95000015Y-57939338D02*
G75*
G03*
X95750022Y-59749977I2560685J38D01*
G01*
X80750000Y-76249999D02*
G75*
G03*
X81353553Y-76500019I603600J603599D01*
G01*
X94749992Y-38749996D02*
G75*
G02*
X95000016Y-39353560I-603592J-603604D01*
G01*
X81749993Y-75249994D02*
G75*
G03*
X82353562Y-75500020I603607J603594D01*
G01*
X78353552Y-34500000D02*
G75*
G03*
X77750014Y-34750014I48J-853600D01*
G01*
X100000001Y-57499999D02*
G75*
G02*
X100499999Y-58707106I-1207101J-1207101D01*
G01*
X99500000Y-56292891D02*
G75*
G03*
X99999998Y-57500002I1707100J-9D01*
G01*
X100000000Y-33999999D02*
G75*
G02*
X100499998Y-35207106I-1207100J-1207101D01*
G01*
X97499999Y-36000000D02*
G75*
G03*
X96292892Y-35500004I-1207099J-1207100D01*
G01*
X95750000Y-59749999D02*
G75*
G02*
X96500017Y-61560660I-1810700J-1810701D01*
G01*
X77750000Y-34750000D02*
G75*
G03*
X77499981Y-35353552I603600J-603600D01*
G01*
X96749989Y-36750004D02*
G75*
G02*
X97000009Y-37353557I-603589J-603596D01*
G01*
X81749996Y-38749989D02*
G75*
G03*
X81499970Y-39353557I603604J-603611D01*
G01*
X80500000Y-75646445D02*
G75*
G03*
X80750034Y-76249965I853500J45D01*
G01*
X78749989Y-78250003D02*
G75*
G03*
X79353557Y-78500029I603611J603603D01*
G01*
X97499999Y-36000000D02*
G75*
G02*
X97999996Y-37207106I-1207099J-1207100D01*
G01*
X79500000Y-76646448D02*
G75*
G03*
X79749982Y-77250013I853500J-52D01*
G01*
X96999998Y-56939338D02*
G75*
G03*
X97750009Y-58749989I2560702J38D01*
G01*
X95249995Y-75249989D02*
G75*
G02*
X94646441Y-75500008I-603595J603589D01*
G01*
X96000008Y-57439335D02*
G75*
G03*
X96750019Y-59249985I2560692J35D01*
G01*
X95500000Y-74749999D02*
G75*
G02*
X95323213Y-75176765I-603500J-1D01*
G01*
X95749989Y-37750004D02*
G75*
G03*
X95146449Y-37499962I-603589J-603496D01*
G01*
X78207106Y-33500000D02*
G75*
G03*
X76999998Y-33999998I-6J-1707100D01*
G01*
X94999991Y-60500003D02*
G75*
G02*
X95499989Y-61707110I-1207091J-1207097D01*
G01*
X94676774Y-38676771D02*
G75*
G03*
X94249999Y-38499982I-426774J-426729D01*
G01*
X77000000Y-34000000D02*
G75*
G03*
X76500003Y-35207106I1207100J-1207100D01*
G01*
X97939341Y-80499999D02*
G75*
G03*
X99749964Y-79749969I-41J2560599D01*
G01*
X96739268Y-36739282D02*
G75*
G03*
X96161611Y-36499989I-577668J-577618D01*
G01*
X93500000Y-58646445D02*
G75*
G03*
X93750034Y-59249965I853500J45D01*
G01*
X98499992Y-77749996D02*
G75*
G02*
X98323226Y-78176782I-603592J-4D01*
G01*
X78499978Y-77646450D02*
G75*
G03*
X78749965Y-78250027I853522J-50D01*
G01*
X77500000Y-77792892D02*
G75*
G03*
X77999998Y-79000001I1707100J-8D01*
G01*
X79750000Y-35500000D02*
X79750000Y-35500000D01*
X80353554Y-36499999D02*
G75*
G03*
X79750034Y-36750034I46J-853501D01*
G01*
X81499978Y-74646453D02*
G75*
G03*
X81749962Y-75250025I853522J-47D01*
G01*
X98000016Y-56439338D02*
G75*
G03*
X98750022Y-58249977I2560684J38D01*
G01*
X95646449Y-76499999D02*
G75*
G03*
X96249962Y-76249968I-49J853499D01*
G01*
X105534999Y-55964999D02*
G75*
G02*
X104243394Y-56499997I-1291599J1291599D01*
G01*
X97249985Y-77249985D02*
G75*
G02*
X96646445Y-77499998I-603585J603585D01*
G01*
X96750008Y-59249996D02*
G75*
G02*
X97500025Y-61060656I-1810708J-1810704D01*
G01*
X100499984Y-77939334D02*
G75*
G02*
X99749975Y-79749980I-2560684J34D01*
G01*
X95499999Y-73750000D02*
X95500000Y-74250000D01*
X93750000Y-59249999D02*
X94250000Y-59750000D01*
X96146446Y-36500000D02*
X95500000Y-36500000D01*
X79500000Y-37250000D02*
X79500000Y-37750000D01*
X96499999Y-73500000D02*
X96500000Y-74500000D01*
X80500000Y-40250000D02*
X80500000Y-41750000D01*
X81249999Y-77499999D02*
X80749997Y-77500000D01*
X96000000Y-53022523D02*
X96000000Y-54067569D01*
X80500000Y-38353552D02*
X80500000Y-38749999D01*
X97499999Y-69500000D02*
X97500000Y-72500000D01*
X96500000Y-75353554D02*
X96500000Y-75500000D01*
X98500000Y-77250000D02*
X98499992Y-77749996D01*
X97500000Y-75609838D02*
X97499990Y-76536607D01*
X96500000Y-74786611D02*
X96500000Y-75213388D01*
X100500000Y-61656856D02*
X100499998Y-64606605D01*
X80500000Y-39224111D02*
X80500000Y-39775888D01*
X95999995Y-45470568D02*
X96000000Y-50156855D01*
X94250000Y-59750000D02*
X94749996Y-60250003D01*
X94838388Y-36500000D02*
X94161611Y-36500000D01*
X97500000Y-73536611D02*
X97500000Y-74463388D01*
X93250000Y-38499999D02*
X93750000Y-38500000D01*
X95500000Y-36500000D02*
X94853554Y-36500000D01*
X80250003Y-77499993D02*
X80749997Y-77500000D01*
X96500000Y-75500000D02*
X96499996Y-75646445D01*
X95500000Y-74250000D02*
X95500000Y-74749999D01*
X103292893Y-56500000D02*
X102323223Y-56500000D01*
X79500000Y-37750000D02*
X79500000Y-38250000D01*
X80500000Y-38749999D02*
X80500000Y-39146446D01*
X98499999Y-76750000D02*
X98500000Y-77250000D01*
X96000000Y-51977477D02*
X96000000Y-53022523D01*
X91500000Y-36499999D02*
X93500000Y-36500000D01*
X97500000Y-74463388D02*
X97500000Y-75390165D01*
X96000000Y-54961865D02*
X96000008Y-57320616D01*
X94249999Y-38499992D02*
X93750000Y-38500000D01*
X101419198Y-56499990D02*
X102257578Y-56500000D01*
X100500001Y-59090990D02*
X100500000Y-61272972D01*
%TO.N,Net-(D1-A)*%
X112787470Y-54237572D02*
G75*
G03*
X112550002Y-54810802I573130J-573228D01*
G01*
X113024963Y-54335946D02*
G75*
G03*
X112787446Y-54237548I-139163J-54D01*
G01*
%TO.N,Net-(U1-VCC)*%
X109120003Y-56402498D02*
G75*
G03*
X109355384Y-56500002I235397J235398D01*
G01*
X111354990Y-57143753D02*
G75*
G03*
X111810174Y-58242717I1554110J-47D01*
G01*
X109022505Y-56167112D02*
G75*
G03*
X109120008Y-56402493I332895J12D01*
G01*
%TO.N,Net-(D1-K)*%
X108509251Y-60709248D02*
G75*
G03*
X108839392Y-60846000I330149J330148D01*
G01*
X108372502Y-60379105D02*
G75*
G03*
X108509253Y-60709246I466898J5D01*
G01*
X110307906Y-60411907D02*
G75*
G02*
X109259903Y-60846005I-1048006J1048007D01*
G01*
X111432508Y-59071830D02*
G75*
G02*
X111280174Y-59439711I-520208J-70D01*
G01*
X110975009Y-55249171D02*
G75*
G02*
X110784393Y-55709389I-650809J-29D01*
G01*
X111355959Y-58563344D02*
G75*
G02*
X111432487Y-58748112I-184759J-184756D01*
G01*
X111432496Y-58748112D02*
X111432504Y-58964579D01*
%TO.N,Net-(U1-LA)*%
X96749989Y-36750004D02*
X96739268Y-36739282D01*
X80750000Y-37750000D02*
X80695083Y-37804917D01*
X96349098Y-76150880D02*
X96249989Y-76249995D01*
X106666250Y-59870000D02*
X107712500Y-59870000D01*
X104880189Y-59130189D02*
X103500000Y-57750000D01*
X97500000Y-75609838D02*
X97500000Y-75390165D01*
X94161611Y-36500000D02*
X93500000Y-36500000D01*
X100500000Y-61656856D02*
X100500000Y-61272972D01*
X96000000Y-50156855D02*
X96000000Y-51977477D01*
X97500000Y-72500000D02*
X97500000Y-73536611D01*
X96500000Y-74500000D02*
X96500000Y-74786611D01*
X80500000Y-40250000D02*
X80500000Y-39775888D01*
X96000000Y-54067569D02*
X96000000Y-54961865D01*
X102323223Y-56500000D02*
X102257578Y-56500000D01*
%TO.N,Net-(D1-K)*%
X111432508Y-59071830D02*
X111432504Y-58964579D01*
%TO.N,Net-(U1-LA)*%
X103292893Y-56500000D02*
X104243394Y-56500000D01*
X106826604Y-55429999D02*
X107712500Y-55430000D01*
X101353557Y-56499988D02*
X101419198Y-56499990D01*
X79060663Y-80499983D02*
X97939341Y-80499999D01*
X98792891Y-33500000D02*
X78207106Y-33500000D01*
X97792891Y-34500000D02*
X78353552Y-34500000D01*
X100500000Y-55646449D02*
X100500001Y-35207106D01*
X77500000Y-35353552D02*
X77500000Y-77792892D01*
X76500000Y-77939342D02*
X76500000Y-35207106D01*
X99499983Y-60060660D02*
X99499999Y-77792891D01*
X100499998Y-64606605D02*
X100499984Y-77939334D01*
X100500001Y-58707106D02*
X100500001Y-59090990D01*
X99500001Y-36207106D02*
X99500000Y-56292891D01*
X97792891Y-79499999D02*
X79207106Y-79499999D01*
X97999999Y-37207106D02*
X98000016Y-56439338D01*
X80207108Y-35500000D02*
X96292892Y-35500000D01*
%TO.N,Net-(D1-K)*%
X110593753Y-55900000D02*
X110784382Y-55709378D01*
X110794668Y-58002042D02*
X111355959Y-58563344D01*
X110975009Y-55249171D02*
X110975000Y-54000000D01*
%TO.N,Net-(U1-VCC)*%
X109022500Y-55430000D02*
X108372500Y-55430000D01*
X111355000Y-56500000D02*
X109355384Y-56499999D01*
X109022500Y-55430000D02*
X109022505Y-56167112D01*
X111355000Y-56500000D02*
X111354990Y-57143753D01*
X111810187Y-58242704D02*
X112567500Y-59000000D01*
%TO.N,Net-(D1-A)*%
X112550000Y-54810802D02*
X112550000Y-56500000D01*
X113024963Y-54335946D02*
X113025000Y-54830000D01*
%TO.N,Net-(D1-K)*%
X110307906Y-60411907D02*
X111280147Y-59439684D01*
X108839392Y-60845999D02*
X109259903Y-60845999D01*
X108372502Y-60379105D02*
X108372500Y-59870000D01*
%TO.N,Net-(U1-LA)*%
X81249999Y-77499999D02*
X96646445Y-77499980D01*
X93500000Y-57000000D02*
X93500000Y-58646445D01*
X96499989Y-75786606D02*
X96499996Y-75646445D01*
X79500000Y-76646448D02*
X79500000Y-38250000D01*
X81353553Y-76499999D02*
X95646449Y-76499999D01*
X78499997Y-37207106D02*
X78499978Y-77646450D01*
X94838388Y-36500000D02*
X94853554Y-36500000D01*
X96999980Y-37353557D02*
X96999998Y-56939338D01*
X95000015Y-57939338D02*
X94999980Y-39353560D01*
X95499999Y-73750000D02*
X95499983Y-61707110D01*
X79823228Y-77323214D02*
X79750003Y-77249992D01*
X82353562Y-75499980D02*
X94646441Y-75499980D01*
X96146446Y-36500000D02*
X96161611Y-36500000D01*
X97646444Y-78499980D02*
X79353557Y-78499998D01*
X97499999Y-69500000D02*
X97499999Y-61060656D01*
X95999980Y-38353557D02*
X95999995Y-45470568D01*
X80500000Y-41750000D02*
X80500000Y-75646445D01*
X95249995Y-75249989D02*
X95323218Y-75176770D01*
X91500000Y-36499999D02*
X80353554Y-36499999D01*
X98249987Y-78249985D02*
X98323209Y-78176765D01*
X96500000Y-75353554D02*
X96500000Y-75213388D01*
X97499987Y-76646445D02*
X97499990Y-76536607D01*
X96000008Y-57439335D02*
X96000008Y-57320616D01*
X80500000Y-38275887D02*
X80500000Y-38353552D01*
X94749992Y-38749996D02*
X94676774Y-38676771D01*
X79750000Y-35500000D02*
X80000000Y-35500000D01*
X94749996Y-60250003D02*
X94999991Y-60500003D01*
X81353552Y-37500000D02*
X95146449Y-37500000D01*
X80500000Y-39224111D02*
X80500000Y-39146446D01*
X82353548Y-38499979D02*
X93250000Y-38499999D01*
X96499999Y-73500000D02*
X96499984Y-61560660D01*
X98499999Y-60560660D02*
X98499999Y-76750000D01*
X79676775Y-36823224D02*
X79750000Y-36750000D01*
X81500000Y-39353557D02*
X81499978Y-74646453D01*
%TD*%
M02*
