%TF.GenerationSoftware,KiCad,Pcbnew,9.0.7*%
%TF.CreationDate,2026-02-17T11:17:22-06:00*%
%TF.ProjectId,nfc-card,6e66632d-6361-4726-942e-6b696361645f,rev?*%
%TF.SameCoordinates,Original*%
%TF.FileFunction,Legend,Top*%
%TF.FilePolarity,Positive*%
%FSLAX46Y46*%
G04 Gerber Fmt 4.6, Leading zero omitted, Abs format (unit mm)*
G04 Created by KiCad (PCBNEW 9.0.7) date 2026-02-17 11:17:22*
%MOMM*%
%LPD*%
G01*
G04 APERTURE LIST*
%ADD10C,0.200000*%
%ADD11C,0.100000*%
%ADD12C,0.625000*%
%ADD13C,0.150000*%
%ADD14C,0.300000*%
%ADD15C,0.120000*%
%ADD16C,0.000000*%
G04 APERTURE END LIST*
D10*
X76000000Y-33000000D02*
X101000000Y-33000000D01*
X101000000Y-81000000D01*
X76000000Y-81000000D01*
X76000000Y-33000000D01*
D11*
X115856265Y-39186704D02*
X116332455Y-39186704D01*
X115761027Y-39472419D02*
X116094360Y-38472419D01*
X116094360Y-38472419D02*
X116427693Y-39472419D01*
X116761027Y-38805752D02*
X116761027Y-39805752D01*
X116761027Y-38853371D02*
X116856265Y-38805752D01*
X116856265Y-38805752D02*
X117046741Y-38805752D01*
X117046741Y-38805752D02*
X117141979Y-38853371D01*
X117141979Y-38853371D02*
X117189598Y-38900990D01*
X117189598Y-38900990D02*
X117237217Y-38996228D01*
X117237217Y-38996228D02*
X117237217Y-39281942D01*
X117237217Y-39281942D02*
X117189598Y-39377180D01*
X117189598Y-39377180D02*
X117141979Y-39424800D01*
X117141979Y-39424800D02*
X117046741Y-39472419D01*
X117046741Y-39472419D02*
X116856265Y-39472419D01*
X116856265Y-39472419D02*
X116761027Y-39424800D01*
X117665789Y-38805752D02*
X117665789Y-39805752D01*
X117665789Y-38853371D02*
X117761027Y-38805752D01*
X117761027Y-38805752D02*
X117951503Y-38805752D01*
X117951503Y-38805752D02*
X118046741Y-38853371D01*
X118046741Y-38853371D02*
X118094360Y-38900990D01*
X118094360Y-38900990D02*
X118141979Y-38996228D01*
X118141979Y-38996228D02*
X118141979Y-39281942D01*
X118141979Y-39281942D02*
X118094360Y-39377180D01*
X118094360Y-39377180D02*
X118046741Y-39424800D01*
X118046741Y-39424800D02*
X117951503Y-39472419D01*
X117951503Y-39472419D02*
X117761027Y-39472419D01*
X117761027Y-39472419D02*
X117665789Y-39424800D01*
X119761027Y-39424800D02*
X119665789Y-39472419D01*
X119665789Y-39472419D02*
X119475313Y-39472419D01*
X119475313Y-39472419D02*
X119380075Y-39424800D01*
X119380075Y-39424800D02*
X119332456Y-39377180D01*
X119332456Y-39377180D02*
X119284837Y-39281942D01*
X119284837Y-39281942D02*
X119284837Y-38996228D01*
X119284837Y-38996228D02*
X119332456Y-38900990D01*
X119332456Y-38900990D02*
X119380075Y-38853371D01*
X119380075Y-38853371D02*
X119475313Y-38805752D01*
X119475313Y-38805752D02*
X119665789Y-38805752D01*
X119665789Y-38805752D02*
X119761027Y-38853371D01*
X120618170Y-39472419D02*
X120618170Y-38948609D01*
X120618170Y-38948609D02*
X120570551Y-38853371D01*
X120570551Y-38853371D02*
X120475313Y-38805752D01*
X120475313Y-38805752D02*
X120284837Y-38805752D01*
X120284837Y-38805752D02*
X120189599Y-38853371D01*
X120618170Y-39424800D02*
X120522932Y-39472419D01*
X120522932Y-39472419D02*
X120284837Y-39472419D01*
X120284837Y-39472419D02*
X120189599Y-39424800D01*
X120189599Y-39424800D02*
X120141980Y-39329561D01*
X120141980Y-39329561D02*
X120141980Y-39234323D01*
X120141980Y-39234323D02*
X120189599Y-39139085D01*
X120189599Y-39139085D02*
X120284837Y-39091466D01*
X120284837Y-39091466D02*
X120522932Y-39091466D01*
X120522932Y-39091466D02*
X120618170Y-39043847D01*
X121094361Y-39472419D02*
X121094361Y-38805752D01*
X121094361Y-38996228D02*
X121141980Y-38900990D01*
X121141980Y-38900990D02*
X121189599Y-38853371D01*
X121189599Y-38853371D02*
X121284837Y-38805752D01*
X121284837Y-38805752D02*
X121380075Y-38805752D01*
X122141980Y-39472419D02*
X122141980Y-38472419D01*
X122141980Y-39424800D02*
X122046742Y-39472419D01*
X122046742Y-39472419D02*
X121856266Y-39472419D01*
X121856266Y-39472419D02*
X121761028Y-39424800D01*
X121761028Y-39424800D02*
X121713409Y-39377180D01*
X121713409Y-39377180D02*
X121665790Y-39281942D01*
X121665790Y-39281942D02*
X121665790Y-38996228D01*
X121665790Y-38996228D02*
X121713409Y-38900990D01*
X121713409Y-38900990D02*
X121761028Y-38853371D01*
X121761028Y-38853371D02*
X121856266Y-38805752D01*
X121856266Y-38805752D02*
X122046742Y-38805752D01*
X122046742Y-38805752D02*
X122141980Y-38853371D01*
G36*
X105101064Y-34949863D02*
G01*
X105045132Y-34949863D01*
X105022460Y-34981260D01*
X104992528Y-35008349D01*
X104909280Y-35049923D01*
X104772217Y-35079844D01*
X104535854Y-35096464D01*
X104389951Y-35098241D01*
X104115544Y-35098241D01*
X103902960Y-35094068D01*
X103738084Y-35080486D01*
X103649011Y-35064774D01*
X103578030Y-35043286D01*
X103532249Y-35021147D01*
X103496175Y-34994541D01*
X103460362Y-34949863D01*
X103404309Y-34949863D01*
X103227965Y-35891420D01*
X103283897Y-35891420D01*
X103317253Y-35759279D01*
X103355137Y-35643076D01*
X103393188Y-35551649D01*
X103435285Y-35471643D01*
X103478000Y-35407223D01*
X103524493Y-35351486D01*
X103572915Y-35305580D01*
X103625107Y-35266753D01*
X103742510Y-35208035D01*
X103886245Y-35170824D01*
X104081960Y-35154295D01*
X104081960Y-36620118D01*
X104077039Y-36745991D01*
X104058224Y-36842316D01*
X104040303Y-36883031D01*
X104015707Y-36916836D01*
X103952641Y-36961561D01*
X103853532Y-36990533D01*
X103715108Y-37004068D01*
X103715108Y-37060000D01*
X104809926Y-37060000D01*
X104809926Y-37004068D01*
X104701821Y-36995156D01*
X104617122Y-36977987D01*
X104569378Y-36959768D01*
X104531181Y-36935936D01*
X104504741Y-36909956D01*
X104484188Y-36878821D01*
X104457290Y-36795616D01*
X104446166Y-36656944D01*
X104445882Y-36620118D01*
X104445882Y-35154295D01*
X104559168Y-35162246D01*
X104662966Y-35179072D01*
X104740185Y-35200100D01*
X104811676Y-35228560D01*
X104871027Y-35260967D01*
X104926097Y-35300452D01*
X104975016Y-35345441D01*
X105020271Y-35397882D01*
X105101192Y-35528725D01*
X105172011Y-35705898D01*
X105221475Y-35891420D01*
X105277529Y-35891420D01*
X105101064Y-34949863D01*
G37*
G36*
X106877930Y-36724776D02*
G01*
X106877930Y-36017937D01*
X106874041Y-35940833D01*
X106862446Y-35869897D01*
X106844616Y-35809107D01*
X106820164Y-35754298D01*
X106790962Y-35708104D01*
X106755972Y-35667730D01*
X106716578Y-35634334D01*
X106671883Y-35606817D01*
X106566774Y-35570192D01*
X106455146Y-35559371D01*
X106343092Y-35574333D01*
X106230047Y-35619965D01*
X106119768Y-35697346D01*
X106019571Y-35805095D01*
X105976220Y-35868738D01*
X105939411Y-35936637D01*
X105906332Y-36017937D01*
X105906332Y-35098241D01*
X105309891Y-35098241D01*
X105309891Y-35154295D01*
X105450103Y-35172163D01*
X105497045Y-35188791D01*
X105531067Y-35214197D01*
X105560619Y-35269808D01*
X105574496Y-35369773D01*
X105575872Y-35437616D01*
X105575872Y-36724776D01*
X105571059Y-36835851D01*
X105552998Y-36911104D01*
X105536411Y-36938849D01*
X105513906Y-36959995D01*
X105450627Y-36986336D01*
X105309891Y-37004068D01*
X105309891Y-37060000D01*
X106152773Y-37060000D01*
X106152773Y-37004068D01*
X106020397Y-36986863D01*
X105976912Y-36971157D01*
X105945890Y-36947363D01*
X105918948Y-36893338D01*
X105907175Y-36792095D01*
X105906332Y-36733080D01*
X105906332Y-36193914D01*
X105935533Y-36073875D01*
X105995053Y-35955331D01*
X106035285Y-35900489D01*
X106080453Y-35851926D01*
X106128764Y-35811326D01*
X106179860Y-35779001D01*
X106228836Y-35757375D01*
X106278557Y-35744649D01*
X106317882Y-35741454D01*
X106366795Y-35745323D01*
X106409801Y-35756771D01*
X106444672Y-35774110D01*
X106474424Y-35797670D01*
X106518526Y-35862392D01*
X106543424Y-35956075D01*
X106547470Y-36023555D01*
X106547470Y-36769473D01*
X106542905Y-36860542D01*
X106526584Y-36922610D01*
X106510448Y-36947499D01*
X106488442Y-36966145D01*
X106423844Y-36989428D01*
X106301151Y-37004068D01*
X106301151Y-37060000D01*
X107143911Y-37060000D01*
X107143911Y-37004068D01*
X107002831Y-36986240D01*
X106955786Y-36969555D01*
X106921823Y-36943997D01*
X106892648Y-36888316D01*
X106879135Y-36787881D01*
X106877930Y-36724776D01*
G37*
G36*
X108004556Y-35563816D02*
G01*
X108075942Y-35575521D01*
X108143237Y-35594265D01*
X108206037Y-35619711D01*
X108264313Y-35651654D01*
X108318095Y-35690050D01*
X108366846Y-35734501D01*
X108410831Y-35785397D01*
X108449187Y-35841971D01*
X108482156Y-35905021D01*
X108508810Y-35973388D01*
X108529180Y-36048088D01*
X108542493Y-36127709D01*
X108548514Y-36213230D01*
X108546720Y-36303213D01*
X107580739Y-36303213D01*
X107588416Y-36378932D01*
X107624884Y-36538125D01*
X107683218Y-36666862D01*
X107759728Y-36766486D01*
X107852130Y-36838322D01*
X107904106Y-36864028D01*
X107959550Y-36882662D01*
X108019206Y-36894187D01*
X108081926Y-36898066D01*
X108143195Y-36894523D01*
X108251398Y-36867628D01*
X108344890Y-36814603D01*
X108386709Y-36777552D01*
X108425177Y-36732807D01*
X108460495Y-36679021D01*
X108491618Y-36616479D01*
X108519004Y-36542149D01*
X108541102Y-36457575D01*
X108580303Y-36468810D01*
X108560603Y-36570919D01*
X108536708Y-36652871D01*
X108507282Y-36726846D01*
X108472288Y-36793956D01*
X108432567Y-36853427D01*
X108386983Y-36907242D01*
X108337384Y-36953484D01*
X108281077Y-36994539D01*
X108221498Y-37027820D01*
X108154354Y-37055405D01*
X108084939Y-37074851D01*
X108008203Y-37087257D01*
X107930739Y-37091263D01*
X107821480Y-37083183D01*
X107676823Y-37046111D01*
X107545702Y-36981348D01*
X107432619Y-36891922D01*
X107340640Y-36780510D01*
X107272022Y-36648954D01*
X107247192Y-36576141D01*
X107228921Y-36498195D01*
X107217720Y-36415791D01*
X107213886Y-36328492D01*
X107220094Y-36224811D01*
X107577930Y-36224811D01*
X107577930Y-36247159D01*
X108095847Y-36247159D01*
X108113627Y-36246728D01*
X108164070Y-36235291D01*
X108182172Y-36222442D01*
X108196517Y-36202887D01*
X108206922Y-36172095D01*
X108210642Y-36129801D01*
X108202622Y-35993920D01*
X108171843Y-35849993D01*
X108124446Y-35744615D01*
X108064921Y-35673100D01*
X107993915Y-35630412D01*
X107952997Y-35619252D01*
X107908269Y-35615425D01*
X107861748Y-35619246D01*
X107817878Y-35630909D01*
X107778357Y-35649801D01*
X107738971Y-35678840D01*
X107704581Y-35715334D01*
X107669826Y-35767245D01*
X107641354Y-35827004D01*
X107614388Y-35908836D01*
X107595436Y-35997560D01*
X107582073Y-36110517D01*
X107577930Y-36224811D01*
X107220094Y-36224811D01*
X107221134Y-36207440D01*
X107256058Y-36046287D01*
X107317145Y-35904841D01*
X107401339Y-35785322D01*
X107505900Y-35689429D01*
X107628624Y-35618641D01*
X107696232Y-35593170D01*
X107767856Y-35574599D01*
X107843304Y-35563229D01*
X107922313Y-35559371D01*
X108004556Y-35563816D01*
G37*
G36*
X110631803Y-35105219D02*
G01*
X110803434Y-35136420D01*
X110937152Y-35187736D01*
X111037389Y-35255210D01*
X111108267Y-35337172D01*
X111133554Y-35383901D01*
X111151937Y-35434424D01*
X111163446Y-35490113D01*
X111167323Y-35549602D01*
X111167160Y-35562153D01*
X111149495Y-35674163D01*
X111129821Y-35725260D01*
X111103088Y-35772779D01*
X111068118Y-35818082D01*
X111025854Y-35859333D01*
X110973407Y-35898404D01*
X110913123Y-35932692D01*
X110840485Y-35963800D01*
X110759334Y-35989176D01*
X110664121Y-36009657D01*
X110559769Y-36023311D01*
X110559769Y-36031737D01*
X110738706Y-36046415D01*
X110915748Y-36084584D01*
X111049551Y-36140521D01*
X111148711Y-36211950D01*
X111187493Y-36253760D01*
X111219236Y-36299428D01*
X111245004Y-36350992D01*
X111263489Y-36406459D01*
X111275484Y-36470584D01*
X111279431Y-36538907D01*
X111268631Y-36643906D01*
X111252328Y-36701326D01*
X111228984Y-36754952D01*
X111197929Y-36805993D01*
X111160008Y-36852766D01*
X111113385Y-36896915D01*
X111059920Y-36936116D01*
X110996766Y-36971794D01*
X110926814Y-37001675D01*
X110846852Y-37026525D01*
X110760319Y-37044658D01*
X110664480Y-37056128D01*
X110562578Y-37060000D01*
X109291416Y-37060000D01*
X109291416Y-37009685D01*
X110019382Y-37009685D01*
X110391852Y-37009685D01*
X110407517Y-37009575D01*
X110560990Y-36994143D01*
X110676886Y-36956251D01*
X110764324Y-36898087D01*
X110799718Y-36860330D01*
X110828877Y-36817346D01*
X110853575Y-36765121D01*
X110871394Y-36707022D01*
X110883464Y-36634932D01*
X110887421Y-36555760D01*
X110885657Y-36501287D01*
X110863724Y-36373306D01*
X110819106Y-36273217D01*
X110788076Y-36231175D01*
X110751046Y-36194227D01*
X110705876Y-36161057D01*
X110653964Y-36133400D01*
X110589896Y-36109601D01*
X110517641Y-36092238D01*
X110427716Y-36080470D01*
X110327372Y-36076556D01*
X110019382Y-36076556D01*
X110019382Y-37009685D01*
X109291416Y-37009685D01*
X109291416Y-37004068D01*
X109427778Y-36990687D01*
X109526511Y-36961775D01*
X109589394Y-36917033D01*
X109613942Y-36883151D01*
X109631826Y-36842316D01*
X109650552Y-36745991D01*
X109655460Y-36620118D01*
X109655460Y-36020502D01*
X110019382Y-36020502D01*
X110327372Y-36020502D01*
X110335339Y-36020459D01*
X110468878Y-36005143D01*
X110576867Y-35965112D01*
X110662268Y-35902503D01*
X110697225Y-35862362D01*
X110726549Y-35816522D01*
X110750716Y-35763248D01*
X110768443Y-35704022D01*
X110779874Y-35635625D01*
X110783740Y-35560837D01*
X110777017Y-35470065D01*
X110745633Y-35361613D01*
X110721068Y-35316271D01*
X110690793Y-35276475D01*
X110653956Y-35241387D01*
X110611524Y-35212194D01*
X110560668Y-35187702D01*
X110504026Y-35169885D01*
X110436930Y-35158197D01*
X110363764Y-35154295D01*
X110019382Y-35154295D01*
X110019382Y-36020502D01*
X109655460Y-36020502D01*
X109655460Y-35538367D01*
X109655167Y-35501924D01*
X109643800Y-35363535D01*
X109616533Y-35280021D01*
X109595781Y-35248722D01*
X109569160Y-35222613D01*
X109530833Y-35198685D01*
X109483051Y-35180401D01*
X109398722Y-35163213D01*
X109291416Y-35154295D01*
X109291416Y-35098241D01*
X110486985Y-35098241D01*
X110631803Y-35105219D01*
G37*
G36*
X112373093Y-35569138D02*
G01*
X112450680Y-35585018D01*
X112524933Y-35608107D01*
X112661183Y-35674511D01*
X112778267Y-35765490D01*
X112873253Y-35878102D01*
X112943755Y-36009665D01*
X112969117Y-36081684D01*
X112987658Y-36157947D01*
X112998961Y-36237686D01*
X113002808Y-36321165D01*
X112993621Y-36450012D01*
X112978079Y-36529352D01*
X112955440Y-36604512D01*
X112925730Y-36675985D01*
X112889545Y-36742683D01*
X112846812Y-36804956D01*
X112798270Y-36861833D01*
X112743898Y-36913416D01*
X112684448Y-36958990D01*
X112620126Y-36998399D01*
X112551521Y-37031223D01*
X112479174Y-37057154D01*
X112403386Y-37075983D01*
X112325021Y-37087399D01*
X112244068Y-37091263D01*
X112113440Y-37081080D01*
X112036344Y-37064903D01*
X111962551Y-37041502D01*
X111826818Y-36974289D01*
X111709900Y-36882226D01*
X111614883Y-36768278D01*
X111544300Y-36635243D01*
X111518913Y-36562504D01*
X111500356Y-36485541D01*
X111489053Y-36405198D01*
X111485205Y-36321165D01*
X111863171Y-36321165D01*
X111866954Y-36442063D01*
X111893381Y-36640401D01*
X111939361Y-36791832D01*
X111999224Y-36901482D01*
X112069645Y-36975830D01*
X112150383Y-37020019D01*
X112195712Y-37031463D01*
X112244068Y-37035331D01*
X112259365Y-37034957D01*
X112306529Y-37028767D01*
X112350682Y-37015153D01*
X112393611Y-36993204D01*
X112433110Y-36963648D01*
X112471989Y-36923315D01*
X112506672Y-36874701D01*
X112539776Y-36812289D01*
X112567622Y-36740792D01*
X112591768Y-36653410D01*
X112609440Y-36556438D01*
X112620963Y-36443538D01*
X112624842Y-36321165D01*
X112621314Y-36205758D01*
X112595274Y-36008883D01*
X112549514Y-35858295D01*
X112489700Y-35749065D01*
X112419163Y-35674881D01*
X112338151Y-35630732D01*
X112292637Y-35619293D01*
X112244068Y-35615425D01*
X112229835Y-35615745D01*
X112182378Y-35621751D01*
X112137962Y-35635174D01*
X112094849Y-35656874D01*
X112055189Y-35686144D01*
X112016210Y-35726064D01*
X111981445Y-35774194D01*
X111948296Y-35835933D01*
X111920416Y-35906654D01*
X111896255Y-35993027D01*
X111878574Y-36088856D01*
X111867050Y-36200353D01*
X111863171Y-36321165D01*
X111485205Y-36321165D01*
X111493815Y-36197198D01*
X111508976Y-36118379D01*
X111531237Y-36043751D01*
X111560588Y-35972777D01*
X111596428Y-35906568D01*
X111638893Y-35844681D01*
X111687200Y-35788167D01*
X111741486Y-35736816D01*
X111800902Y-35691452D01*
X111865395Y-35652136D01*
X111934234Y-35619394D01*
X112007029Y-35593476D01*
X112083330Y-35574659D01*
X112162378Y-35563236D01*
X112244068Y-35559371D01*
X112373093Y-35569138D01*
G37*
G36*
X114102333Y-35569138D02*
G01*
X114179920Y-35585018D01*
X114254173Y-35608107D01*
X114390422Y-35674511D01*
X114507507Y-35765490D01*
X114602493Y-35878102D01*
X114672995Y-36009665D01*
X114698356Y-36081684D01*
X114716897Y-36157947D01*
X114728200Y-36237686D01*
X114732048Y-36321165D01*
X114722861Y-36450012D01*
X114707318Y-36529352D01*
X114684679Y-36604512D01*
X114654969Y-36675985D01*
X114618784Y-36742683D01*
X114576051Y-36804956D01*
X114527509Y-36861833D01*
X114473137Y-36913416D01*
X114413688Y-36958990D01*
X114349365Y-36998399D01*
X114280761Y-37031223D01*
X114208414Y-37057154D01*
X114132625Y-37075983D01*
X114054261Y-37087399D01*
X113973307Y-37091263D01*
X113842680Y-37081080D01*
X113765583Y-37064903D01*
X113691791Y-37041502D01*
X113556058Y-36974289D01*
X113439140Y-36882226D01*
X113344122Y-36768278D01*
X113273539Y-36635243D01*
X113248152Y-36562504D01*
X113229595Y-36485541D01*
X113218292Y-36405198D01*
X113214445Y-36321165D01*
X113592411Y-36321165D01*
X113596194Y-36442063D01*
X113622621Y-36640401D01*
X113668600Y-36791832D01*
X113728463Y-36901482D01*
X113798884Y-36975830D01*
X113879623Y-37020019D01*
X113924951Y-37031463D01*
X113973307Y-37035331D01*
X113988605Y-37034957D01*
X114035769Y-37028767D01*
X114079922Y-37015153D01*
X114122850Y-36993204D01*
X114162349Y-36963648D01*
X114201229Y-36923315D01*
X114235912Y-36874701D01*
X114269016Y-36812289D01*
X114296861Y-36740792D01*
X114321008Y-36653410D01*
X114338680Y-36556438D01*
X114350203Y-36443538D01*
X114354082Y-36321165D01*
X114350553Y-36205758D01*
X114324513Y-36008883D01*
X114278753Y-35858295D01*
X114218940Y-35749065D01*
X114148402Y-35674881D01*
X114067391Y-35630732D01*
X114021877Y-35619293D01*
X113973307Y-35615425D01*
X113959074Y-35615745D01*
X113911617Y-35621751D01*
X113867201Y-35635174D01*
X113824088Y-35656874D01*
X113784428Y-35686144D01*
X113745450Y-35726064D01*
X113710684Y-35774194D01*
X113677535Y-35835933D01*
X113649656Y-35906654D01*
X113625495Y-35993027D01*
X113607814Y-36088856D01*
X113596290Y-36200353D01*
X113592411Y-36321165D01*
X113214445Y-36321165D01*
X113223054Y-36197198D01*
X113238215Y-36118379D01*
X113260476Y-36043751D01*
X113289827Y-35972777D01*
X113325667Y-35906568D01*
X113368133Y-35844681D01*
X113416439Y-35788167D01*
X113470726Y-35736816D01*
X113530141Y-35691452D01*
X113594634Y-35652136D01*
X113663473Y-35619394D01*
X113736268Y-35593476D01*
X113812569Y-35574659D01*
X113891617Y-35563236D01*
X113973307Y-35559371D01*
X114102333Y-35569138D01*
G37*
G36*
X116295446Y-36746147D02*
G01*
X115875471Y-36095729D01*
X116148343Y-35870609D01*
X116334617Y-35734860D01*
X116409876Y-35693265D01*
X116481002Y-35665331D01*
X116553834Y-35648165D01*
X116634211Y-35638872D01*
X116634211Y-35582819D01*
X115743824Y-35582819D01*
X115743824Y-35638872D01*
X115833981Y-35649984D01*
X115914247Y-35671656D01*
X115955885Y-35692188D01*
X115987385Y-35718816D01*
X116002904Y-35743174D01*
X116010398Y-35771648D01*
X116000163Y-35835041D01*
X115949805Y-35920356D01*
X115837548Y-36039469D01*
X115766172Y-36101346D01*
X115396632Y-36404207D01*
X115396632Y-35098241D01*
X114800191Y-35098241D01*
X114800191Y-35154295D01*
X114941354Y-35172216D01*
X114988404Y-35188963D01*
X115022355Y-35214612D01*
X115051479Y-35270422D01*
X115064971Y-35371162D01*
X115066172Y-35434441D01*
X115066172Y-36723677D01*
X115061359Y-36835196D01*
X115043299Y-36910738D01*
X115026718Y-36938576D01*
X115004226Y-36959795D01*
X114941055Y-36986216D01*
X114800191Y-37004068D01*
X114800191Y-37060000D01*
X115662613Y-37060000D01*
X115662613Y-37004068D01*
X115521472Y-36986135D01*
X115474421Y-36969368D01*
X115440462Y-36943683D01*
X115411335Y-36887812D01*
X115397834Y-36786961D01*
X115396632Y-36723677D01*
X115396632Y-36499462D01*
X115656995Y-36280865D01*
X115945446Y-36743339D01*
X116025085Y-36882430D01*
X116040542Y-36926245D01*
X116039558Y-36956722D01*
X116014198Y-36980780D01*
X115946906Y-36995605D01*
X115859700Y-37003145D01*
X115847383Y-37004068D01*
X115847383Y-37060000D01*
X116754623Y-37060000D01*
X116754623Y-37004068D01*
X116603761Y-36986632D01*
X116540044Y-36969324D01*
X116481533Y-36942682D01*
X116436909Y-36912632D01*
X116393376Y-36873379D01*
X116303449Y-36758494D01*
X116295446Y-36746147D01*
G37*
G36*
X118270093Y-35569138D02*
G01*
X118347680Y-35585018D01*
X118421933Y-35608107D01*
X118558182Y-35674511D01*
X118675267Y-35765490D01*
X118770253Y-35878102D01*
X118840755Y-36009665D01*
X118866116Y-36081684D01*
X118884657Y-36157947D01*
X118895960Y-36237686D01*
X118899808Y-36321165D01*
X118890621Y-36450012D01*
X118875078Y-36529352D01*
X118852439Y-36604512D01*
X118822729Y-36675985D01*
X118786544Y-36742683D01*
X118743811Y-36804956D01*
X118695269Y-36861833D01*
X118640897Y-36913416D01*
X118581448Y-36958990D01*
X118517125Y-36998399D01*
X118448521Y-37031223D01*
X118376173Y-37057154D01*
X118300385Y-37075983D01*
X118222021Y-37087399D01*
X118141067Y-37091263D01*
X118010439Y-37081080D01*
X117933343Y-37064903D01*
X117859550Y-37041502D01*
X117723818Y-36974289D01*
X117606899Y-36882226D01*
X117511882Y-36768278D01*
X117441299Y-36635243D01*
X117415912Y-36562504D01*
X117397355Y-36485541D01*
X117386052Y-36405198D01*
X117382205Y-36321165D01*
X117760170Y-36321165D01*
X117763954Y-36442063D01*
X117790381Y-36640401D01*
X117836360Y-36791832D01*
X117896223Y-36901482D01*
X117966644Y-36975830D01*
X118047383Y-37020019D01*
X118092711Y-37031463D01*
X118141067Y-37035331D01*
X118156365Y-37034957D01*
X118203529Y-37028767D01*
X118247682Y-37015153D01*
X118290610Y-36993204D01*
X118330109Y-36963648D01*
X118368988Y-36923315D01*
X118403671Y-36874701D01*
X118436776Y-36812289D01*
X118464621Y-36740792D01*
X118488767Y-36653410D01*
X118506440Y-36556438D01*
X118517963Y-36443538D01*
X118521842Y-36321165D01*
X118518313Y-36205758D01*
X118492273Y-36008883D01*
X118446513Y-35858295D01*
X118386700Y-35749065D01*
X118316162Y-35674881D01*
X118235151Y-35630732D01*
X118189637Y-35619293D01*
X118141067Y-35615425D01*
X118126834Y-35615745D01*
X118079377Y-35621751D01*
X118034961Y-35635174D01*
X117991848Y-35656874D01*
X117952188Y-35686144D01*
X117913210Y-35726064D01*
X117878444Y-35774194D01*
X117845295Y-35835933D01*
X117817416Y-35906654D01*
X117793254Y-35993027D01*
X117775574Y-36088856D01*
X117764050Y-36200353D01*
X117760170Y-36321165D01*
X117382205Y-36321165D01*
X117390814Y-36197198D01*
X117405975Y-36118379D01*
X117428236Y-36043751D01*
X117457587Y-35972777D01*
X117493427Y-35906568D01*
X117535893Y-35844681D01*
X117584199Y-35788167D01*
X117638486Y-35736816D01*
X117697901Y-35691452D01*
X117762394Y-35652136D01*
X117831233Y-35619394D01*
X117904028Y-35593476D01*
X117980329Y-35574659D01*
X118059377Y-35563236D01*
X118141067Y-35559371D01*
X118270093Y-35569138D01*
G37*
G36*
X119865300Y-34902847D02*
G01*
X119785009Y-34906684D01*
X119712039Y-34917911D01*
X119648015Y-34935474D01*
X119590512Y-34959211D01*
X119539858Y-34988386D01*
X119495225Y-35022846D01*
X119422240Y-35107733D01*
X119370002Y-35215235D01*
X119339696Y-35347908D01*
X119333339Y-35453614D01*
X119333339Y-35582819D01*
X119056123Y-35582819D01*
X119056123Y-35638872D01*
X119333339Y-35638872D01*
X119333339Y-36723677D01*
X119328532Y-36835053D01*
X119310517Y-36910550D01*
X119293949Y-36938443D01*
X119271471Y-36959703D01*
X119208381Y-36986164D01*
X119067358Y-37004068D01*
X119067358Y-37060000D01*
X119929658Y-37060000D01*
X119929658Y-37004068D01*
X119788517Y-36986135D01*
X119741465Y-36969368D01*
X119707507Y-36943683D01*
X119678380Y-36887812D01*
X119664878Y-36786961D01*
X119663677Y-36723677D01*
X119663677Y-35638872D01*
X120066922Y-35638872D01*
X120066922Y-35582819D01*
X119663677Y-35582819D01*
X119663677Y-35360802D01*
X119633899Y-35279954D01*
X119616210Y-35209526D01*
X119609768Y-35153262D01*
X119612055Y-35105052D01*
X119621388Y-35066964D01*
X119637033Y-35035208D01*
X119683973Y-34989854D01*
X119754015Y-34964164D01*
X119814863Y-34958900D01*
X119854607Y-34962668D01*
X119889735Y-34973413D01*
X119949067Y-35014097D01*
X119997838Y-35082697D01*
X120036903Y-35185470D01*
X120066139Y-35326684D01*
X120075348Y-35377655D01*
X120127376Y-35341659D01*
X120170058Y-35303168D01*
X120203759Y-35262799D01*
X120228391Y-35221646D01*
X120244064Y-35180886D01*
X120251185Y-35141069D01*
X120251692Y-35127550D01*
X120236569Y-35066744D01*
X120188955Y-35006104D01*
X120104887Y-34951580D01*
X120049087Y-34929830D01*
X119986045Y-34913913D01*
X119865300Y-34902847D01*
G37*
G36*
X123334525Y-35154295D02*
G01*
X123334525Y-35098241D01*
X122656995Y-35098241D01*
X122015858Y-36580795D01*
X121357745Y-35098241D01*
X120629780Y-35098241D01*
X120629780Y-35154295D01*
X120737157Y-35163217D01*
X120821525Y-35180414D01*
X120869291Y-35198698D01*
X120907601Y-35222625D01*
X120934206Y-35248734D01*
X120954944Y-35280033D01*
X120982188Y-35363564D01*
X120993534Y-35502028D01*
X120993824Y-35538244D01*
X120993824Y-36238977D01*
X120987379Y-36537930D01*
X120976470Y-36648286D01*
X120957901Y-36737173D01*
X120938056Y-36791275D01*
X120912175Y-36836880D01*
X120847866Y-36902083D01*
X120750149Y-36955450D01*
X120610240Y-37004068D01*
X120610240Y-37060000D01*
X121433461Y-37060000D01*
X121433461Y-37004068D01*
X121303229Y-36959460D01*
X121206162Y-36909390D01*
X121166429Y-36877561D01*
X121133976Y-36840403D01*
X121090819Y-36753558D01*
X121063932Y-36624255D01*
X121051002Y-36399997D01*
X121049755Y-36238977D01*
X121049755Y-35336500D01*
X121839392Y-37091263D01*
X121861741Y-37091263D01*
X122606559Y-35364832D01*
X122606559Y-36622561D01*
X122601651Y-36747411D01*
X122582929Y-36843048D01*
X122565028Y-36883667D01*
X122540449Y-36917387D01*
X122477394Y-36961983D01*
X122378240Y-36990822D01*
X122242637Y-37004068D01*
X122242637Y-37060000D01*
X123334525Y-37060000D01*
X123334525Y-37004068D01*
X123227188Y-36995145D01*
X123142850Y-36977949D01*
X123095100Y-36959664D01*
X123056801Y-36935735D01*
X123030203Y-36909624D01*
X123009470Y-36878321D01*
X122982233Y-36794773D01*
X122970891Y-36656268D01*
X122970603Y-36620118D01*
X122970603Y-35538244D01*
X122975511Y-35412372D01*
X122994233Y-35316047D01*
X123012115Y-35275206D01*
X123036661Y-35241321D01*
X123099537Y-35196578D01*
X123198253Y-35167669D01*
X123334525Y-35154295D01*
G37*
G36*
X124319499Y-35569138D02*
G01*
X124397087Y-35585018D01*
X124471340Y-35608107D01*
X124607589Y-35674511D01*
X124724674Y-35765490D01*
X124819659Y-35878102D01*
X124890161Y-36009665D01*
X124915523Y-36081684D01*
X124934064Y-36157947D01*
X124945367Y-36237686D01*
X124949214Y-36321165D01*
X124940027Y-36450012D01*
X124924485Y-36529352D01*
X124901846Y-36604512D01*
X124872136Y-36675985D01*
X124835951Y-36742683D01*
X124793218Y-36804956D01*
X124744676Y-36861833D01*
X124690304Y-36913416D01*
X124630855Y-36958990D01*
X124566532Y-36998399D01*
X124497928Y-37031223D01*
X124425580Y-37057154D01*
X124349792Y-37075983D01*
X124271427Y-37087399D01*
X124190474Y-37091263D01*
X124059846Y-37081080D01*
X123982750Y-37064903D01*
X123908957Y-37041502D01*
X123773225Y-36974289D01*
X123656306Y-36882226D01*
X123561289Y-36768278D01*
X123490706Y-36635243D01*
X123465319Y-36562504D01*
X123446762Y-36485541D01*
X123435459Y-36405198D01*
X123431612Y-36321165D01*
X123809577Y-36321165D01*
X123813360Y-36442063D01*
X123839788Y-36640401D01*
X123885767Y-36791832D01*
X123945630Y-36901482D01*
X124016051Y-36975830D01*
X124096789Y-37020019D01*
X124142118Y-37031463D01*
X124190474Y-37035331D01*
X124205772Y-37034957D01*
X124252936Y-37028767D01*
X124297088Y-37015153D01*
X124340017Y-36993204D01*
X124379516Y-36963648D01*
X124418395Y-36923315D01*
X124453078Y-36874701D01*
X124486183Y-36812289D01*
X124514028Y-36740792D01*
X124538174Y-36653410D01*
X124555846Y-36556438D01*
X124567369Y-36443538D01*
X124571249Y-36321165D01*
X124567720Y-36205758D01*
X124541680Y-36008883D01*
X124495920Y-35858295D01*
X124436106Y-35749065D01*
X124365569Y-35674881D01*
X124284557Y-35630732D01*
X124239043Y-35619293D01*
X124190474Y-35615425D01*
X124176241Y-35615745D01*
X124128784Y-35621751D01*
X124084368Y-35635174D01*
X124041255Y-35656874D01*
X124001595Y-35686144D01*
X123962616Y-35726064D01*
X123927851Y-35774194D01*
X123894702Y-35835933D01*
X123866822Y-35906654D01*
X123842661Y-35993027D01*
X123824980Y-36088856D01*
X123813457Y-36200353D01*
X123809577Y-36321165D01*
X123431612Y-36321165D01*
X123440221Y-36197198D01*
X123455382Y-36118379D01*
X123477643Y-36043751D01*
X123506994Y-35972777D01*
X123542834Y-35906568D01*
X123585300Y-35844681D01*
X123633606Y-35788167D01*
X123687892Y-35736816D01*
X123747308Y-35691452D01*
X123811801Y-35652136D01*
X123880640Y-35619394D01*
X123953435Y-35593476D01*
X124029736Y-35574659D01*
X124108784Y-35563236D01*
X124190474Y-35559371D01*
X124319499Y-35569138D01*
G37*
G36*
X126146371Y-35559371D02*
G01*
X126091895Y-35563339D01*
X126037915Y-35575479D01*
X125986928Y-35595199D01*
X125937303Y-35623128D01*
X125890346Y-35658830D01*
X125845545Y-35703047D01*
X125803283Y-35756127D01*
X125764019Y-35818338D01*
X125727698Y-35891047D01*
X125695326Y-35973767D01*
X125662037Y-36087791D01*
X125662037Y-35582819D01*
X125065596Y-35582819D01*
X125065596Y-35638872D01*
X125198029Y-35655522D01*
X125243685Y-35670424D01*
X125277710Y-35692633D01*
X125310416Y-35744633D01*
X125326345Y-35834898D01*
X125328768Y-35919141D01*
X125328768Y-36723677D01*
X125323978Y-36835053D01*
X125306082Y-36910550D01*
X125289570Y-36938547D01*
X125267166Y-36959859D01*
X125204392Y-36986302D01*
X125065596Y-37004068D01*
X125065596Y-37060000D01*
X126090317Y-37060000D01*
X126090317Y-37004068D01*
X125882898Y-36989903D01*
X125810208Y-36976263D01*
X125755101Y-36955590D01*
X125725037Y-36935254D01*
X125702004Y-36909504D01*
X125674420Y-36842596D01*
X125662575Y-36727053D01*
X125662037Y-36681667D01*
X125662037Y-36600334D01*
X125665801Y-36445704D01*
X125676518Y-36310568D01*
X125693030Y-36195306D01*
X125714624Y-36096545D01*
X125740149Y-36013992D01*
X125769036Y-35945232D01*
X125800441Y-35889183D01*
X125833612Y-35844587D01*
X125868567Y-35809602D01*
X125903692Y-35784180D01*
X125975700Y-35756156D01*
X126011915Y-35752690D01*
X126047819Y-35756471D01*
X126077638Y-35767312D01*
X126119619Y-35805835D01*
X126143882Y-35868968D01*
X126149180Y-35928545D01*
X126145055Y-35986401D01*
X126131812Y-36044855D01*
X126109979Y-36099026D01*
X126202108Y-36079444D01*
X126286119Y-36031251D01*
X126353379Y-35957900D01*
X126377490Y-35914491D01*
X126394248Y-35867745D01*
X126403925Y-35794455D01*
X126400100Y-35748264D01*
X126388961Y-35706450D01*
X126371258Y-35669700D01*
X126347385Y-35637756D01*
X126282107Y-35588872D01*
X126194303Y-35562546D01*
X126146371Y-35559371D01*
G37*
G36*
X129034298Y-36723677D02*
G01*
X129034298Y-36014518D01*
X129030409Y-35938288D01*
X129018814Y-35868063D01*
X129000956Y-35807731D01*
X128976459Y-35753281D01*
X128947166Y-35707307D01*
X128912060Y-35667101D01*
X128872506Y-35633817D01*
X128827624Y-35606394D01*
X128722075Y-35569962D01*
X128611514Y-35559371D01*
X128500002Y-35574346D01*
X128387083Y-35620105D01*
X128276611Y-35697821D01*
X128176020Y-35806148D01*
X128132432Y-35870155D01*
X128095316Y-35938553D01*
X128059891Y-36026364D01*
X128059891Y-36017937D01*
X128056004Y-35940833D01*
X128044425Y-35869897D01*
X128026601Y-35809013D01*
X128002170Y-35754129D01*
X127972982Y-35707844D01*
X127938030Y-35667410D01*
X127898703Y-35633986D01*
X127854116Y-35606473D01*
X127749451Y-35569977D01*
X127639916Y-35559371D01*
X127527508Y-35574346D01*
X127414607Y-35619935D01*
X127304738Y-35697193D01*
X127204810Y-35804974D01*
X127124326Y-35937247D01*
X127088415Y-36026364D01*
X127088415Y-35582819D01*
X126491974Y-35582819D01*
X126491974Y-35638872D01*
X126624407Y-35655522D01*
X126670063Y-35670424D01*
X126704088Y-35692633D01*
X126736795Y-35744633D01*
X126752723Y-35834898D01*
X126755146Y-35919141D01*
X126755146Y-36723677D01*
X126750356Y-36835053D01*
X126732460Y-36910550D01*
X126715949Y-36938547D01*
X126693544Y-36959859D01*
X126630770Y-36986302D01*
X126491974Y-37004068D01*
X126491974Y-37060000D01*
X127331926Y-37060000D01*
X127331926Y-37004068D01*
X127200562Y-36986900D01*
X127157606Y-36971300D01*
X127127079Y-36947703D01*
X127100636Y-36893869D01*
X127089213Y-36792066D01*
X127088415Y-36732103D01*
X127088415Y-36227498D01*
X127107194Y-36109601D01*
X127156428Y-35990265D01*
X127233756Y-35881362D01*
X127279964Y-35835977D01*
X127329843Y-35798213D01*
X127379394Y-35770564D01*
X127430524Y-35751611D01*
X127502773Y-35741454D01*
X127550843Y-35745323D01*
X127593194Y-35756771D01*
X127627683Y-35774163D01*
X127657152Y-35797805D01*
X127700991Y-35862969D01*
X127725684Y-35957420D01*
X127729553Y-36023555D01*
X127729553Y-36733080D01*
X127724011Y-36856000D01*
X127715245Y-36899342D01*
X127700849Y-36932654D01*
X127682743Y-36954719D01*
X127658611Y-36971346D01*
X127584602Y-36993120D01*
X127483112Y-37004068D01*
X127483112Y-37060000D01*
X128306332Y-37060000D01*
X128306332Y-37004068D01*
X128173981Y-36986857D01*
X128130495Y-36971142D01*
X128099467Y-36947332D01*
X128072516Y-36893279D01*
X128060733Y-36791999D01*
X128059891Y-36733080D01*
X128059891Y-36230307D01*
X128078677Y-36112060D01*
X128127843Y-35992503D01*
X128205120Y-35883133D01*
X128251409Y-35837333D01*
X128301285Y-35799200D01*
X128350871Y-35771162D01*
X128401892Y-35751902D01*
X128474371Y-35741454D01*
X128523285Y-35745323D01*
X128566291Y-35756771D01*
X128601162Y-35774110D01*
X128630914Y-35797670D01*
X128675016Y-35862392D01*
X128699914Y-35956075D01*
X128703960Y-36023555D01*
X128703960Y-36733080D01*
X128698418Y-36856000D01*
X128689652Y-36899342D01*
X128675256Y-36932654D01*
X128657150Y-36954719D01*
X128633018Y-36971346D01*
X128559009Y-36993120D01*
X128457519Y-37004068D01*
X128457519Y-37060000D01*
X129300279Y-37060000D01*
X129300279Y-37004068D01*
X129159199Y-36986240D01*
X129112154Y-36969555D01*
X129078191Y-36943997D01*
X129049015Y-36888316D01*
X129035503Y-36787881D01*
X129034298Y-36724776D01*
X129034298Y-36723677D01*
G37*
G36*
X130257531Y-35569138D02*
G01*
X130335119Y-35585018D01*
X130409372Y-35608107D01*
X130545621Y-35674511D01*
X130662706Y-35765490D01*
X130757692Y-35878102D01*
X130828194Y-36009665D01*
X130853555Y-36081684D01*
X130872096Y-36157947D01*
X130883399Y-36237686D01*
X130887247Y-36321165D01*
X130878059Y-36450012D01*
X130862517Y-36529352D01*
X130839878Y-36604512D01*
X130810168Y-36675985D01*
X130773983Y-36742683D01*
X130731250Y-36804956D01*
X130682708Y-36861833D01*
X130628336Y-36913416D01*
X130568887Y-36958990D01*
X130504564Y-36998399D01*
X130435960Y-37031223D01*
X130363612Y-37057154D01*
X130287824Y-37075983D01*
X130209460Y-37087399D01*
X130128506Y-37091263D01*
X129997878Y-37081080D01*
X129920782Y-37064903D01*
X129846989Y-37041502D01*
X129711257Y-36974289D01*
X129594338Y-36882226D01*
X129499321Y-36768278D01*
X129428738Y-36635243D01*
X129403351Y-36562504D01*
X129384794Y-36485541D01*
X129373491Y-36405198D01*
X129369644Y-36321165D01*
X129747609Y-36321165D01*
X129751393Y-36442063D01*
X129777820Y-36640401D01*
X129823799Y-36791832D01*
X129883662Y-36901482D01*
X129954083Y-36975830D01*
X130034821Y-37020019D01*
X130080150Y-37031463D01*
X130128506Y-37035331D01*
X130143804Y-37034957D01*
X130190968Y-37028767D01*
X130235121Y-37015153D01*
X130278049Y-36993204D01*
X130317548Y-36963648D01*
X130356427Y-36923315D01*
X130391110Y-36874701D01*
X130424215Y-36812289D01*
X130452060Y-36740792D01*
X130476206Y-36653410D01*
X130493879Y-36556438D01*
X130505402Y-36443538D01*
X130509281Y-36321165D01*
X130505752Y-36205758D01*
X130479712Y-36008883D01*
X130433952Y-35858295D01*
X130374139Y-35749065D01*
X130303601Y-35674881D01*
X130222590Y-35630732D01*
X130177076Y-35619293D01*
X130128506Y-35615425D01*
X130114273Y-35615745D01*
X130066816Y-35621751D01*
X130022400Y-35635174D01*
X129979287Y-35656874D01*
X129939627Y-35686144D01*
X129900649Y-35726064D01*
X129865883Y-35774194D01*
X129832734Y-35835933D01*
X129804855Y-35906654D01*
X129780693Y-35993027D01*
X129763012Y-36088856D01*
X129751489Y-36200353D01*
X129747609Y-36321165D01*
X129369644Y-36321165D01*
X129378253Y-36197198D01*
X129393414Y-36118379D01*
X129415675Y-36043751D01*
X129445026Y-35972777D01*
X129480866Y-35906568D01*
X129523332Y-35844681D01*
X129571638Y-35788167D01*
X129625924Y-35736816D01*
X129685340Y-35691452D01*
X129749833Y-35652136D01*
X129818672Y-35619394D01*
X129891467Y-35593476D01*
X129967768Y-35574659D01*
X130046816Y-35563236D01*
X130128506Y-35559371D01*
X130257531Y-35569138D01*
G37*
G36*
X132571545Y-36723677D02*
G01*
X132571545Y-36014518D01*
X132567658Y-35938288D01*
X132556079Y-35868063D01*
X132538227Y-35807637D01*
X132513750Y-35753113D01*
X132484472Y-35707048D01*
X132449404Y-35666783D01*
X132409918Y-35633470D01*
X132365145Y-35606052D01*
X132260043Y-35569749D01*
X132151570Y-35559371D01*
X132039161Y-35574346D01*
X131926261Y-35619935D01*
X131816392Y-35697193D01*
X131716464Y-35804974D01*
X131635980Y-35937247D01*
X131600069Y-36026364D01*
X131600069Y-35582819D01*
X131003628Y-35582819D01*
X131003628Y-35638872D01*
X131136061Y-35655522D01*
X131181717Y-35670424D01*
X131215742Y-35692633D01*
X131248449Y-35744633D01*
X131264377Y-35834898D01*
X131266800Y-35919141D01*
X131266800Y-36723677D01*
X131262010Y-36835053D01*
X131244114Y-36910550D01*
X131227603Y-36938547D01*
X131205198Y-36959859D01*
X131142424Y-36986302D01*
X131003628Y-37004068D01*
X131003628Y-37060000D01*
X131843579Y-37060000D01*
X131843579Y-37004068D01*
X131712216Y-36986900D01*
X131669260Y-36971300D01*
X131638733Y-36947703D01*
X131612290Y-36893869D01*
X131600867Y-36792066D01*
X131600069Y-36732103D01*
X131600069Y-36227498D01*
X131618847Y-36109601D01*
X131668082Y-35990265D01*
X131745409Y-35881362D01*
X131791618Y-35835977D01*
X131841497Y-35798213D01*
X131891048Y-35770564D01*
X131942178Y-35751611D01*
X132014427Y-35741454D01*
X132062497Y-35745323D01*
X132104847Y-35756771D01*
X132139337Y-35774163D01*
X132168806Y-35797805D01*
X132212645Y-35862969D01*
X132237337Y-35957420D01*
X132241207Y-36023555D01*
X132241207Y-36733080D01*
X132235665Y-36856000D01*
X132226899Y-36899342D01*
X132212503Y-36932654D01*
X132194397Y-36954719D01*
X132170265Y-36971346D01*
X132096256Y-36993120D01*
X131994766Y-37004068D01*
X131994766Y-37060000D01*
X132837648Y-37060000D01*
X132837648Y-37004068D01*
X132696500Y-36986241D01*
X132649434Y-36969557D01*
X132615457Y-36944002D01*
X132586271Y-36888334D01*
X132572752Y-36787940D01*
X132571545Y-36724776D01*
X132571545Y-36723677D01*
G37*
D12*
X84755595Y-72712625D02*
X84755595Y-69855482D01*
X89755595Y-71284054D02*
X84755595Y-71284054D01*
X89755595Y-66045958D02*
X87136547Y-66045958D01*
X87136547Y-66045958D02*
X86660357Y-66284053D01*
X86660357Y-66284053D02*
X86422261Y-66760244D01*
X86422261Y-66760244D02*
X86422261Y-67712625D01*
X86422261Y-67712625D02*
X86660357Y-68188815D01*
X89517500Y-66045958D02*
X89755595Y-66522149D01*
X89755595Y-66522149D02*
X89755595Y-67712625D01*
X89755595Y-67712625D02*
X89517500Y-68188815D01*
X89517500Y-68188815D02*
X89041309Y-68426911D01*
X89041309Y-68426911D02*
X88565119Y-68426911D01*
X88565119Y-68426911D02*
X88088928Y-68188815D01*
X88088928Y-68188815D02*
X87850833Y-67712625D01*
X87850833Y-67712625D02*
X87850833Y-66522149D01*
X87850833Y-66522149D02*
X87612738Y-66045958D01*
X86422261Y-63665005D02*
X91422261Y-63665005D01*
X86660357Y-63665005D02*
X86422261Y-63188815D01*
X86422261Y-63188815D02*
X86422261Y-62236434D01*
X86422261Y-62236434D02*
X86660357Y-61760243D01*
X86660357Y-61760243D02*
X86898452Y-61522148D01*
X86898452Y-61522148D02*
X87374642Y-61284053D01*
X87374642Y-61284053D02*
X88803214Y-61284053D01*
X88803214Y-61284053D02*
X89279404Y-61522148D01*
X89279404Y-61522148D02*
X89517500Y-61760243D01*
X89517500Y-61760243D02*
X89755595Y-62236434D01*
X89755595Y-62236434D02*
X89755595Y-63188815D01*
X89755595Y-63188815D02*
X89517500Y-63665005D01*
X89755595Y-55331671D02*
X84755595Y-55331671D01*
X87136547Y-55331671D02*
X87136547Y-52474528D01*
X89755595Y-52474528D02*
X84755595Y-52474528D01*
X89517500Y-48188814D02*
X89755595Y-48665005D01*
X89755595Y-48665005D02*
X89755595Y-49617386D01*
X89755595Y-49617386D02*
X89517500Y-50093576D01*
X89517500Y-50093576D02*
X89041309Y-50331672D01*
X89041309Y-50331672D02*
X87136547Y-50331672D01*
X87136547Y-50331672D02*
X86660357Y-50093576D01*
X86660357Y-50093576D02*
X86422261Y-49617386D01*
X86422261Y-49617386D02*
X86422261Y-48665005D01*
X86422261Y-48665005D02*
X86660357Y-48188814D01*
X86660357Y-48188814D02*
X87136547Y-47950719D01*
X87136547Y-47950719D02*
X87612738Y-47950719D01*
X87612738Y-47950719D02*
X88088928Y-50331672D01*
X89755595Y-45807862D02*
X86422261Y-45807862D01*
X87374642Y-45807862D02*
X86898452Y-45569767D01*
X86898452Y-45569767D02*
X86660357Y-45331672D01*
X86660357Y-45331672D02*
X86422261Y-44855481D01*
X86422261Y-44855481D02*
X86422261Y-44379291D01*
X89517500Y-40807862D02*
X89755595Y-41284053D01*
X89755595Y-41284053D02*
X89755595Y-42236434D01*
X89755595Y-42236434D02*
X89517500Y-42712624D01*
X89517500Y-42712624D02*
X89041309Y-42950720D01*
X89041309Y-42950720D02*
X87136547Y-42950720D01*
X87136547Y-42950720D02*
X86660357Y-42712624D01*
X86660357Y-42712624D02*
X86422261Y-42236434D01*
X86422261Y-42236434D02*
X86422261Y-41284053D01*
X86422261Y-41284053D02*
X86660357Y-40807862D01*
X86660357Y-40807862D02*
X87136547Y-40569767D01*
X87136547Y-40569767D02*
X87612738Y-40569767D01*
X87612738Y-40569767D02*
X88088928Y-42950720D01*
D13*
X107930595Y-50884819D02*
X107930595Y-51694342D01*
X107930595Y-51694342D02*
X107978214Y-51789580D01*
X107978214Y-51789580D02*
X108025833Y-51837200D01*
X108025833Y-51837200D02*
X108121071Y-51884819D01*
X108121071Y-51884819D02*
X108311547Y-51884819D01*
X108311547Y-51884819D02*
X108406785Y-51837200D01*
X108406785Y-51837200D02*
X108454404Y-51789580D01*
X108454404Y-51789580D02*
X108502023Y-51694342D01*
X108502023Y-51694342D02*
X108502023Y-50884819D01*
X109502023Y-51884819D02*
X108930595Y-51884819D01*
X109216309Y-51884819D02*
X109216309Y-50884819D01*
X109216309Y-50884819D02*
X109121071Y-51027676D01*
X109121071Y-51027676D02*
X109025833Y-51122914D01*
X109025833Y-51122914D02*
X108930595Y-51170533D01*
X111785833Y-58124819D02*
X111452500Y-57648628D01*
X111214405Y-58124819D02*
X111214405Y-57124819D01*
X111214405Y-57124819D02*
X111595357Y-57124819D01*
X111595357Y-57124819D02*
X111690595Y-57172438D01*
X111690595Y-57172438D02*
X111738214Y-57220057D01*
X111738214Y-57220057D02*
X111785833Y-57315295D01*
X111785833Y-57315295D02*
X111785833Y-57458152D01*
X111785833Y-57458152D02*
X111738214Y-57553390D01*
X111738214Y-57553390D02*
X111690595Y-57601009D01*
X111690595Y-57601009D02*
X111595357Y-57648628D01*
X111595357Y-57648628D02*
X111214405Y-57648628D01*
X112738214Y-58124819D02*
X112166786Y-58124819D01*
X112452500Y-58124819D02*
X112452500Y-57124819D01*
X112452500Y-57124819D02*
X112357262Y-57267676D01*
X112357262Y-57267676D02*
X112262024Y-57362914D01*
X112262024Y-57362914D02*
X112166786Y-57410533D01*
D14*
X143078572Y-51649757D02*
X142935715Y-51578328D01*
X142935715Y-51578328D02*
X142721429Y-51578328D01*
X142721429Y-51578328D02*
X142507143Y-51649757D01*
X142507143Y-51649757D02*
X142364286Y-51792614D01*
X142364286Y-51792614D02*
X142292857Y-51935471D01*
X142292857Y-51935471D02*
X142221429Y-52221185D01*
X142221429Y-52221185D02*
X142221429Y-52435471D01*
X142221429Y-52435471D02*
X142292857Y-52721185D01*
X142292857Y-52721185D02*
X142364286Y-52864042D01*
X142364286Y-52864042D02*
X142507143Y-53006900D01*
X142507143Y-53006900D02*
X142721429Y-53078328D01*
X142721429Y-53078328D02*
X142864286Y-53078328D01*
X142864286Y-53078328D02*
X143078572Y-53006900D01*
X143078572Y-53006900D02*
X143150000Y-52935471D01*
X143150000Y-52935471D02*
X143150000Y-52435471D01*
X143150000Y-52435471D02*
X142864286Y-52435471D01*
X144007143Y-51578328D02*
X144007143Y-51935471D01*
X143650000Y-51792614D02*
X144007143Y-51935471D01*
X144007143Y-51935471D02*
X144364286Y-51792614D01*
X143792857Y-52221185D02*
X144007143Y-51935471D01*
X144007143Y-51935471D02*
X144221429Y-52221185D01*
X145150000Y-51578328D02*
X145150000Y-51935471D01*
X144792857Y-51792614D02*
X145150000Y-51935471D01*
X145150000Y-51935471D02*
X145507143Y-51792614D01*
X144935714Y-52221185D02*
X145150000Y-51935471D01*
X145150000Y-51935471D02*
X145364286Y-52221185D01*
X146292857Y-51578328D02*
X146292857Y-51935471D01*
X145935714Y-51792614D02*
X146292857Y-51935471D01*
X146292857Y-51935471D02*
X146650000Y-51792614D01*
X146078571Y-52221185D02*
X146292857Y-51935471D01*
X146292857Y-51935471D02*
X146507143Y-52221185D01*
D13*
X111261905Y-52804819D02*
X111261905Y-51804819D01*
X111261905Y-51804819D02*
X111500000Y-51804819D01*
X111500000Y-51804819D02*
X111642857Y-51852438D01*
X111642857Y-51852438D02*
X111738095Y-51947676D01*
X111738095Y-51947676D02*
X111785714Y-52042914D01*
X111785714Y-52042914D02*
X111833333Y-52233390D01*
X111833333Y-52233390D02*
X111833333Y-52376247D01*
X111833333Y-52376247D02*
X111785714Y-52566723D01*
X111785714Y-52566723D02*
X111738095Y-52661961D01*
X111738095Y-52661961D02*
X111642857Y-52757200D01*
X111642857Y-52757200D02*
X111500000Y-52804819D01*
X111500000Y-52804819D02*
X111261905Y-52804819D01*
X112785714Y-52804819D02*
X112214286Y-52804819D01*
X112500000Y-52804819D02*
X112500000Y-51804819D01*
X112500000Y-51804819D02*
X112404762Y-51947676D01*
X112404762Y-51947676D02*
X112309524Y-52042914D01*
X112309524Y-52042914D02*
X112214286Y-52090533D01*
X111833333Y-58199580D02*
X111785714Y-58247200D01*
X111785714Y-58247200D02*
X111642857Y-58294819D01*
X111642857Y-58294819D02*
X111547619Y-58294819D01*
X111547619Y-58294819D02*
X111404762Y-58247200D01*
X111404762Y-58247200D02*
X111309524Y-58151961D01*
X111309524Y-58151961D02*
X111261905Y-58056723D01*
X111261905Y-58056723D02*
X111214286Y-57866247D01*
X111214286Y-57866247D02*
X111214286Y-57723390D01*
X111214286Y-57723390D02*
X111261905Y-57532914D01*
X111261905Y-57532914D02*
X111309524Y-57437676D01*
X111309524Y-57437676D02*
X111404762Y-57342438D01*
X111404762Y-57342438D02*
X111547619Y-57294819D01*
X111547619Y-57294819D02*
X111642857Y-57294819D01*
X111642857Y-57294819D02*
X111785714Y-57342438D01*
X111785714Y-57342438D02*
X111833333Y-57390057D01*
X112785714Y-58294819D02*
X112214286Y-58294819D01*
X112500000Y-58294819D02*
X112500000Y-57294819D01*
X112500000Y-57294819D02*
X112404762Y-57437676D01*
X112404762Y-57437676D02*
X112309524Y-57532914D01*
X112309524Y-57532914D02*
X112214286Y-57580533D01*
%TO.C,U1*%
X110242500Y-56350000D02*
X110242500Y-58960000D01*
X107142500Y-58160000D02*
X107142500Y-58960000D01*
X107142500Y-56350000D02*
X107142500Y-57140000D01*
X107142500Y-58960000D02*
X110242500Y-58960000D01*
X107142500Y-56350000D02*
X110242500Y-56350000D01*
D14*
X107822500Y-58540000D02*
G75*
G02*
X107522500Y-58540000I-150000J0D01*
G01*
X107522500Y-58540000D02*
G75*
G02*
X107822500Y-58540000I150000J0D01*
G01*
D13*
X107142500Y-57140000D02*
G75*
G02*
X107142500Y-58160000I0J-510000D01*
G01*
D15*
%TO.C,R1*%
X112120121Y-56880000D02*
X111784879Y-56880000D01*
X112120121Y-56120000D02*
X111784879Y-56120000D01*
D16*
%TO.C,G\u002A\u002A\u002A*%
G36*
X136368379Y-47480632D02*
G01*
X136318181Y-47530830D01*
X136267983Y-47480632D01*
X136318181Y-47430435D01*
X136368379Y-47480632D01*
G37*
G36*
X139781817Y-49388142D02*
G01*
X139731620Y-49438340D01*
X139681422Y-49388142D01*
X139731620Y-49337944D01*
X139781817Y-49388142D01*
G37*
G36*
X140685375Y-50793676D02*
G01*
X140635177Y-50843873D01*
X140584979Y-50793676D01*
X140635177Y-50743478D01*
X140685375Y-50793676D01*
G37*
G36*
X141086956Y-48484585D02*
G01*
X141036758Y-48534782D01*
X140986560Y-48484585D01*
X141036758Y-48434387D01*
X141086956Y-48484585D01*
G37*
G36*
X141287746Y-48685375D02*
G01*
X141237549Y-48735573D01*
X141187351Y-48685375D01*
X141237549Y-48635178D01*
X141287746Y-48685375D01*
G37*
G36*
X141488537Y-58925691D02*
G01*
X141438339Y-58975889D01*
X141388141Y-58925691D01*
X141438339Y-58875494D01*
X141488537Y-58925691D01*
G37*
G36*
X141789723Y-49388142D02*
G01*
X141739525Y-49438340D01*
X141689327Y-49388142D01*
X141739525Y-49337944D01*
X141789723Y-49388142D01*
G37*
G36*
X141789723Y-59728853D02*
G01*
X141739525Y-59779051D01*
X141689327Y-59728853D01*
X141739525Y-59678656D01*
X141789723Y-59728853D01*
G37*
G36*
X141789723Y-60130435D02*
G01*
X141739525Y-60180632D01*
X141689327Y-60130435D01*
X141739525Y-60080237D01*
X141789723Y-60130435D01*
G37*
G36*
X142090908Y-43264031D02*
G01*
X142040711Y-43314229D01*
X141990513Y-43264031D01*
X142040711Y-43213834D01*
X142090908Y-43264031D01*
G37*
G36*
X142090908Y-60030039D02*
G01*
X142040711Y-60080237D01*
X141990513Y-60030039D01*
X142040711Y-59979842D01*
X142090908Y-60030039D01*
G37*
G36*
X142191304Y-50191304D02*
G01*
X142141106Y-50241502D01*
X142090908Y-50191304D01*
X142141106Y-50141106D01*
X142191304Y-50191304D01*
G37*
G36*
X142191304Y-58423715D02*
G01*
X142141106Y-58473913D01*
X142090908Y-58423715D01*
X142141106Y-58373518D01*
X142191304Y-58423715D01*
G37*
G36*
X142291699Y-43464822D02*
G01*
X142241501Y-43515020D01*
X142191304Y-43464822D01*
X142241501Y-43414624D01*
X142291699Y-43464822D01*
G37*
G36*
X142392094Y-49689328D02*
G01*
X142341896Y-49739525D01*
X142291699Y-49689328D01*
X142341896Y-49639130D01*
X142392094Y-49689328D01*
G37*
G36*
X142392094Y-57821344D02*
G01*
X142341896Y-57871541D01*
X142291699Y-57821344D01*
X142341896Y-57771146D01*
X142392094Y-57821344D01*
G37*
G36*
X142492489Y-50693280D02*
G01*
X142442292Y-50743478D01*
X142392094Y-50693280D01*
X142442292Y-50643083D01*
X142492489Y-50693280D01*
G37*
G36*
X142492489Y-56516205D02*
G01*
X142442292Y-56566403D01*
X142392094Y-56516205D01*
X142442292Y-56466008D01*
X142492489Y-56516205D01*
G37*
G36*
X142592885Y-61335178D02*
G01*
X142542687Y-61385375D01*
X142492489Y-61335178D01*
X142542687Y-61284980D01*
X142592885Y-61335178D01*
G37*
G36*
X142693280Y-46075099D02*
G01*
X142643082Y-46125296D01*
X142592885Y-46075099D01*
X142643082Y-46024901D01*
X142693280Y-46075099D01*
G37*
G36*
X142693280Y-50291699D02*
G01*
X142643082Y-50341897D01*
X142592885Y-50291699D01*
X142643082Y-50241502D01*
X142693280Y-50291699D01*
G37*
G36*
X142693280Y-57319367D02*
G01*
X142643082Y-57369565D01*
X142592885Y-57319367D01*
X142643082Y-57269170D01*
X142693280Y-57319367D01*
G37*
G36*
X142793675Y-40954940D02*
G01*
X142743477Y-41005138D01*
X142693280Y-40954940D01*
X142743477Y-40904743D01*
X142793675Y-40954940D01*
G37*
G36*
X142793675Y-56014229D02*
G01*
X142743477Y-56064427D01*
X142693280Y-56014229D01*
X142743477Y-55964031D01*
X142793675Y-56014229D01*
G37*
G36*
X142793675Y-59427668D02*
G01*
X142743477Y-59477865D01*
X142693280Y-59427668D01*
X142743477Y-59377470D01*
X142793675Y-59427668D01*
G37*
G36*
X142894070Y-55713043D02*
G01*
X142843873Y-55763241D01*
X142793675Y-55713043D01*
X142843873Y-55662846D01*
X142894070Y-55713043D01*
G37*
G36*
X142894070Y-57118577D02*
G01*
X142843873Y-57168774D01*
X142793675Y-57118577D01*
X142843873Y-57068379D01*
X142894070Y-57118577D01*
G37*
G36*
X142994466Y-59226877D02*
G01*
X142944268Y-59277075D01*
X142894070Y-59226877D01*
X142944268Y-59176680D01*
X142994466Y-59226877D01*
G37*
G36*
X143195256Y-59026087D02*
G01*
X143145058Y-59076284D01*
X143094861Y-59026087D01*
X143145058Y-58975889D01*
X143195256Y-59026087D01*
G37*
G36*
X143295651Y-45271937D02*
G01*
X143245454Y-45322134D01*
X143195256Y-45271937D01*
X143245454Y-45221739D01*
X143295651Y-45271937D01*
G37*
G36*
X143295651Y-49187352D02*
G01*
X143245454Y-49237549D01*
X143195256Y-49187352D01*
X143245454Y-49137154D01*
X143295651Y-49187352D01*
G37*
G36*
X143295651Y-61033992D02*
G01*
X143245454Y-61084189D01*
X143195256Y-61033992D01*
X143245454Y-60983794D01*
X143295651Y-61033992D01*
G37*
G36*
X143396047Y-58724901D02*
G01*
X143345849Y-58775099D01*
X143295651Y-58724901D01*
X143345849Y-58674703D01*
X143396047Y-58724901D01*
G37*
G36*
X143496442Y-45071146D02*
G01*
X143446244Y-45121344D01*
X143396047Y-45071146D01*
X143446244Y-45020948D01*
X143496442Y-45071146D01*
G37*
G36*
X143496442Y-55311462D02*
G01*
X143446244Y-55361660D01*
X143396047Y-55311462D01*
X143446244Y-55261265D01*
X143496442Y-55311462D01*
G37*
G36*
X143496442Y-58423715D02*
G01*
X143446244Y-58473913D01*
X143396047Y-58423715D01*
X143446244Y-58373518D01*
X143496442Y-58423715D01*
G37*
G36*
X143596837Y-41657707D02*
G01*
X143546640Y-41707905D01*
X143496442Y-41657707D01*
X143546640Y-41607510D01*
X143596837Y-41657707D01*
G37*
G36*
X143596837Y-48083004D02*
G01*
X143546640Y-48133201D01*
X143496442Y-48083004D01*
X143546640Y-48032806D01*
X143596837Y-48083004D01*
G37*
G36*
X143596837Y-58825296D02*
G01*
X143546640Y-58875494D01*
X143496442Y-58825296D01*
X143546640Y-58775099D01*
X143596837Y-58825296D01*
G37*
G36*
X143697232Y-37943083D02*
G01*
X143647035Y-37993280D01*
X143596837Y-37943083D01*
X143647035Y-37892885D01*
X143697232Y-37943083D01*
G37*
G36*
X143797628Y-45472727D02*
G01*
X143747430Y-45522925D01*
X143697232Y-45472727D01*
X143747430Y-45422529D01*
X143797628Y-45472727D01*
G37*
G36*
X143898023Y-41657707D02*
G01*
X143847825Y-41707905D01*
X143797628Y-41657707D01*
X143847825Y-41607510D01*
X143898023Y-41657707D01*
G37*
G36*
X143898023Y-51797628D02*
G01*
X143847825Y-51847826D01*
X143797628Y-51797628D01*
X143847825Y-51747431D01*
X143898023Y-51797628D01*
G37*
G36*
X143998418Y-45171541D02*
G01*
X143948221Y-45221739D01*
X143898023Y-45171541D01*
X143948221Y-45121344D01*
X143998418Y-45171541D01*
G37*
G36*
X143998418Y-51496442D02*
G01*
X143948221Y-51546640D01*
X143898023Y-51496442D01*
X143948221Y-51446245D01*
X143998418Y-51496442D01*
G37*
G36*
X143998418Y-52901976D02*
G01*
X143948221Y-52952174D01*
X143898023Y-52901976D01*
X143948221Y-52851778D01*
X143998418Y-52901976D01*
G37*
G36*
X143998418Y-53203162D02*
G01*
X143948221Y-53253359D01*
X143898023Y-53203162D01*
X143948221Y-53152964D01*
X143998418Y-53203162D01*
G37*
G36*
X143998418Y-57319367D02*
G01*
X143948221Y-57369565D01*
X143898023Y-57319367D01*
X143948221Y-57269170D01*
X143998418Y-57319367D01*
G37*
G36*
X143998418Y-58222925D02*
G01*
X143948221Y-58273122D01*
X143898023Y-58222925D01*
X143948221Y-58172727D01*
X143998418Y-58222925D01*
G37*
G36*
X144098813Y-52600790D02*
G01*
X144048616Y-52650988D01*
X143998418Y-52600790D01*
X144048616Y-52550593D01*
X144098813Y-52600790D01*
G37*
G36*
X144098813Y-57821344D02*
G01*
X144048616Y-57871541D01*
X143998418Y-57821344D01*
X144048616Y-57771146D01*
X144098813Y-57821344D01*
G37*
G36*
X144199209Y-37541502D02*
G01*
X144149011Y-37591699D01*
X144098813Y-37541502D01*
X144149011Y-37491304D01*
X144199209Y-37541502D01*
G37*
G36*
X144199209Y-40653755D02*
G01*
X144149011Y-40703952D01*
X144098813Y-40653755D01*
X144149011Y-40603557D01*
X144199209Y-40653755D01*
G37*
G36*
X144199209Y-41758103D02*
G01*
X144149011Y-41808300D01*
X144098813Y-41758103D01*
X144149011Y-41707905D01*
X144199209Y-41758103D01*
G37*
G36*
X144199209Y-44870355D02*
G01*
X144149011Y-44920553D01*
X144098813Y-44870355D01*
X144149011Y-44820158D01*
X144199209Y-44870355D01*
G37*
G36*
X144199209Y-57419763D02*
G01*
X144149011Y-57469960D01*
X144098813Y-57419763D01*
X144149011Y-57369565D01*
X144199209Y-57419763D01*
G37*
G36*
X144399999Y-40954940D02*
G01*
X144349802Y-41005138D01*
X144299604Y-40954940D01*
X144349802Y-40904743D01*
X144399999Y-40954940D01*
G37*
G36*
X144399999Y-44569170D02*
G01*
X144349802Y-44619367D01*
X144299604Y-44569170D01*
X144349802Y-44518972D01*
X144399999Y-44569170D01*
G37*
G36*
X144399999Y-46577075D02*
G01*
X144349802Y-46627272D01*
X144299604Y-46577075D01*
X144349802Y-46526877D01*
X144399999Y-46577075D01*
G37*
G36*
X144399999Y-57520158D02*
G01*
X144349802Y-57570355D01*
X144299604Y-57520158D01*
X144349802Y-57469960D01*
X144399999Y-57520158D01*
G37*
G36*
X144500394Y-37441106D02*
G01*
X144450197Y-37491304D01*
X144399999Y-37441106D01*
X144450197Y-37390909D01*
X144500394Y-37441106D01*
G37*
G36*
X144500394Y-37641897D02*
G01*
X144450197Y-37692095D01*
X144399999Y-37641897D01*
X144450197Y-37591699D01*
X144500394Y-37641897D01*
G37*
G36*
X144500394Y-51094861D02*
G01*
X144450197Y-51145059D01*
X144399999Y-51094861D01*
X144450197Y-51044664D01*
X144500394Y-51094861D01*
G37*
G36*
X144600790Y-44267984D02*
G01*
X144550592Y-44318182D01*
X144500394Y-44267984D01*
X144550592Y-44217786D01*
X144600790Y-44267984D01*
G37*
G36*
X144600790Y-57118577D02*
G01*
X144550592Y-57168774D01*
X144500394Y-57118577D01*
X144550592Y-57068379D01*
X144600790Y-57118577D01*
G37*
G36*
X144801580Y-37340711D02*
G01*
X144751383Y-37390909D01*
X144701185Y-37340711D01*
X144751383Y-37290514D01*
X144801580Y-37340711D01*
G37*
G36*
X144801580Y-39147826D02*
G01*
X144751383Y-39198023D01*
X144701185Y-39147826D01*
X144751383Y-39097628D01*
X144801580Y-39147826D01*
G37*
G36*
X144801580Y-55311462D02*
G01*
X144751383Y-55361660D01*
X144701185Y-55311462D01*
X144751383Y-55261265D01*
X144801580Y-55311462D01*
G37*
G36*
X145002371Y-39950988D02*
G01*
X144952173Y-40001186D01*
X144901975Y-39950988D01*
X144952173Y-39900790D01*
X145002371Y-39950988D01*
G37*
G36*
X145002371Y-48584980D02*
G01*
X144952173Y-48635178D01*
X144901975Y-48584980D01*
X144952173Y-48534782D01*
X145002371Y-48584980D01*
G37*
G36*
X145002371Y-48886166D02*
G01*
X144952173Y-48936363D01*
X144901975Y-48886166D01*
X144952173Y-48835968D01*
X145002371Y-48886166D01*
G37*
G36*
X145203161Y-53705138D02*
G01*
X145152964Y-53755336D01*
X145102766Y-53705138D01*
X145152964Y-53654940D01*
X145203161Y-53705138D01*
G37*
G36*
X145303557Y-37742292D02*
G01*
X145253359Y-37792490D01*
X145203161Y-37742292D01*
X145253359Y-37692095D01*
X145303557Y-37742292D01*
G37*
G36*
X145303557Y-53002371D02*
G01*
X145253359Y-53052569D01*
X145203161Y-53002371D01*
X145253359Y-52952174D01*
X145303557Y-53002371D01*
G37*
G36*
X145303557Y-53403952D02*
G01*
X145253359Y-53454150D01*
X145203161Y-53403952D01*
X145253359Y-53353755D01*
X145303557Y-53403952D01*
G37*
G36*
X145303557Y-57319367D02*
G01*
X145253359Y-57369565D01*
X145203161Y-57319367D01*
X145253359Y-57269170D01*
X145303557Y-57319367D01*
G37*
G36*
X145403952Y-38445059D02*
G01*
X145353754Y-38495257D01*
X145303557Y-38445059D01*
X145353754Y-38394861D01*
X145403952Y-38445059D01*
G37*
G36*
X145403952Y-52299604D02*
G01*
X145353754Y-52349802D01*
X145303557Y-52299604D01*
X145353754Y-52249407D01*
X145403952Y-52299604D01*
G37*
G36*
X145403952Y-52701186D02*
G01*
X145353754Y-52751383D01*
X145303557Y-52701186D01*
X145353754Y-52650988D01*
X145403952Y-52701186D01*
G37*
G36*
X145504347Y-53102767D02*
G01*
X145454149Y-53152964D01*
X145403952Y-53102767D01*
X145454149Y-53052569D01*
X145504347Y-53102767D01*
G37*
G36*
X145604742Y-51998419D02*
G01*
X145554545Y-52048616D01*
X145504347Y-51998419D01*
X145554545Y-51948221D01*
X145604742Y-51998419D01*
G37*
G36*
X145705138Y-50894071D02*
G01*
X145654940Y-50944269D01*
X145604742Y-50894071D01*
X145654940Y-50843873D01*
X145705138Y-50894071D01*
G37*
G36*
X145705138Y-60833201D02*
G01*
X145654940Y-60883399D01*
X145604742Y-60833201D01*
X145654940Y-60783004D01*
X145705138Y-60833201D01*
G37*
G36*
X145805533Y-50191304D02*
G01*
X145755335Y-50241502D01*
X145705138Y-50191304D01*
X145755335Y-50141106D01*
X145805533Y-50191304D01*
G37*
G36*
X145905928Y-48886166D02*
G01*
X145855730Y-48936363D01*
X145805533Y-48886166D01*
X145855730Y-48835968D01*
X145905928Y-48886166D01*
G37*
G36*
X145905928Y-49588933D02*
G01*
X145855730Y-49639130D01*
X145805533Y-49588933D01*
X145855730Y-49538735D01*
X145905928Y-49588933D01*
G37*
G36*
X146106719Y-46677470D02*
G01*
X146056521Y-46727668D01*
X146006323Y-46677470D01*
X146056521Y-46627272D01*
X146106719Y-46677470D01*
G37*
G36*
X146207114Y-60732806D02*
G01*
X146156916Y-60783004D01*
X146106719Y-60732806D01*
X146156916Y-60682608D01*
X146207114Y-60732806D01*
G37*
G36*
X146307509Y-61335178D02*
G01*
X146257311Y-61385375D01*
X146207114Y-61335178D01*
X146257311Y-61284980D01*
X146307509Y-61335178D01*
G37*
G36*
X146307509Y-61535968D02*
G01*
X146257311Y-61586166D01*
X146207114Y-61535968D01*
X146257311Y-61485770D01*
X146307509Y-61535968D01*
G37*
G36*
X146407904Y-52901976D02*
G01*
X146357707Y-52952174D01*
X146307509Y-52901976D01*
X146357707Y-52851778D01*
X146407904Y-52901976D01*
G37*
G36*
X146407904Y-53303557D02*
G01*
X146357707Y-53353755D01*
X146307509Y-53303557D01*
X146357707Y-53253359D01*
X146407904Y-53303557D01*
G37*
G36*
X146608695Y-60833201D02*
G01*
X146558497Y-60883399D01*
X146508300Y-60833201D01*
X146558497Y-60783004D01*
X146608695Y-60833201D01*
G37*
G36*
X146709090Y-48685375D02*
G01*
X146658892Y-48735573D01*
X146608695Y-48685375D01*
X146658892Y-48635178D01*
X146709090Y-48685375D01*
G37*
G36*
X146709090Y-49388142D02*
G01*
X146658892Y-49438340D01*
X146608695Y-49388142D01*
X146658892Y-49337944D01*
X146709090Y-49388142D01*
G37*
G36*
X147010276Y-41256126D02*
G01*
X146960078Y-41306324D01*
X146909881Y-41256126D01*
X146960078Y-41205929D01*
X147010276Y-41256126D01*
G37*
G36*
X147010276Y-52299604D02*
G01*
X146960078Y-52349802D01*
X146909881Y-52299604D01*
X146960078Y-52249407D01*
X147010276Y-52299604D01*
G37*
G36*
X147010276Y-60732806D02*
G01*
X146960078Y-60783004D01*
X146909881Y-60732806D01*
X146960078Y-60682608D01*
X147010276Y-60732806D01*
G37*
G36*
X147110671Y-50291699D02*
G01*
X147060474Y-50341897D01*
X147010276Y-50291699D01*
X147060474Y-50241502D01*
X147110671Y-50291699D01*
G37*
G36*
X147110671Y-54709091D02*
G01*
X147060474Y-54759288D01*
X147010276Y-54709091D01*
X147060474Y-54658893D01*
X147110671Y-54709091D01*
G37*
G36*
X147110671Y-55010276D02*
G01*
X147060474Y-55060474D01*
X147010276Y-55010276D01*
X147060474Y-54960079D01*
X147110671Y-55010276D01*
G37*
G36*
X147110671Y-55311462D02*
G01*
X147060474Y-55361660D01*
X147010276Y-55311462D01*
X147060474Y-55261265D01*
X147110671Y-55311462D01*
G37*
G36*
X147110671Y-56014229D02*
G01*
X147060474Y-56064427D01*
X147010276Y-56014229D01*
X147060474Y-55964031D01*
X147110671Y-56014229D01*
G37*
G36*
X147110671Y-56415810D02*
G01*
X147060474Y-56466008D01*
X147010276Y-56415810D01*
X147060474Y-56365612D01*
X147110671Y-56415810D01*
G37*
G36*
X147110671Y-57018182D02*
G01*
X147060474Y-57068379D01*
X147010276Y-57018182D01*
X147060474Y-56967984D01*
X147110671Y-57018182D01*
G37*
G36*
X147311462Y-44468774D02*
G01*
X147261264Y-44518972D01*
X147211066Y-44468774D01*
X147261264Y-44418577D01*
X147311462Y-44468774D01*
G37*
G36*
X147411857Y-45171541D02*
G01*
X147361659Y-45221739D01*
X147311462Y-45171541D01*
X147361659Y-45121344D01*
X147411857Y-45171541D01*
G37*
G36*
X147411857Y-50592885D02*
G01*
X147361659Y-50643083D01*
X147311462Y-50592885D01*
X147361659Y-50542687D01*
X147411857Y-50592885D01*
G37*
G36*
X147411857Y-50894071D02*
G01*
X147361659Y-50944269D01*
X147311462Y-50894071D01*
X147361659Y-50843873D01*
X147411857Y-50894071D01*
G37*
G36*
X147512252Y-46175494D02*
G01*
X147462055Y-46225691D01*
X147411857Y-46175494D01*
X147462055Y-46125296D01*
X147512252Y-46175494D01*
G37*
G36*
X147512252Y-46577075D02*
G01*
X147462055Y-46627272D01*
X147411857Y-46577075D01*
X147462055Y-46526877D01*
X147512252Y-46577075D01*
G37*
G36*
X147512252Y-46878261D02*
G01*
X147462055Y-46928458D01*
X147411857Y-46878261D01*
X147462055Y-46828063D01*
X147512252Y-46878261D01*
G37*
G36*
X148215019Y-53002371D02*
G01*
X148164821Y-53052569D01*
X148114624Y-53002371D01*
X148164821Y-52952174D01*
X148215019Y-53002371D01*
G37*
G36*
X148215019Y-54106719D02*
G01*
X148164821Y-54156917D01*
X148114624Y-54106719D01*
X148164821Y-54056521D01*
X148215019Y-54106719D01*
G37*
G36*
X148215019Y-54909881D02*
G01*
X148164821Y-54960079D01*
X148114624Y-54909881D01*
X148164821Y-54859684D01*
X148215019Y-54909881D01*
G37*
G36*
X148817390Y-56114624D02*
G01*
X148767193Y-56164822D01*
X148716995Y-56114624D01*
X148767193Y-56064427D01*
X148817390Y-56114624D01*
G37*
G36*
X149118576Y-50492490D02*
G01*
X149068379Y-50542687D01*
X149018181Y-50492490D01*
X149068379Y-50442292D01*
X149118576Y-50492490D01*
G37*
G36*
X149218972Y-47982608D02*
G01*
X149168774Y-48032806D01*
X149118576Y-47982608D01*
X149168774Y-47932411D01*
X149218972Y-47982608D01*
G37*
G36*
X149218972Y-52199209D02*
G01*
X149168774Y-52249407D01*
X149118576Y-52199209D01*
X149168774Y-52149012D01*
X149218972Y-52199209D01*
G37*
G36*
X149720948Y-52199209D02*
G01*
X149670750Y-52249407D01*
X149620553Y-52199209D01*
X149670750Y-52149012D01*
X149720948Y-52199209D01*
G37*
G36*
X149720948Y-52600790D02*
G01*
X149670750Y-52650988D01*
X149620553Y-52600790D01*
X149670750Y-52550593D01*
X149720948Y-52600790D01*
G37*
G36*
X149720948Y-54709091D02*
G01*
X149670750Y-54759288D01*
X149620553Y-54709091D01*
X149670750Y-54658893D01*
X149720948Y-54709091D01*
G37*
G36*
X149720948Y-55512253D02*
G01*
X149670750Y-55562450D01*
X149620553Y-55512253D01*
X149670750Y-55462055D01*
X149720948Y-55512253D01*
G37*
G36*
X149921738Y-51898023D02*
G01*
X149871541Y-51948221D01*
X149821343Y-51898023D01*
X149871541Y-51847826D01*
X149921738Y-51898023D01*
G37*
G36*
X149921738Y-54709091D02*
G01*
X149871541Y-54759288D01*
X149821343Y-54709091D01*
X149871541Y-54658893D01*
X149921738Y-54709091D01*
G37*
G36*
X150022134Y-53303557D02*
G01*
X149971936Y-53353755D01*
X149921738Y-53303557D01*
X149971936Y-53253359D01*
X150022134Y-53303557D01*
G37*
G36*
X150524110Y-49588933D02*
G01*
X150473912Y-49639130D01*
X150423715Y-49588933D01*
X150473912Y-49538735D01*
X150524110Y-49588933D01*
G37*
G36*
X150524110Y-49990514D02*
G01*
X150473912Y-50040711D01*
X150423715Y-49990514D01*
X150473912Y-49940316D01*
X150524110Y-49990514D01*
G37*
G36*
X150724900Y-51396047D02*
G01*
X150674703Y-51446245D01*
X150624505Y-51396047D01*
X150674703Y-51345850D01*
X150724900Y-51396047D01*
G37*
G36*
X150724900Y-52600790D02*
G01*
X150674703Y-52650988D01*
X150624505Y-52600790D01*
X150674703Y-52550593D01*
X150724900Y-52600790D01*
G37*
G36*
X151327272Y-47982608D02*
G01*
X151277074Y-48032806D01*
X151226877Y-47982608D01*
X151277074Y-47932411D01*
X151327272Y-47982608D01*
G37*
G36*
X151528062Y-47882213D02*
G01*
X151477865Y-47932411D01*
X151427667Y-47882213D01*
X151477865Y-47832016D01*
X151528062Y-47882213D01*
G37*
G36*
X151728853Y-47781818D02*
G01*
X151678655Y-47832016D01*
X151628458Y-47781818D01*
X151678655Y-47731620D01*
X151728853Y-47781818D01*
G37*
G36*
X152532015Y-47781818D02*
G01*
X152481817Y-47832016D01*
X152431620Y-47781818D01*
X152481817Y-47731620D01*
X152532015Y-47781818D01*
G37*
G36*
X136937285Y-47664690D02*
G01*
X136923504Y-47724375D01*
X136870355Y-47731620D01*
X136787718Y-47694887D01*
X136803425Y-47664690D01*
X136922570Y-47652675D01*
X136937285Y-47664690D01*
G37*
G36*
X140752305Y-47062319D02*
G01*
X140764320Y-47181464D01*
X140752305Y-47196179D01*
X140692620Y-47182398D01*
X140685375Y-47129249D01*
X140722108Y-47046612D01*
X140752305Y-47062319D01*
G37*
G36*
X141112055Y-50375802D02*
G01*
X141124667Y-50412446D01*
X140986560Y-50426440D01*
X140844036Y-50410663D01*
X140861066Y-50375802D01*
X141066610Y-50362542D01*
X141112055Y-50375802D01*
G37*
G36*
X141254281Y-61218050D02*
G01*
X141266296Y-61337195D01*
X141254281Y-61351910D01*
X141194596Y-61338129D01*
X141187351Y-61284980D01*
X141224084Y-61202343D01*
X141254281Y-61218050D01*
G37*
G36*
X141655862Y-51580105D02*
G01*
X141642081Y-51639790D01*
X141588932Y-51647035D01*
X141506295Y-51610302D01*
X141522002Y-51580105D01*
X141641148Y-51568090D01*
X141655862Y-51580105D01*
G37*
G36*
X142258234Y-49873386D02*
G01*
X142270249Y-49992531D01*
X142258234Y-50007246D01*
X142198549Y-49993465D01*
X142191304Y-49940316D01*
X142228037Y-49857679D01*
X142258234Y-49873386D01*
G37*
G36*
X143364233Y-38175247D02*
G01*
X143376201Y-38332152D01*
X143356307Y-38367671D01*
X143310676Y-38337729D01*
X143303577Y-38235902D01*
X143328096Y-38128777D01*
X143364233Y-38175247D01*
G37*
G36*
X143864558Y-47664690D02*
G01*
X143850777Y-47724375D01*
X143797628Y-47731620D01*
X143714991Y-47694887D01*
X143730697Y-47664690D01*
X143849843Y-47652675D01*
X143864558Y-47664690D01*
G37*
G36*
X144065348Y-47263109D02*
G01*
X144051567Y-47322794D01*
X143998418Y-47330039D01*
X143915781Y-47293306D01*
X143931488Y-47263109D01*
X144050634Y-47251094D01*
X144065348Y-47263109D01*
G37*
G36*
X144473204Y-40141321D02*
G01*
X144443262Y-40186951D01*
X144341435Y-40194050D01*
X144234310Y-40169532D01*
X144280780Y-40133395D01*
X144437686Y-40121426D01*
X144473204Y-40141321D01*
G37*
G36*
X144868510Y-37825955D02*
G01*
X144854729Y-37885640D01*
X144801580Y-37892885D01*
X144718944Y-37856152D01*
X144734650Y-37825955D01*
X144853796Y-37813940D01*
X144868510Y-37825955D01*
G37*
G36*
X144868510Y-57202240D02*
G01*
X144854729Y-57261924D01*
X144801580Y-57269170D01*
X144718944Y-57232437D01*
X144734650Y-57202240D01*
X144853796Y-57190224D01*
X144868510Y-57202240D01*
G37*
G36*
X145069301Y-53989591D02*
G01*
X145081316Y-54108737D01*
X145069301Y-54123452D01*
X145009616Y-54109670D01*
X145002371Y-54056521D01*
X145039104Y-53973885D01*
X145069301Y-53989591D01*
G37*
G36*
X145169696Y-56399077D02*
G01*
X145155915Y-56458762D01*
X145102766Y-56466008D01*
X145020129Y-56429275D01*
X145035836Y-56399077D01*
X145154982Y-56387062D01*
X145169696Y-56399077D01*
G37*
G36*
X145772068Y-50475757D02*
G01*
X145758286Y-50535442D01*
X145705138Y-50542687D01*
X145622501Y-50505954D01*
X145638207Y-50475757D01*
X145757353Y-50463742D01*
X145772068Y-50475757D01*
G37*
G36*
X145872463Y-61218050D02*
G01*
X145858682Y-61277735D01*
X145805533Y-61284980D01*
X145722896Y-61248247D01*
X145738603Y-61218050D01*
X145857748Y-61206034D01*
X145872463Y-61218050D01*
G37*
G36*
X146274044Y-61017259D02*
G01*
X146260263Y-61076944D01*
X146207114Y-61084189D01*
X146124477Y-61047456D01*
X146140184Y-61017259D01*
X146259329Y-61005244D01*
X146274044Y-61017259D01*
G37*
G36*
X146575230Y-60515283D02*
G01*
X146561449Y-60574968D01*
X146508300Y-60582213D01*
X146425663Y-60545480D01*
X146441369Y-60515283D01*
X146560515Y-60503268D01*
X146575230Y-60515283D01*
G37*
G36*
X146675625Y-49672595D02*
G01*
X146687640Y-49791741D01*
X146675625Y-49806456D01*
X146615940Y-49792674D01*
X146608695Y-49739525D01*
X146645428Y-49656889D01*
X146675625Y-49672595D01*
G37*
G36*
X146675625Y-49973781D02*
G01*
X146687640Y-50092927D01*
X146675625Y-50107641D01*
X146615940Y-50093860D01*
X146608695Y-50040711D01*
X146645428Y-49958075D01*
X146675625Y-49973781D01*
G37*
G36*
X149789529Y-57049555D02*
G01*
X149801498Y-57206461D01*
X149781603Y-57241979D01*
X149735972Y-57212038D01*
X149728874Y-57110211D01*
X149753392Y-57003085D01*
X149789529Y-57049555D01*
G37*
G36*
X149888273Y-52985639D02*
G01*
X149874492Y-53045324D01*
X149821343Y-53052569D01*
X149738706Y-53015836D01*
X149754413Y-52985639D01*
X149873559Y-52973623D01*
X149888273Y-52985639D01*
G37*
G36*
X150490645Y-49170619D02*
G01*
X150476864Y-49230304D01*
X150423715Y-49237549D01*
X150341078Y-49200816D01*
X150356784Y-49170619D01*
X150475930Y-49158604D01*
X150490645Y-49170619D01*
G37*
G36*
X151996574Y-47965876D02*
G01*
X151982792Y-48025561D01*
X151929643Y-48032806D01*
X151847007Y-47996073D01*
X151862713Y-47965876D01*
X151981859Y-47953861D01*
X151996574Y-47965876D01*
G37*
G36*
X152799736Y-47865481D02*
G01*
X152785954Y-47925165D01*
X152732806Y-47932411D01*
X152650169Y-47895678D01*
X152665875Y-47865481D01*
X152785021Y-47853465D01*
X152799736Y-47865481D01*
G37*
G36*
X139665910Y-49780136D02*
G01*
X139773689Y-49881224D01*
X139751580Y-49939339D01*
X139737545Y-49940316D01*
X139652629Y-49869007D01*
X139621638Y-49824409D01*
X139609805Y-49755709D01*
X139665910Y-49780136D01*
G37*
G36*
X140569468Y-48374603D02*
G01*
X140677246Y-48475690D01*
X140655137Y-48533805D01*
X140641102Y-48534782D01*
X140556186Y-48463474D01*
X140525195Y-48418875D01*
X140513362Y-48350175D01*
X140569468Y-48374603D01*
G37*
G36*
X142405819Y-41428027D02*
G01*
X142429125Y-41479754D01*
X142299746Y-41534099D01*
X142144765Y-41556904D01*
X142163399Y-41494934D01*
X142168057Y-41490203D01*
X142341612Y-41419431D01*
X142405819Y-41428027D01*
G37*
G36*
X144244192Y-56929677D02*
G01*
X144385505Y-57010692D01*
X144361832Y-57063078D01*
X144305529Y-57068379D01*
X144169391Y-56995464D01*
X144149722Y-56969134D01*
X144165881Y-56912084D01*
X144244192Y-56929677D01*
G37*
G36*
X144358383Y-69342228D02*
G01*
X144363628Y-69386437D01*
X144215353Y-69464369D01*
X144060838Y-69470057D01*
X143998418Y-69408112D01*
X144083258Y-69335723D01*
X144215941Y-69316601D01*
X144358383Y-69342228D01*
G37*
G36*
X144535576Y-39841289D02*
G01*
X144510977Y-39895388D01*
X144490685Y-39908915D01*
X144284867Y-39995395D01*
X144164570Y-39925889D01*
X144213675Y-39865484D01*
X144374825Y-39835156D01*
X144535576Y-39841289D01*
G37*
G36*
X144786068Y-61225195D02*
G01*
X144893001Y-61318521D01*
X144901975Y-61341103D01*
X144854330Y-61382366D01*
X144755134Y-61289905D01*
X144741796Y-61269468D01*
X144729963Y-61200768D01*
X144786068Y-61225195D01*
G37*
G36*
X145047354Y-54419796D02*
G01*
X145188667Y-54500811D01*
X145164994Y-54553197D01*
X145108691Y-54558498D01*
X144972553Y-54485583D01*
X144952884Y-54459252D01*
X144969043Y-54402202D01*
X145047354Y-54419796D01*
G37*
G36*
X145131474Y-55434713D02*
G01*
X145152964Y-55462055D01*
X145188300Y-55552351D01*
X145093315Y-55518343D01*
X145002371Y-55462055D01*
X144925189Y-55381460D01*
X144971347Y-55363197D01*
X145131474Y-55434713D01*
G37*
G36*
X147597135Y-42551678D02*
G01*
X147704914Y-42652765D01*
X147682805Y-42710880D01*
X147668770Y-42711857D01*
X147583854Y-42640549D01*
X147552863Y-42595950D01*
X147541030Y-42527250D01*
X147597135Y-42551678D01*
G37*
G36*
X147797926Y-42852863D02*
G01*
X147905705Y-42953951D01*
X147883596Y-43012066D01*
X147869561Y-43013043D01*
X147784645Y-42941735D01*
X147753653Y-42897136D01*
X147741821Y-42828436D01*
X147797926Y-42852863D01*
G37*
G36*
X147998717Y-43154049D02*
G01*
X148106495Y-43255137D01*
X148084386Y-43313252D01*
X148070351Y-43314229D01*
X147985435Y-43242920D01*
X147954444Y-43198322D01*
X147942611Y-43129622D01*
X147998717Y-43154049D01*
G37*
G36*
X151010574Y-47872626D02*
G01*
X151118353Y-47973714D01*
X151096244Y-48031829D01*
X151082209Y-48032806D01*
X150997293Y-47961497D01*
X150966302Y-47916899D01*
X150954469Y-47848199D01*
X151010574Y-47872626D01*
G37*
G36*
X141002826Y-49828496D02*
G01*
X141091908Y-49896086D01*
X141151709Y-50010414D01*
X141049567Y-50019709D01*
X140843308Y-49950815D01*
X140715371Y-49884004D01*
X140770417Y-49829629D01*
X140810869Y-49813246D01*
X141002826Y-49828496D01*
G37*
G36*
X141457039Y-48900818D02*
G01*
X141438339Y-48936363D01*
X141343745Y-49032241D01*
X141326094Y-49036759D01*
X141319244Y-48971909D01*
X141337944Y-48936363D01*
X141432538Y-48840486D01*
X141450189Y-48835968D01*
X141457039Y-48900818D01*
G37*
G36*
X141681592Y-48991150D02*
G01*
X141689327Y-49024909D01*
X141616064Y-49166835D01*
X141588932Y-49187352D01*
X141496272Y-49182762D01*
X141488537Y-49149004D01*
X141561800Y-49007077D01*
X141588932Y-48986561D01*
X141681592Y-48991150D01*
G37*
G36*
X142341774Y-48696562D02*
G01*
X142241501Y-48835968D01*
X142095957Y-48984003D01*
X142024300Y-49036759D01*
X142041901Y-48965160D01*
X142114207Y-48835968D01*
X142246777Y-48679150D01*
X142331409Y-48635178D01*
X142341774Y-48696562D01*
G37*
G36*
X142360596Y-51009119D02*
G01*
X142341896Y-51044664D01*
X142247303Y-51140542D01*
X142229651Y-51145059D01*
X142222801Y-51080209D01*
X142241501Y-51044664D01*
X142336095Y-50948786D01*
X142353746Y-50944269D01*
X142360596Y-51009119D01*
G37*
G36*
X142506884Y-57523022D02*
G01*
X142592885Y-57570355D01*
X142673243Y-57649906D01*
X142643082Y-57667676D01*
X142478095Y-57617688D01*
X142392094Y-57570355D01*
X142311735Y-57490805D01*
X142341896Y-57473035D01*
X142506884Y-57523022D01*
G37*
G36*
X142661782Y-48298447D02*
G01*
X142643082Y-48333992D01*
X142548488Y-48429870D01*
X142530837Y-48434387D01*
X142523987Y-48369537D01*
X142542687Y-48333992D01*
X142637281Y-48238114D01*
X142654932Y-48233597D01*
X142661782Y-48298447D01*
G37*
G36*
X142761646Y-49145211D02*
G01*
X142627560Y-49316837D01*
X142580495Y-49367241D01*
X142367315Y-49588933D01*
X142480639Y-49368635D01*
X142607049Y-49173011D01*
X142693820Y-49086623D01*
X142788142Y-49057552D01*
X142761646Y-49145211D01*
G37*
G36*
X142934987Y-41201247D02*
G01*
X142837554Y-41313306D01*
X142677717Y-41473695D01*
X142607397Y-41482996D01*
X142592885Y-41368231D01*
X142677290Y-41235042D01*
X142802916Y-41174423D01*
X142945552Y-41146005D01*
X142934987Y-41201247D01*
G37*
G36*
X142959955Y-45785221D02*
G01*
X142944268Y-45824110D01*
X142854052Y-45919886D01*
X142837948Y-45924506D01*
X142794826Y-45846831D01*
X142793675Y-45824110D01*
X142870854Y-45727573D01*
X142899995Y-45723715D01*
X142959955Y-45785221D01*
G37*
G36*
X143093710Y-40480442D02*
G01*
X143094861Y-40503162D01*
X143017682Y-40599699D01*
X142988541Y-40603557D01*
X142928581Y-40542051D01*
X142944268Y-40503162D01*
X143034484Y-40407386D01*
X143050588Y-40402767D01*
X143093710Y-40480442D01*
G37*
G36*
X143155792Y-46890766D02*
G01*
X143044663Y-47028853D01*
X142893798Y-47177332D01*
X142812753Y-47229644D01*
X142833139Y-47166941D01*
X142944268Y-47028853D01*
X143095133Y-46880375D01*
X143176179Y-46828063D01*
X143155792Y-46890766D01*
G37*
G36*
X143697232Y-58022134D02*
G01*
X143793008Y-58112350D01*
X143797628Y-58128454D01*
X143719953Y-58171576D01*
X143697232Y-58172727D01*
X143600695Y-58095548D01*
X143596837Y-58066407D01*
X143658343Y-58006447D01*
X143697232Y-58022134D01*
G37*
G36*
X144597872Y-39073631D02*
G01*
X144600790Y-39097628D01*
X144524391Y-39195106D01*
X144500394Y-39198023D01*
X144402917Y-39121625D01*
X144399999Y-39097628D01*
X144476397Y-39000150D01*
X144500394Y-38997233D01*
X144597872Y-39073631D01*
G37*
G36*
X144600790Y-56172882D02*
G01*
X144835260Y-56292690D01*
X144900540Y-56352096D01*
X144837501Y-56365612D01*
X144690141Y-56308220D01*
X144544682Y-56209481D01*
X144421261Y-56105685D01*
X144455007Y-56105506D01*
X144600790Y-56172882D01*
G37*
G36*
X144801580Y-55771301D02*
G01*
X145036051Y-55891109D01*
X145101331Y-55950515D01*
X145038292Y-55964031D01*
X144890932Y-55906639D01*
X144745472Y-55807900D01*
X144622051Y-55704104D01*
X144655798Y-55703925D01*
X144801580Y-55771301D01*
G37*
G36*
X144894813Y-49221639D02*
G01*
X144901975Y-49337944D01*
X144863831Y-49501143D01*
X144810979Y-49538735D01*
X144759337Y-49458783D01*
X144772491Y-49337944D01*
X144830772Y-49175753D01*
X144863487Y-49137154D01*
X144894813Y-49221639D01*
G37*
G36*
X144999895Y-38947576D02*
G01*
X145071971Y-39053071D01*
X145029107Y-39130351D01*
X144907140Y-39106464D01*
X144822721Y-39036893D01*
X144746484Y-38925552D01*
X144831610Y-38896902D01*
X144841895Y-38896838D01*
X144999895Y-38947576D01*
G37*
G36*
X145016765Y-54912746D02*
G01*
X145102766Y-54960079D01*
X145183125Y-55039629D01*
X145152964Y-55057399D01*
X144987976Y-55007412D01*
X144901975Y-54960079D01*
X144821617Y-54880528D01*
X144851778Y-54862758D01*
X145016765Y-54912746D01*
G37*
G36*
X146607544Y-58551588D02*
G01*
X146608695Y-58574308D01*
X146531516Y-58670845D01*
X146502375Y-58674703D01*
X146442415Y-58613197D01*
X146458102Y-58574308D01*
X146548318Y-58478533D01*
X146564422Y-58473913D01*
X146607544Y-58551588D01*
G37*
G36*
X146608695Y-41055336D02*
G01*
X146704470Y-41145552D01*
X146709090Y-41161656D01*
X146631415Y-41204778D01*
X146608695Y-41205929D01*
X146512158Y-41128749D01*
X146508300Y-41099608D01*
X146569805Y-41039649D01*
X146608695Y-41055336D01*
G37*
G36*
X147107754Y-61662564D02*
G01*
X147110671Y-61686561D01*
X147034273Y-61784039D01*
X147010276Y-61786956D01*
X146912798Y-61710558D01*
X146909881Y-61686561D01*
X146986279Y-61589083D01*
X147010276Y-61586166D01*
X147107754Y-61662564D01*
G37*
G36*
X149790555Y-53981411D02*
G01*
X149941624Y-54023949D01*
X149959056Y-54077362D01*
X149904085Y-54145755D01*
X149819394Y-54119804D01*
X149722214Y-54059428D01*
X149645478Y-53990864D01*
X149748729Y-53978682D01*
X149790555Y-53981411D01*
G37*
G36*
X149802420Y-56645013D02*
G01*
X149821343Y-56716996D01*
X149807953Y-56845352D01*
X149739585Y-56818613D01*
X149641693Y-56713177D01*
X149565930Y-56597330D01*
X149650226Y-56566566D01*
X149666792Y-56566403D01*
X149802420Y-56645013D01*
G37*
G36*
X149890240Y-55125324D02*
G01*
X149871541Y-55160869D01*
X149776947Y-55256747D01*
X149759295Y-55261265D01*
X149752446Y-55196414D01*
X149771145Y-55160869D01*
X149865739Y-55064992D01*
X149883391Y-55060474D01*
X149890240Y-55125324D01*
G37*
G36*
X142394692Y-61554208D02*
G01*
X142542687Y-61686561D01*
X142671564Y-61844796D01*
X142653036Y-61869758D01*
X142489882Y-61761448D01*
X142392094Y-61686561D01*
X142252149Y-61554072D01*
X142241239Y-61489224D01*
X142251040Y-61488003D01*
X142394692Y-61554208D01*
G37*
G36*
X142633435Y-44487744D02*
G01*
X142749388Y-44565977D01*
X142883822Y-44680066D01*
X142853714Y-44700301D01*
X142651445Y-44629594D01*
X142617983Y-44616239D01*
X142444957Y-44527512D01*
X142392094Y-44472010D01*
X142460079Y-44419894D01*
X142633435Y-44487744D01*
G37*
G36*
X145690891Y-60105336D02*
G01*
X145687910Y-60438570D01*
X145653866Y-60579095D01*
X145589528Y-60524103D01*
X145581068Y-60506917D01*
X145573481Y-60367976D01*
X145598320Y-60114619D01*
X145611094Y-60030039D01*
X145676644Y-59628458D01*
X145690891Y-60105336D01*
G37*
G36*
X146088106Y-59215374D02*
G01*
X146152479Y-59347281D01*
X146159229Y-59471569D01*
X146122087Y-59683092D01*
X146071415Y-59697984D01*
X146029802Y-59517131D01*
X146025204Y-59466318D01*
X146032984Y-59271870D01*
X146083343Y-59212879D01*
X146088106Y-59215374D01*
G37*
G36*
X145855730Y-40916741D02*
G01*
X146070160Y-41065090D01*
X146207114Y-41134705D01*
X146301254Y-41181383D01*
X146198647Y-41197949D01*
X146197575Y-41198003D01*
X146020924Y-41132603D01*
X145846192Y-40980039D01*
X145719309Y-40827156D01*
X145724536Y-40813055D01*
X145855730Y-40916741D01*
G37*
G36*
X142432608Y-48097087D02*
G01*
X142322920Y-48208498D01*
X142061419Y-48416184D01*
X141821755Y-48521213D01*
X141766098Y-48526153D01*
X141635827Y-48512704D01*
X141681741Y-48477846D01*
X141829447Y-48430529D01*
X142115752Y-48299720D01*
X142386268Y-48112874D01*
X142478062Y-48040127D01*
X142432608Y-48097087D01*
G37*
G36*
X144379324Y-56532660D02*
G01*
X144570829Y-56594037D01*
X144802634Y-56683162D01*
X145003253Y-56772896D01*
X145094400Y-56827942D01*
X145089704Y-56866630D01*
X144944630Y-56837402D01*
X144703663Y-56750706D01*
X144625889Y-56717913D01*
X144410078Y-56611554D01*
X144302369Y-56533866D01*
X144299604Y-56526175D01*
X144379324Y-56532660D01*
G37*
G36*
X144417114Y-37848566D02*
G01*
X144556502Y-37948621D01*
X144685848Y-38056697D01*
X144649598Y-38054058D01*
X144525493Y-37995287D01*
X144248104Y-37939355D01*
X144073715Y-37995287D01*
X143919622Y-38066122D01*
X143936919Y-38034961D01*
X144042705Y-37948621D01*
X144214292Y-37828998D01*
X144299604Y-37792490D01*
X144417114Y-37848566D01*
G37*
G36*
X146183449Y-60067164D02*
G01*
X146207108Y-60277531D01*
X146207114Y-60281027D01*
X146185216Y-60492597D01*
X146132465Y-60582194D01*
X146131599Y-60582213D01*
X146077377Y-60494824D01*
X146052127Y-60284323D01*
X146052079Y-60281027D01*
X146072304Y-60069543D01*
X146126615Y-59979864D01*
X146127594Y-59979842D01*
X146183449Y-60067164D01*
G37*
G36*
X147090973Y-41787275D02*
G01*
X147251534Y-41985110D01*
X147298159Y-42059288D01*
X147422165Y-42277350D01*
X147482971Y-42400160D01*
X147483767Y-42410130D01*
X147410729Y-42342105D01*
X147249995Y-42170068D01*
X147149822Y-42058746D01*
X146992989Y-41856252D01*
X146939799Y-41729504D01*
X146964214Y-41707905D01*
X147090973Y-41787275D01*
G37*
G36*
X149374330Y-69004787D02*
G01*
X149421073Y-69231898D01*
X149435475Y-69366798D01*
X149443085Y-69656027D01*
X149398072Y-69791721D01*
X149319367Y-69818577D01*
X149225669Y-69772836D01*
X149193191Y-69607013D01*
X149203258Y-69366798D01*
X149240622Y-69097321D01*
X149293780Y-68935714D01*
X149319367Y-68915020D01*
X149374330Y-69004787D01*
G37*
G36*
X142261002Y-47777933D02*
G01*
X141923278Y-47984821D01*
X141586894Y-48017195D01*
X141293046Y-47873900D01*
X141228010Y-47806917D01*
X141100718Y-47653859D01*
X141107168Y-47642588D01*
X141245454Y-47756719D01*
X141512781Y-47905793D01*
X141807946Y-47899099D01*
X142177773Y-47735182D01*
X142191304Y-47727360D01*
X142542687Y-47523059D01*
X142261002Y-47777933D01*
G37*
G36*
X144800447Y-49668437D02*
G01*
X144794735Y-49830750D01*
X144747206Y-50087373D01*
X144664716Y-50388981D01*
X144647337Y-50442292D01*
X144562541Y-50686190D01*
X144529576Y-50746621D01*
X144540818Y-50631903D01*
X144555336Y-50542687D01*
X144635606Y-50090098D01*
X144696242Y-49808357D01*
X144743638Y-49669218D01*
X144757487Y-49649758D01*
X144800447Y-49668437D01*
G37*
G36*
X145689285Y-40081073D02*
G01*
X145693492Y-40145308D01*
X145768134Y-40355036D01*
X145923428Y-40571988D01*
X146058571Y-40730235D01*
X146094658Y-40803704D01*
X146091522Y-40804348D01*
X145995644Y-40738769D01*
X145829932Y-40579201D01*
X145813947Y-40562316D01*
X145662716Y-40331625D01*
X145634208Y-40135636D01*
X145672861Y-40010440D01*
X145689285Y-40081073D01*
G37*
G36*
X140286029Y-48707002D02*
G01*
X140408695Y-48760392D01*
X140572839Y-48896895D01*
X140689207Y-49093662D01*
X140737198Y-49288071D01*
X140696212Y-49417500D01*
X140631711Y-49438340D01*
X140553063Y-49355662D01*
X140556379Y-49208424D01*
X140533095Y-48999465D01*
X140343496Y-48841057D01*
X140341818Y-48840157D01*
X140148932Y-48717480D01*
X140134949Y-48667593D01*
X140286029Y-48707002D01*
G37*
G36*
X141588932Y-50788859D02*
G01*
X141542825Y-50900879D01*
X141488537Y-50894071D01*
X141322740Y-50882996D01*
X141264412Y-50908492D01*
X141078114Y-50979376D01*
X140889766Y-50995770D01*
X140788073Y-50951986D01*
X140785770Y-50939194D01*
X140870410Y-50864821D01*
X141011659Y-50818290D01*
X141276964Y-50744901D01*
X141413240Y-50695450D01*
X141556423Y-50682086D01*
X141588932Y-50788859D01*
G37*
G36*
X140852059Y-47578682D02*
G01*
X140929699Y-47803654D01*
X140938192Y-47840346D01*
X140979514Y-48093336D01*
X140934289Y-48178605D01*
X140775934Y-48120061D01*
X140685223Y-48067854D01*
X140562698Y-47981413D01*
X140604205Y-47971969D01*
X140622988Y-47977477D01*
X140748266Y-47992595D01*
X140776378Y-47893824D01*
X140749994Y-47728433D01*
X140732399Y-47523346D01*
X140776356Y-47479337D01*
X140852059Y-47578682D01*
G37*
G36*
X143928058Y-38958700D02*
G01*
X144075476Y-39051698D01*
X144098813Y-39116686D01*
X144040907Y-39155703D01*
X143945794Y-39095615D01*
X143790803Y-39021576D01*
X143722813Y-39038583D01*
X143732230Y-39140750D01*
X143800535Y-39201945D01*
X143878541Y-39278865D01*
X143847825Y-39295344D01*
X143681929Y-39246097D01*
X143597676Y-39200667D01*
X143504938Y-39088838D01*
X143562471Y-38991441D01*
X143725414Y-38931225D01*
X143928058Y-38958700D01*
G37*
G36*
X139092309Y-69008524D02*
G01*
X139098837Y-69285372D01*
X139094842Y-69331437D01*
X139079237Y-69591370D01*
X139114504Y-69699565D01*
X139223207Y-69703069D01*
X139267881Y-69692220D01*
X139434225Y-69683149D01*
X139480632Y-69727581D01*
X139392805Y-69789473D01*
X139178832Y-69818307D01*
X139153624Y-69818577D01*
X138953680Y-69809191D01*
X138863607Y-69744784D01*
X138848372Y-69570982D01*
X138862547Y-69366798D01*
X138908649Y-69086813D01*
X138982998Y-68930557D01*
X139016516Y-68915020D01*
X139092309Y-69008524D01*
G37*
G36*
X140089694Y-69152903D02*
G01*
X140219160Y-69442095D01*
X140306391Y-69691605D01*
X140297892Y-69802884D01*
X140247854Y-69818577D01*
X140122780Y-69735558D01*
X140004852Y-69542490D01*
X139933869Y-69395527D01*
X139915990Y-69403757D01*
X139918242Y-69416099D01*
X139879649Y-69598789D01*
X139748748Y-69765097D01*
X139627654Y-69818577D01*
X139602415Y-69742872D01*
X139630752Y-69642885D01*
X139717872Y-69417758D01*
X139804559Y-69183500D01*
X139890387Y-69009639D01*
X139979311Y-68995623D01*
X140089694Y-69152903D01*
G37*
G36*
X143636425Y-61167418D02*
G01*
X143620398Y-61287290D01*
X143572364Y-61318960D01*
X143506790Y-61389242D01*
X143596837Y-61487598D01*
X143692090Y-61572459D01*
X143618027Y-61563686D01*
X143581554Y-61552356D01*
X143392788Y-61540951D01*
X143346817Y-61642011D01*
X143409211Y-61752620D01*
X143480096Y-61865810D01*
X143470830Y-61887352D01*
X143373126Y-61820022D01*
X143321361Y-61761857D01*
X143291825Y-61583849D01*
X143398228Y-61351685D01*
X143531082Y-61188027D01*
X143627616Y-61157350D01*
X143636425Y-61167418D01*
G37*
G36*
X146524577Y-68988990D02*
G01*
X146644420Y-69125614D01*
X146791927Y-69336209D01*
X146909235Y-69117016D01*
X147014252Y-68969678D01*
X147076629Y-68947908D01*
X147063145Y-69056793D01*
X146961294Y-69250419D01*
X146957062Y-69256917D01*
X146853535Y-69487108D01*
X146845494Y-69667209D01*
X146830749Y-69797286D01*
X146756137Y-69818577D01*
X146637699Y-69732629D01*
X146608695Y-69589927D01*
X146551135Y-69330833D01*
X146452409Y-69138149D01*
X146370931Y-68978131D01*
X146396519Y-68915020D01*
X146524577Y-68988990D01*
G37*
G36*
X148723686Y-69152903D02*
G01*
X148853152Y-69442095D01*
X148940383Y-69691605D01*
X148931884Y-69802884D01*
X148881846Y-69818577D01*
X148756772Y-69735558D01*
X148638844Y-69542490D01*
X148567861Y-69395527D01*
X148549982Y-69403757D01*
X148552234Y-69416099D01*
X148513641Y-69598789D01*
X148382740Y-69765097D01*
X148261647Y-69818577D01*
X148236407Y-69742872D01*
X148264744Y-69642885D01*
X148351864Y-69417758D01*
X148438551Y-69183500D01*
X148524379Y-69009639D01*
X148613303Y-68995623D01*
X148723686Y-69152903D01*
G37*
G36*
X141972177Y-68937607D02*
G01*
X142135748Y-69009510D01*
X142145256Y-69022129D01*
X142127942Y-69097512D01*
X142025687Y-69097426D01*
X141902069Y-69110949D01*
X141848927Y-69240520D01*
X141839920Y-69442160D01*
X141809059Y-69710209D01*
X141723837Y-69817940D01*
X141714426Y-69818643D01*
X141625663Y-69725016D01*
X141589370Y-69461705D01*
X141588932Y-69420147D01*
X141575042Y-69167169D01*
X141519521Y-69072323D01*
X141421870Y-69085824D01*
X141308550Y-69099971D01*
X141327400Y-69032476D01*
X141474315Y-68950275D01*
X141720470Y-68918257D01*
X141972177Y-68937607D01*
G37*
G36*
X141037241Y-68937286D02*
G01*
X141177111Y-68992910D01*
X141187351Y-69015415D01*
X141111563Y-69092394D01*
X141061857Y-69090711D01*
X140970104Y-69162068D01*
X140936482Y-69419904D01*
X140936363Y-69442160D01*
X140905502Y-69710209D01*
X140820280Y-69817940D01*
X140810869Y-69818643D01*
X140722105Y-69725016D01*
X140685812Y-69461705D01*
X140685375Y-69420147D01*
X140669206Y-69164293D01*
X140609666Y-69069997D01*
X140534782Y-69079504D01*
X140405846Y-69075087D01*
X140384189Y-69026156D01*
X140473994Y-68955011D01*
X140702386Y-68917280D01*
X140785770Y-68915020D01*
X141037241Y-68937286D01*
G37*
G36*
X144996740Y-38180713D02*
G01*
X145131428Y-38397366D01*
X145255210Y-38682070D01*
X145337235Y-38971720D01*
X145349146Y-39050687D01*
X145419816Y-39281408D01*
X145549973Y-39528339D01*
X145653701Y-39712162D01*
X145669976Y-39799296D01*
X145665011Y-39800395D01*
X145577167Y-39723133D01*
X145438946Y-39531682D01*
X145402851Y-39474110D01*
X145270983Y-39214831D01*
X145205201Y-39001279D01*
X145203537Y-38976858D01*
X145157004Y-38737607D01*
X145046120Y-38456703D01*
X144912730Y-38230629D01*
X144853821Y-38170509D01*
X144823437Y-38105262D01*
X144881999Y-38095213D01*
X144996740Y-38180713D01*
G37*
G36*
X137139094Y-66531942D02*
G01*
X137215519Y-66558507D01*
X137196640Y-66572023D01*
X137117804Y-66706955D01*
X137071772Y-67026045D01*
X137061138Y-67291963D01*
X137039767Y-67803010D01*
X136985247Y-68156939D01*
X136884881Y-68396379D01*
X136725971Y-68563958D01*
X136670677Y-68602876D01*
X136424681Y-68764427D01*
X136597320Y-68516199D01*
X136681707Y-68302697D01*
X136740901Y-67976359D01*
X136773573Y-67592003D01*
X136778392Y-67204448D01*
X136754030Y-66868514D01*
X136699157Y-66639021D01*
X136644466Y-66572023D01*
X136651717Y-66541167D01*
X136817934Y-66523228D01*
X136920553Y-66521385D01*
X137139094Y-66531942D01*
G37*
G36*
X138198653Y-68949562D02*
G01*
X138275889Y-69026156D01*
X138202860Y-69093286D01*
X138125296Y-69079504D01*
X137995776Y-69094930D01*
X137974703Y-69169159D01*
X138029919Y-69300727D01*
X138075098Y-69316601D01*
X138171635Y-69393780D01*
X138175493Y-69422921D01*
X138113987Y-69482880D01*
X138075098Y-69467193D01*
X137996078Y-69497933D01*
X137974703Y-69611861D01*
X137923667Y-69777859D01*
X137849209Y-69818257D01*
X137761590Y-69722432D01*
X137722664Y-69444842D01*
X137721056Y-69366478D01*
X137728728Y-69088562D01*
X137778231Y-68956943D01*
X137902778Y-68917314D01*
X137997143Y-68915020D01*
X138198653Y-68949562D01*
G37*
G36*
X150096723Y-69232116D02*
G01*
X150450818Y-69567589D01*
X150389578Y-69241304D01*
X150372999Y-69015108D01*
X150419750Y-68915671D01*
X150426224Y-68915020D01*
X150484602Y-69004757D01*
X150519619Y-69231800D01*
X150524110Y-69366798D01*
X150510237Y-69636299D01*
X150475141Y-69797901D01*
X150454307Y-69818577D01*
X150343305Y-69755959D01*
X150152602Y-69599959D01*
X150089708Y-69542490D01*
X149794911Y-69266403D01*
X149844403Y-69542490D01*
X149847194Y-69752047D01*
X149781599Y-69818577D01*
X149713104Y-69724827D01*
X149699777Y-69456459D01*
X149705965Y-69357610D01*
X149742628Y-68896644D01*
X150096723Y-69232116D01*
G37*
G36*
X148006053Y-68958956D02*
G01*
X148074970Y-69032476D01*
X148080044Y-69108764D01*
X147990315Y-69089591D01*
X147811232Y-69064545D01*
X147774000Y-69148692D01*
X147890880Y-69297852D01*
X147924981Y-69325009D01*
X148082498Y-69517737D01*
X148083248Y-69655137D01*
X147943425Y-69785119D01*
X147731441Y-69817473D01*
X147579182Y-69751647D01*
X147507281Y-69619766D01*
X147565313Y-69568915D01*
X147665271Y-69619800D01*
X147824444Y-69707461D01*
X147882804Y-69659875D01*
X147827475Y-69522306D01*
X147725733Y-69407271D01*
X147580016Y-69234611D01*
X147588096Y-69101303D01*
X147619838Y-69056948D01*
X147815043Y-68927561D01*
X148006053Y-68958956D01*
G37*
G36*
X151398914Y-68936893D02*
G01*
X151515414Y-69013652D01*
X151528062Y-69077905D01*
X151505370Y-69184883D01*
X151404229Y-69137161D01*
X151364745Y-69105250D01*
X151265074Y-69041215D01*
X151226429Y-69096746D01*
X151233936Y-69306825D01*
X151241904Y-69394143D01*
X151252187Y-69670382D01*
X151204959Y-69796043D01*
X151126481Y-69818577D01*
X151027172Y-69772444D01*
X150997655Y-69604253D01*
X151008968Y-69416066D01*
X151021133Y-69162194D01*
X150981664Y-69063974D01*
X150886127Y-69075424D01*
X150750816Y-69076453D01*
X150724900Y-69026156D01*
X150814705Y-68955011D01*
X151043098Y-68917280D01*
X151126481Y-68915020D01*
X151398914Y-68936893D01*
G37*
G36*
X152036855Y-68982551D02*
G01*
X152049401Y-68994619D01*
X152106644Y-69090488D01*
X151984188Y-69115809D01*
X151982420Y-69115810D01*
X151862128Y-69127694D01*
X151873667Y-69194876D01*
X151999760Y-69341699D01*
X152147114Y-69576077D01*
X152119289Y-69742304D01*
X151922662Y-69816747D01*
X151871080Y-69818577D01*
X151677203Y-69766180D01*
X151636384Y-69642885D01*
X151662095Y-69547748D01*
X151694948Y-69592687D01*
X151801971Y-69693258D01*
X151946433Y-69714019D01*
X152029000Y-69643900D01*
X152030039Y-69630032D01*
X151955642Y-69514110D01*
X151804149Y-69388016D01*
X151651246Y-69265523D01*
X151656593Y-69163723D01*
X151753235Y-69053789D01*
X151910976Y-68937267D01*
X152036855Y-68982551D01*
G37*
G36*
X147568592Y-64481859D02*
G01*
X147695945Y-64596266D01*
X147696539Y-64598023D01*
X147712099Y-64695037D01*
X147625168Y-64648354D01*
X147580080Y-64611911D01*
X147329985Y-64516369D01*
X147072539Y-64577283D01*
X146883601Y-64768375D01*
X146846428Y-64866079D01*
X146843997Y-65167506D01*
X146966155Y-65413830D01*
X147170061Y-65562485D01*
X147412876Y-65570906D01*
X147510543Y-65525947D01*
X147718392Y-65416551D01*
X147787874Y-65428215D01*
X147713043Y-65551778D01*
X147492518Y-65677998D01*
X147196853Y-65686189D01*
X146909860Y-65581009D01*
X146809485Y-65501581D01*
X146639211Y-65215425D01*
X146632652Y-64912306D01*
X146764814Y-64643861D01*
X147010704Y-64461726D01*
X147334748Y-64416412D01*
X147568592Y-64481859D01*
G37*
G36*
X137343363Y-69087201D02*
G01*
X137372331Y-69115810D01*
X137540761Y-69326429D01*
X137543805Y-69495871D01*
X137415358Y-69660813D01*
X137156317Y-69808119D01*
X136888854Y-69790490D01*
X136679110Y-69616953D01*
X136645924Y-69555795D01*
X136587245Y-69369885D01*
X136802287Y-69369885D01*
X136818628Y-69512573D01*
X136945617Y-69673739D01*
X137129467Y-69711177D01*
X137283781Y-69615179D01*
X137308242Y-69567589D01*
X137327496Y-69337765D01*
X137233898Y-69158300D01*
X137076713Y-69074149D01*
X136905209Y-69130266D01*
X136869401Y-69167157D01*
X136802287Y-69369885D01*
X136587245Y-69369885D01*
X136580982Y-69350041D01*
X136648413Y-69203253D01*
X136759593Y-69104016D01*
X136986167Y-68949468D01*
X137154539Y-68943358D01*
X137343363Y-69087201D01*
G37*
G36*
X142764785Y-68958463D02*
G01*
X142848023Y-69022129D01*
X142831908Y-69097900D01*
X142738869Y-69097426D01*
X142569081Y-69129908D01*
X142519637Y-69191106D01*
X142559390Y-69298689D01*
X142634716Y-69316601D01*
X142773603Y-69368312D01*
X142793675Y-69416996D01*
X142727677Y-69495329D01*
X142703319Y-69492292D01*
X142627567Y-69539460D01*
X142628023Y-69567589D01*
X142721316Y-69652085D01*
X142768576Y-69654040D01*
X142884656Y-69696561D01*
X142894070Y-69729337D01*
X142807396Y-69794014D01*
X142617983Y-69818257D01*
X142447837Y-69802310D01*
X142366826Y-69718786D01*
X142341442Y-69513375D01*
X142339238Y-69366478D01*
X142349200Y-69086514D01*
X142400605Y-68953930D01*
X142519177Y-68915931D01*
X142559203Y-68915020D01*
X142764785Y-68958463D01*
G37*
G36*
X146017950Y-69069380D02*
G01*
X146147262Y-69305653D01*
X146175436Y-69366216D01*
X146276323Y-69641600D01*
X146284830Y-69798349D01*
X146210726Y-69812696D01*
X146063778Y-69660872D01*
X146057720Y-69652646D01*
X145924742Y-69562986D01*
X145791350Y-69572440D01*
X145736434Y-69661831D01*
X145759623Y-69725119D01*
X145733767Y-69806031D01*
X145665988Y-69818577D01*
X145578161Y-69797008D01*
X145574745Y-69698937D01*
X145656191Y-69474310D01*
X145669376Y-69442095D01*
X145710902Y-69350066D01*
X145838998Y-69350066D01*
X145852779Y-69409750D01*
X145905928Y-69416996D01*
X145988565Y-69380263D01*
X145972858Y-69350066D01*
X145853713Y-69338050D01*
X145838998Y-69350066D01*
X145710902Y-69350066D01*
X145808787Y-69133135D01*
X145915052Y-69010386D01*
X146017950Y-69069380D01*
G37*
G36*
X142064828Y-64519312D02*
G01*
X142090908Y-64547826D01*
X142148422Y-64669541D01*
X142079164Y-64692181D01*
X141937130Y-64604076D01*
X141917547Y-64585295D01*
X141719001Y-64508419D01*
X141483317Y-64564224D01*
X141290078Y-64722010D01*
X141228010Y-64851272D01*
X141230576Y-65107902D01*
X141338125Y-65345764D01*
X141509555Y-65527334D01*
X141703765Y-65615086D01*
X141879653Y-65571497D01*
X141940315Y-65501581D01*
X142056255Y-65404482D01*
X142136980Y-65445274D01*
X142127214Y-65551778D01*
X141987450Y-65669438D01*
X141740816Y-65702717D01*
X141460774Y-65655540D01*
X141220783Y-65531830D01*
X141187351Y-65501581D01*
X141035574Y-65264043D01*
X140986560Y-65053713D01*
X141067701Y-64777235D01*
X141273112Y-64559439D01*
X141545780Y-64426441D01*
X141828690Y-64404359D01*
X142064828Y-64519312D01*
G37*
G36*
X151034502Y-64559137D02*
G01*
X151108981Y-64629593D01*
X151290449Y-64890353D01*
X151296755Y-65136952D01*
X151128610Y-65425794D01*
X151119195Y-65437844D01*
X150840286Y-65651433D01*
X150512204Y-65695693D01*
X150197230Y-65566641D01*
X150122529Y-65501581D01*
X149948121Y-65230068D01*
X149961641Y-64995241D01*
X150177090Y-64995241D01*
X150244157Y-65316443D01*
X150347899Y-65476482D01*
X150548802Y-65594204D01*
X150783016Y-65547647D01*
X150976241Y-65364539D01*
X151071437Y-65093402D01*
X151030828Y-64840733D01*
X150891968Y-64643574D01*
X150692413Y-64538966D01*
X150469717Y-64563948D01*
X150302128Y-64699658D01*
X150177090Y-64995241D01*
X149961641Y-64995241D01*
X149964813Y-64940157D01*
X150129816Y-64661760D01*
X150407773Y-64444195D01*
X150725009Y-64409472D01*
X151034502Y-64559137D01*
G37*
G36*
X137412778Y-64406571D02*
G01*
X137597234Y-64442721D01*
X137667597Y-64517892D01*
X137673517Y-64567905D01*
X137646332Y-64678655D01*
X137553043Y-64618103D01*
X137375091Y-64511027D01*
X137302055Y-64497628D01*
X137224603Y-64585499D01*
X137179488Y-64804161D01*
X137167007Y-65086186D01*
X137187457Y-65364147D01*
X137241136Y-65570616D01*
X137297035Y-65635881D01*
X137309618Y-65675064D01*
X137171541Y-65694628D01*
X137033304Y-65688475D01*
X136961845Y-65627597D01*
X136940211Y-65465555D01*
X136951452Y-65155905D01*
X136954569Y-65100183D01*
X136951260Y-64711014D01*
X136884852Y-64509772D01*
X136752643Y-64492895D01*
X136589248Y-64618103D01*
X136491883Y-64676957D01*
X136468774Y-64567905D01*
X136501730Y-64471109D01*
X136629321Y-64418846D01*
X136894629Y-64398910D01*
X137071145Y-64397233D01*
X137412778Y-64406571D01*
G37*
G36*
X143636515Y-45720217D02*
G01*
X143531735Y-45861740D01*
X143316486Y-46106048D01*
X142977906Y-46469539D01*
X142797450Y-46659988D01*
X142331824Y-47111410D01*
X141951858Y-47397347D01*
X141662104Y-47515287D01*
X141467112Y-47462721D01*
X141428752Y-47414923D01*
X141416578Y-47346511D01*
X141477423Y-47373368D01*
X141645635Y-47380109D01*
X141743923Y-47326389D01*
X141863953Y-47264490D01*
X141893311Y-47292648D01*
X141944755Y-47292882D01*
X142043904Y-47185357D01*
X142153262Y-47071566D01*
X142191304Y-47083428D01*
X142254235Y-47058535D01*
X142422623Y-46913428D01*
X142665856Y-46675554D01*
X142793675Y-46543349D01*
X143064870Y-46249454D01*
X143272704Y-46007287D01*
X143385045Y-45855019D01*
X143396047Y-45827758D01*
X143476536Y-45726775D01*
X143566109Y-45679938D01*
X143643686Y-45665083D01*
X143636515Y-45720217D01*
G37*
G36*
X145088524Y-68972634D02*
G01*
X145331254Y-69112851D01*
X145484277Y-69286728D01*
X145504347Y-69365320D01*
X145414751Y-69586136D01*
X145188999Y-69753219D01*
X144894804Y-69818577D01*
X144713963Y-69804848D01*
X144628306Y-69727367D01*
X144602404Y-69531695D01*
X144601339Y-69422921D01*
X144801580Y-69422921D01*
X144834556Y-69640715D01*
X144956394Y-69715787D01*
X145002371Y-69718182D01*
X145165787Y-69700518D01*
X145203161Y-69676195D01*
X145234234Y-69557644D01*
X145259133Y-69488349D01*
X145242488Y-69324839D01*
X145128400Y-69158724D01*
X144979764Y-69061941D01*
X144893882Y-69070615D01*
X144827468Y-69202387D01*
X144801580Y-69422921D01*
X144601339Y-69422921D01*
X144600790Y-69366798D01*
X144612208Y-69086975D01*
X144664360Y-68954421D01*
X144784089Y-68916095D01*
X144829439Y-68915020D01*
X145088524Y-68972634D01*
G37*
G36*
X145597678Y-48951202D02*
G01*
X145581407Y-49229145D01*
X145529481Y-49667467D01*
X145447980Y-50230139D01*
X145342981Y-50881134D01*
X145220564Y-51584425D01*
X145086807Y-52303984D01*
X144947789Y-53003784D01*
X144809590Y-53647797D01*
X144792434Y-53723643D01*
X144453245Y-55061984D01*
X144079983Y-56253900D01*
X143677617Y-57287273D01*
X143251120Y-58149983D01*
X142805461Y-58829910D01*
X142596953Y-59076284D01*
X142176889Y-59528063D01*
X142617293Y-58875494D01*
X143015215Y-58231707D01*
X143380079Y-57522021D01*
X143717519Y-56728269D01*
X144033170Y-55832282D01*
X144332664Y-54815892D01*
X144621636Y-53660930D01*
X144905718Y-52349230D01*
X145190544Y-50862622D01*
X145310075Y-50191304D01*
X145402432Y-49685055D01*
X145482826Y-49287300D01*
X145545783Y-49021642D01*
X145585827Y-48911690D01*
X145597678Y-48951202D01*
G37*
G36*
X143542997Y-68984185D02*
G01*
X143677539Y-69160155D01*
X143680792Y-69287351D01*
X143713915Y-69526291D01*
X143784828Y-69652561D01*
X143852319Y-69782681D01*
X143791107Y-69814423D01*
X143649353Y-69744467D01*
X143560982Y-69667984D01*
X143410278Y-69545736D01*
X143342279Y-69517391D01*
X143312183Y-69592132D01*
X143331957Y-69667984D01*
X143316531Y-69797504D01*
X143242303Y-69818577D01*
X143144404Y-69755794D01*
X143100188Y-69545592D01*
X143094861Y-69366798D01*
X143101437Y-69244127D01*
X143321970Y-69244127D01*
X143340443Y-69307853D01*
X143439749Y-69410895D01*
X143489872Y-69319342D01*
X143496442Y-69196126D01*
X143471845Y-69050474D01*
X143387046Y-69084669D01*
X143384715Y-69086983D01*
X143321970Y-69244127D01*
X143101437Y-69244127D01*
X143110228Y-69080145D01*
X143168527Y-68945880D01*
X143270553Y-68916557D01*
X143542997Y-68984185D01*
G37*
G36*
X152165747Y-64413132D02*
G01*
X152302050Y-64472214D01*
X152331224Y-64567905D01*
X152304040Y-64678655D01*
X152210750Y-64618103D01*
X152014503Y-64501744D01*
X151874733Y-64566145D01*
X151829248Y-64760326D01*
X151857725Y-64947289D01*
X151971722Y-64982906D01*
X152030039Y-64970515D01*
X152197837Y-64979047D01*
X152230829Y-65065966D01*
X152172577Y-65166267D01*
X152017046Y-65146074D01*
X151872839Y-65121171D01*
X151830708Y-65208211D01*
X151849065Y-65390296D01*
X151861455Y-65607595D01*
X151784733Y-65691187D01*
X151657735Y-65702371D01*
X151492761Y-65679011D01*
X151491554Y-65575111D01*
X151524530Y-65508181D01*
X151606252Y-65254035D01*
X151628458Y-65049802D01*
X151588550Y-64767493D01*
X151524530Y-64591423D01*
X151479025Y-64472821D01*
X151537073Y-64415806D01*
X151738796Y-64398205D01*
X151875914Y-64397233D01*
X152165747Y-64413132D01*
G37*
G36*
X140069598Y-64422186D02*
G01*
X140175842Y-64508418D01*
X140183398Y-64560119D01*
X140158303Y-64666837D01*
X140051535Y-64613224D01*
X140028551Y-64594492D01*
X139849748Y-64533785D01*
X139721892Y-64623506D01*
X139706117Y-64813553D01*
X139717794Y-64849186D01*
X139844691Y-64965180D01*
X139982113Y-64949564D01*
X140148300Y-64943569D01*
X140183398Y-65029115D01*
X140115334Y-65128563D01*
X139921253Y-65122439D01*
X139737639Y-65105750D01*
X139701587Y-65190339D01*
X139732935Y-65312052D01*
X139817919Y-65539963D01*
X139912259Y-65603079D01*
X140071172Y-65532085D01*
X140098493Y-65515206D01*
X140246751Y-65437271D01*
X140272507Y-65481384D01*
X140261816Y-65519007D01*
X140142651Y-65610855D01*
X139901004Y-65673595D01*
X139824212Y-65681819D01*
X139430434Y-65711464D01*
X139430434Y-65054348D01*
X139430434Y-64397233D01*
X139806916Y-64397233D01*
X140069598Y-64422186D01*
G37*
G36*
X144736921Y-66500035D02*
G01*
X144930418Y-66622156D01*
X145002371Y-66754037D01*
X144950199Y-66891201D01*
X144841337Y-66873055D01*
X144765275Y-66756521D01*
X144626798Y-66638768D01*
X144390381Y-66611664D01*
X144135554Y-66671935D01*
X143963781Y-66789525D01*
X143815606Y-67089566D01*
X143819283Y-67442540D01*
X143969094Y-67776927D01*
X144050287Y-67871668D01*
X144335435Y-68048681D01*
X144620556Y-68029565D01*
X144873298Y-67821161D01*
X144969401Y-67714941D01*
X144997648Y-67774202D01*
X144999178Y-67815691D01*
X144924347Y-68048326D01*
X144721008Y-68182900D01*
X144438141Y-68215238D01*
X144124729Y-68141164D01*
X143829752Y-67956503D01*
X143789905Y-67918790D01*
X143602409Y-67681716D01*
X143501847Y-67458001D01*
X143496442Y-67411828D01*
X143582709Y-67027503D01*
X143810138Y-66716034D01*
X144131669Y-66512010D01*
X144500243Y-66450021D01*
X144736921Y-66500035D01*
G37*
G36*
X145094619Y-64441714D02*
G01*
X145128220Y-64603607D01*
X145118246Y-64874110D01*
X145029508Y-65316762D01*
X144846904Y-65595974D01*
X144577315Y-65701705D01*
X144550592Y-65702371D01*
X144308835Y-65629984D01*
X144174913Y-65526680D01*
X144073310Y-65322800D01*
X143999221Y-65014060D01*
X143982938Y-64874110D01*
X143969023Y-64586610D01*
X144000117Y-64446312D01*
X144099349Y-64400823D01*
X144193465Y-64397233D01*
X144356644Y-64417060D01*
X144344511Y-64491081D01*
X144319683Y-64517707D01*
X144218902Y-64727306D01*
X144210350Y-65007058D01*
X144277819Y-65290285D01*
X144405103Y-65510312D01*
X144575993Y-65600462D01*
X144582862Y-65600439D01*
X144778908Y-65526797D01*
X144877954Y-65305209D01*
X144887839Y-64917947D01*
X144887420Y-64911805D01*
X144878183Y-64598624D01*
X144912885Y-64441125D01*
X145000994Y-64397181D01*
X145003094Y-64397171D01*
X145094619Y-64441714D01*
G37*
G36*
X139575286Y-66504237D02*
G01*
X139668660Y-66683171D01*
X139669776Y-66742164D01*
X139654351Y-66878712D01*
X139623833Y-66822833D01*
X139611087Y-66775751D01*
X139489371Y-66634083D01*
X139354509Y-66625158D01*
X139152039Y-66705706D01*
X139133434Y-66861521D01*
X139298902Y-67094358D01*
X139424637Y-67216722D01*
X139636446Y-67442626D01*
X139764494Y-67643167D01*
X139781817Y-67710848D01*
X139693987Y-67956230D01*
X139471032Y-68127594D01*
X139173756Y-68194834D01*
X138903359Y-68145763D01*
X138801399Y-68016115D01*
X138777865Y-67883770D01*
X138777865Y-67672415D01*
X138982566Y-67892136D01*
X139184380Y-68071921D01*
X139335297Y-68088509D01*
X139484345Y-67956790D01*
X139539460Y-67842491D01*
X139491679Y-67706956D01*
X139319387Y-67502074D01*
X139245650Y-67425482D01*
X138983987Y-67113117D01*
X138893519Y-66872275D01*
X138970256Y-66676364D01*
X139115102Y-66555768D01*
X139374541Y-66456317D01*
X139575286Y-66504237D01*
G37*
G36*
X142601152Y-66525462D02*
G01*
X142689095Y-66708024D01*
X142690227Y-66743132D01*
X142677346Y-66888622D01*
X142623456Y-66845630D01*
X142584843Y-66781620D01*
X142410629Y-66634753D01*
X142286710Y-66605929D01*
X142124685Y-66668231D01*
X142098077Y-66823766D01*
X142198653Y-67025475D01*
X142392094Y-67208300D01*
X142624506Y-67460627D01*
X142695347Y-67731018D01*
X142627334Y-67974816D01*
X142443183Y-68147364D01*
X142165613Y-68204004D01*
X141915217Y-68145763D01*
X141811924Y-68015782D01*
X141789723Y-67891578D01*
X141799251Y-67759949D01*
X141855194Y-67776235D01*
X141974876Y-67916687D01*
X142180875Y-68079954D01*
X142326259Y-68081552D01*
X142474110Y-67946802D01*
X142449454Y-67735518D01*
X142256816Y-67465909D01*
X142146250Y-67357193D01*
X141921498Y-67114727D01*
X141846332Y-66919355D01*
X141857605Y-66819810D01*
X141984577Y-66603372D01*
X142190053Y-66478556D01*
X142415191Y-66450779D01*
X142601152Y-66525462D01*
G37*
G36*
X150531893Y-66524773D02*
G01*
X150620128Y-66706906D01*
X150621312Y-66743132D01*
X150607177Y-66890901D01*
X150542815Y-66855436D01*
X150484750Y-66781620D01*
X150293423Y-66631686D01*
X150102212Y-66629021D01*
X149986347Y-66755170D01*
X150024821Y-66920365D01*
X150224808Y-67138871D01*
X150276788Y-67181849D01*
X150543198Y-67471572D01*
X150618357Y-67755427D01*
X150499271Y-68019658D01*
X150466741Y-68054489D01*
X150220426Y-68188199D01*
X149938541Y-68193987D01*
X149741027Y-68091778D01*
X149638041Y-67921459D01*
X149635417Y-67767760D01*
X149720948Y-67710276D01*
X149811801Y-67790792D01*
X149821343Y-67850128D01*
X149904992Y-68004436D01*
X150101290Y-68073492D01*
X150273122Y-68047768D01*
X150410402Y-67918107D01*
X150376224Y-67715517D01*
X150176892Y-67460437D01*
X150059158Y-67353998D01*
X149832383Y-67137112D01*
X149748371Y-66967917D01*
X149764767Y-66826817D01*
X149903979Y-66607925D01*
X150116470Y-66480886D01*
X150344891Y-66451301D01*
X150531893Y-66524773D01*
G37*
G36*
X146088474Y-64457961D02*
G01*
X146254810Y-64626663D01*
X146250761Y-64883114D01*
X146221852Y-64957153D01*
X146163568Y-65146865D01*
X146221379Y-65299677D01*
X146372344Y-65456156D01*
X146528202Y-65629263D01*
X146512806Y-65700474D01*
X146490262Y-65702371D01*
X146324962Y-65634020D01*
X146122482Y-65467826D01*
X146106719Y-65451383D01*
X145925196Y-65281568D01*
X145796169Y-65201351D01*
X145788032Y-65200395D01*
X145714545Y-65275985D01*
X145713609Y-65438524D01*
X145775801Y-65591669D01*
X145830632Y-65635881D01*
X145843216Y-65675006D01*
X145705138Y-65694445D01*
X145570258Y-65687640D01*
X145495122Y-65626582D01*
X145462285Y-65466468D01*
X145454305Y-65162496D01*
X145454149Y-65049802D01*
X145454149Y-64732858D01*
X145719304Y-64732858D01*
X145743924Y-64955795D01*
X145745782Y-64960714D01*
X145824795Y-65066446D01*
X145956364Y-64999406D01*
X145957314Y-64998619D01*
X146083942Y-64833455D01*
X146106719Y-64747065D01*
X146025816Y-64603939D01*
X145952325Y-64560260D01*
X145799682Y-64579859D01*
X145719304Y-64732858D01*
X145454149Y-64732858D01*
X145454149Y-64397233D01*
X145768141Y-64397233D01*
X146088474Y-64457961D01*
G37*
G36*
X147401272Y-42919663D02*
G01*
X147564817Y-43107886D01*
X147791897Y-43395395D01*
X147978318Y-43643931D01*
X148413468Y-44244175D01*
X148749749Y-44726661D01*
X148980226Y-45080854D01*
X149097964Y-45296218D01*
X149108169Y-45360249D01*
X148992073Y-45405544D01*
X148772751Y-45465421D01*
X148477122Y-45536559D01*
X148722553Y-45336410D01*
X148879200Y-45193527D01*
X148885588Y-45116261D01*
X148792868Y-45068085D01*
X148672929Y-44972480D01*
X148673737Y-44909324D01*
X148646377Y-44803176D01*
X148573342Y-44758731D01*
X148466774Y-44663987D01*
X148472947Y-44608138D01*
X148445587Y-44501990D01*
X148372552Y-44457545D01*
X148265984Y-44362802D01*
X148272156Y-44306953D01*
X148244705Y-44200874D01*
X148171185Y-44156138D01*
X148033827Y-44031042D01*
X148014228Y-43956057D01*
X147933184Y-43833653D01*
X147857711Y-43816205D01*
X147751853Y-43770283D01*
X147759427Y-43721980D01*
X147733725Y-43603911D01*
X147639858Y-43524243D01*
X147529677Y-43441442D01*
X147539665Y-43417677D01*
X147546753Y-43344364D01*
X147457595Y-43171023D01*
X147450770Y-43160503D01*
X147346425Y-42969247D01*
X147327458Y-42863210D01*
X147327910Y-42862735D01*
X147401272Y-42919663D01*
G37*
G36*
X151861281Y-66509336D02*
G01*
X152085878Y-66529166D01*
X152193595Y-66577657D01*
X152226376Y-66667442D01*
X152227776Y-66731423D01*
X152215009Y-66883240D01*
X152163344Y-66848829D01*
X152122392Y-66781620D01*
X151948179Y-66634753D01*
X151824260Y-66605929D01*
X151720024Y-66626723D01*
X151660921Y-66717960D01*
X151634537Y-66922920D01*
X151628458Y-67284884D01*
X151628458Y-67288616D01*
X151646069Y-67678567D01*
X151693439Y-67967834D01*
X151748932Y-68091778D01*
X151790521Y-68174956D01*
X151671826Y-68208871D01*
X151548141Y-68212253D01*
X151328120Y-68186464D01*
X151227522Y-68123782D01*
X151226877Y-68117782D01*
X151299854Y-67981814D01*
X151327272Y-67961265D01*
X151379088Y-67835830D01*
X151415346Y-67569623D01*
X151427667Y-67252573D01*
X151423019Y-66903653D01*
X151397527Y-66709967D01*
X151333872Y-66625988D01*
X151214736Y-66606192D01*
X151181668Y-66605929D01*
X150950963Y-66672195D01*
X150833337Y-66781620D01*
X150756104Y-66890568D01*
X150730547Y-66819373D01*
X150727953Y-66731423D01*
X150739073Y-66616382D01*
X150804261Y-66548923D01*
X150965458Y-66516411D01*
X151264606Y-66506213D01*
X151477865Y-66505533D01*
X151861281Y-66509336D01*
G37*
G36*
X141584092Y-66533246D02*
G01*
X141631153Y-66562676D01*
X141614031Y-66572023D01*
X141533352Y-66705831D01*
X141492406Y-67008116D01*
X141488537Y-67171032D01*
X141469804Y-67528991D01*
X141397519Y-67766158D01*
X141247550Y-67960365D01*
X141242112Y-67965828D01*
X140942087Y-68172143D01*
X140647699Y-68178327D01*
X140348330Y-67984379D01*
X140329428Y-67965828D01*
X140176988Y-67771703D01*
X140102894Y-67536752D01*
X140083014Y-67183145D01*
X140083003Y-67171032D01*
X140059831Y-66809141D01*
X139994435Y-66603832D01*
X139957509Y-66572023D01*
X139964760Y-66541167D01*
X140130978Y-66523228D01*
X140233596Y-66521385D01*
X140452137Y-66531942D01*
X140528562Y-66558507D01*
X140509683Y-66572023D01*
X140436759Y-66695589D01*
X140395092Y-66949600D01*
X140384942Y-67266120D01*
X140406567Y-67577209D01*
X140460226Y-67814931D01*
X140504663Y-67890988D01*
X140700391Y-67991571D01*
X140835968Y-68011462D01*
X141066357Y-67957094D01*
X141167272Y-67890988D01*
X141239092Y-67724524D01*
X141278734Y-67446415D01*
X141286454Y-67124599D01*
X141262513Y-66827014D01*
X141207168Y-66621598D01*
X141162252Y-66572023D01*
X141164073Y-66539549D01*
X141325437Y-66522256D01*
X141388141Y-66521385D01*
X141584092Y-66533246D01*
G37*
G36*
X143533324Y-64409311D02*
G01*
X143606994Y-64475762D01*
X143639162Y-64641912D01*
X143646910Y-64953087D01*
X143647035Y-65049802D01*
X143642482Y-65400690D01*
X143617435Y-65596142D01*
X143554809Y-65681484D01*
X143437521Y-65702041D01*
X143401066Y-65702371D01*
X143238339Y-65682492D01*
X143250960Y-65608264D01*
X143275572Y-65581897D01*
X143381663Y-65380461D01*
X143396047Y-65280711D01*
X143348906Y-65155685D01*
X143175609Y-65104954D01*
X143033268Y-65100000D01*
X142795006Y-65112541D01*
X142704570Y-65183434D01*
X142709173Y-65362586D01*
X142714695Y-65401186D01*
X142719137Y-65622569D01*
X142631598Y-65700334D01*
X142600596Y-65702371D01*
X142512714Y-65664544D01*
X142463772Y-65524593D01*
X142444136Y-65242814D01*
X142442292Y-65049802D01*
X142451468Y-64687534D01*
X142485418Y-64485780D01*
X142553774Y-64404836D01*
X142600596Y-64397233D01*
X142709123Y-64450601D01*
X142722364Y-64638866D01*
X142714695Y-64698419D01*
X142700544Y-64897757D01*
X142773648Y-64981477D01*
X142986793Y-64999486D01*
X143033268Y-64999604D01*
X143284259Y-64976122D01*
X143386101Y-64889797D01*
X143396047Y-64818893D01*
X143332484Y-64596194D01*
X143275572Y-64517707D01*
X143226719Y-64428268D01*
X143348094Y-64398092D01*
X143401066Y-64397233D01*
X143533324Y-64409311D01*
G37*
G36*
X138268652Y-66517731D02*
G01*
X138427579Y-66564076D01*
X138476139Y-66659192D01*
X138476679Y-66676205D01*
X138449495Y-66786955D01*
X138356205Y-66726403D01*
X138154769Y-66620312D01*
X138055019Y-66605929D01*
X137922124Y-66661733D01*
X137875491Y-66858106D01*
X137874307Y-66918818D01*
X137893135Y-67132839D01*
X137982534Y-67199305D01*
X138125296Y-67183728D01*
X138317487Y-67181787D01*
X138376049Y-67295243D01*
X138376284Y-67308695D01*
X138325782Y-67431473D01*
X138144883Y-67437245D01*
X138125296Y-67433662D01*
X137950729Y-67423763D01*
X137883704Y-67522398D01*
X137874307Y-67698573D01*
X137900306Y-67920568D01*
X138007026Y-68003713D01*
X138105217Y-68011462D01*
X138346329Y-67959344D01*
X138466345Y-67885968D01*
X138560632Y-67822758D01*
X138566253Y-67928682D01*
X138560780Y-67961265D01*
X138506429Y-68081479D01*
X138364763Y-68149801D01*
X138086235Y-68185783D01*
X137973762Y-68192905D01*
X137664424Y-68202298D01*
X137525014Y-68180858D01*
X137526142Y-68121999D01*
X137548023Y-68097529D01*
X137620982Y-67921395D01*
X137661979Y-67619987D01*
X137670767Y-67265669D01*
X137647099Y-66930806D01*
X137590727Y-66687761D01*
X137553043Y-66626008D01*
X137524182Y-66554570D01*
X137638286Y-66517174D01*
X137922783Y-66505591D01*
X137954624Y-66505533D01*
X138268652Y-66517731D01*
G37*
G36*
X138191344Y-64450610D02*
G01*
X138204559Y-64639030D01*
X138196908Y-64698419D01*
X138182757Y-64897757D01*
X138255861Y-64981477D01*
X138469007Y-64999486D01*
X138515482Y-64999604D01*
X138766473Y-64976122D01*
X138868315Y-64889797D01*
X138878260Y-64818893D01*
X138814697Y-64596194D01*
X138757786Y-64517707D01*
X138708932Y-64428268D01*
X138830307Y-64398092D01*
X138883280Y-64397233D01*
X139015538Y-64409311D01*
X139089208Y-64475762D01*
X139121375Y-64641912D01*
X139129124Y-64953087D01*
X139129248Y-65049802D01*
X139124696Y-65400690D01*
X139099649Y-65596142D01*
X139037023Y-65681484D01*
X138919734Y-65702041D01*
X138883280Y-65702371D01*
X138720553Y-65682492D01*
X138733174Y-65608264D01*
X138757786Y-65581897D01*
X138863877Y-65380461D01*
X138878260Y-65280711D01*
X138831119Y-65155685D01*
X138657822Y-65104954D01*
X138515482Y-65100000D01*
X138277220Y-65112541D01*
X138186784Y-65183434D01*
X138191386Y-65362586D01*
X138196908Y-65401186D01*
X138207540Y-65612621D01*
X138122544Y-65691522D01*
X137982414Y-65700834D01*
X137819821Y-65681455D01*
X137846098Y-65622099D01*
X137859252Y-65613405D01*
X137942719Y-65472623D01*
X137967811Y-65177314D01*
X137959647Y-64962237D01*
X137949148Y-64633418D01*
X137976264Y-64460290D01*
X138050388Y-64399749D01*
X138082809Y-64397096D01*
X138191344Y-64450610D01*
G37*
G36*
X149159127Y-64410380D02*
G01*
X149230511Y-64479989D01*
X149261656Y-64651311D01*
X149269078Y-64969595D01*
X149269169Y-65049802D01*
X149264617Y-65400690D01*
X149239570Y-65596142D01*
X149176944Y-65681484D01*
X149059655Y-65702041D01*
X149023201Y-65702371D01*
X148860474Y-65682492D01*
X148873095Y-65608264D01*
X148897707Y-65581897D01*
X149003798Y-65380461D01*
X149018181Y-65280711D01*
X148971040Y-65155685D01*
X148797743Y-65104954D01*
X148655403Y-65100000D01*
X148417141Y-65112541D01*
X148326704Y-65183434D01*
X148331307Y-65362586D01*
X148336829Y-65401186D01*
X148347211Y-65612921D01*
X148262230Y-65692425D01*
X148127355Y-65702371D01*
X147959855Y-65683032D01*
X147967331Y-65610964D01*
X147994149Y-65581897D01*
X148070890Y-65410229D01*
X148112284Y-65132829D01*
X148114624Y-65049802D01*
X148086840Y-64759821D01*
X148017765Y-64549317D01*
X147994149Y-64517707D01*
X147946140Y-64428976D01*
X148067218Y-64398301D01*
X148127355Y-64397233D01*
X148302087Y-64421802D01*
X148352209Y-64536552D01*
X148336829Y-64698419D01*
X148324808Y-64906987D01*
X148411068Y-64987189D01*
X148608356Y-64999604D01*
X148875653Y-64941902D01*
X148997877Y-64793454D01*
X148949855Y-64591248D01*
X148916725Y-64546547D01*
X148855332Y-64435342D01*
X148956144Y-64398959D01*
X149030987Y-64397233D01*
X149159127Y-64410380D01*
G37*
G36*
X146744762Y-66513459D02*
G01*
X146923236Y-66531760D01*
X146947162Y-66566239D01*
X146934979Y-66572023D01*
X146865940Y-66694253D01*
X146823557Y-66952527D01*
X146808040Y-67283850D01*
X146819597Y-67625226D01*
X146858435Y-67913658D01*
X146924763Y-68086151D01*
X146929960Y-68091778D01*
X146971389Y-68174814D01*
X146852754Y-68208797D01*
X146727256Y-68212253D01*
X146508833Y-68196430D01*
X146440075Y-68113477D01*
X146464575Y-67936166D01*
X146523104Y-67686392D01*
X146563732Y-67534585D01*
X146519303Y-67454438D01*
X146309356Y-67415225D01*
X146092684Y-67409091D01*
X145796888Y-67421090D01*
X145649084Y-67483762D01*
X145628927Y-67637120D01*
X145716074Y-67921177D01*
X145765648Y-68052333D01*
X145766838Y-68163357D01*
X145627912Y-68207817D01*
X145495009Y-68212253D01*
X145283085Y-68197126D01*
X145243994Y-68141737D01*
X145283477Y-68091778D01*
X145351575Y-67928871D01*
X145392170Y-67645984D01*
X145405470Y-67306113D01*
X145391683Y-66972255D01*
X145351018Y-66707405D01*
X145283682Y-66574560D01*
X145278458Y-66572023D01*
X145276884Y-66536545D01*
X145435601Y-66514925D01*
X145476763Y-66513459D01*
X145693542Y-66520834D01*
X145753516Y-66590166D01*
X145702653Y-66763057D01*
X145623902Y-67014108D01*
X145654090Y-67147572D01*
X145825557Y-67200044D01*
X146096146Y-67208300D01*
X146587549Y-67208300D01*
X146508300Y-66856917D01*
X146466305Y-66624138D01*
X146511571Y-66528531D01*
X146683998Y-66512143D01*
X146744762Y-66513459D01*
G37*
G36*
X149332792Y-66522610D02*
G01*
X149379786Y-66573262D01*
X149339446Y-66626008D01*
X149267770Y-66801172D01*
X149228892Y-67102272D01*
X149222569Y-67457192D01*
X149248554Y-67793816D01*
X149306603Y-68040027D01*
X149344466Y-68103554D01*
X149384356Y-68176771D01*
X149298864Y-68206158D01*
X149056933Y-68197902D01*
X148925895Y-68186936D01*
X148575841Y-68136527D01*
X148345048Y-68039203D01*
X148152243Y-67858124D01*
X148122733Y-67822871D01*
X147930032Y-67623415D01*
X147769434Y-67515119D01*
X147738141Y-67508581D01*
X147630388Y-67582225D01*
X147629593Y-67757439D01*
X147730671Y-67969172D01*
X147778800Y-68028656D01*
X147871194Y-68146930D01*
X147836542Y-68199050D01*
X147642403Y-68211982D01*
X147557931Y-68212253D01*
X147318239Y-68199155D01*
X147250918Y-68151665D01*
X147291383Y-68091778D01*
X147359480Y-67928871D01*
X147400075Y-67645984D01*
X147413375Y-67306113D01*
X147409264Y-67206564D01*
X147628087Y-67206564D01*
X147707421Y-67294850D01*
X147863636Y-67308695D01*
X148042616Y-67286035D01*
X148103491Y-67177345D01*
X148095886Y-66982411D01*
X148040781Y-66746090D01*
X147916028Y-66659847D01*
X147863636Y-66656126D01*
X147713144Y-66708644D01*
X147641828Y-66897856D01*
X147631385Y-66982411D01*
X147628087Y-67206564D01*
X147409264Y-67206564D01*
X147399589Y-66972255D01*
X147358923Y-66707405D01*
X147291587Y-66574560D01*
X147286363Y-66572023D01*
X147303192Y-66542749D01*
X147479337Y-66520944D01*
X147675651Y-66513459D01*
X148083968Y-66540771D01*
X148317742Y-66648911D01*
X148392529Y-66854058D01*
X148323884Y-67172389D01*
X148319901Y-67183497D01*
X148246836Y-67420692D01*
X148266125Y-67576376D01*
X148402756Y-67736861D01*
X148507770Y-67832381D01*
X148724104Y-67995047D01*
X148887645Y-68064251D01*
X148922642Y-68058659D01*
X148980639Y-67927601D01*
X149012602Y-67665305D01*
X149019819Y-67335626D01*
X149003575Y-67002417D01*
X148965158Y-66729533D01*
X148905854Y-66580828D01*
X148892687Y-66572023D01*
X148893930Y-66537487D01*
X149054874Y-66515628D01*
X149113557Y-66513459D01*
X149332792Y-66522610D01*
G37*
G36*
X145550858Y-32639156D02*
G01*
X146307509Y-32750871D01*
X147660173Y-33115485D01*
X148887797Y-33626229D01*
X150016811Y-34297430D01*
X151073650Y-35143413D01*
X151528062Y-35580227D01*
X152354664Y-36505426D01*
X153017865Y-37455388D01*
X153552862Y-38484460D01*
X153798557Y-39086090D01*
X153881979Y-39305923D01*
X153957841Y-39507143D01*
X154026501Y-39699760D01*
X154088319Y-39893784D01*
X154143651Y-40099224D01*
X154192858Y-40326090D01*
X154236298Y-40584391D01*
X154274329Y-40884139D01*
X154307309Y-41235341D01*
X154335598Y-41648008D01*
X154359553Y-42132150D01*
X154379534Y-42697777D01*
X154395898Y-43354897D01*
X154409005Y-44113522D01*
X154419212Y-44983660D01*
X154426879Y-45975321D01*
X154432364Y-47098515D01*
X154436025Y-48363252D01*
X154438221Y-49779541D01*
X154439311Y-51357392D01*
X154439652Y-53106815D01*
X154439605Y-55037820D01*
X154439525Y-56981135D01*
X154439525Y-72228063D01*
X144399999Y-72228063D01*
X134360474Y-72228063D01*
X134360474Y-67090678D01*
X134360474Y-62287944D01*
X134561264Y-62287944D01*
X134561264Y-67090678D01*
X134562632Y-68054045D01*
X134566554Y-68955681D01*
X134572755Y-69775789D01*
X134580962Y-70494569D01*
X134590899Y-71092224D01*
X134602294Y-71548955D01*
X134614872Y-71844963D01*
X134628359Y-71960451D01*
X134628688Y-71960837D01*
X134736513Y-71970133D01*
X135031360Y-71978534D01*
X135499459Y-71985981D01*
X136127044Y-71992414D01*
X136900348Y-71997775D01*
X137805601Y-72002006D01*
X138829037Y-72005047D01*
X139956888Y-72006840D01*
X141175387Y-72007327D01*
X142470765Y-72006448D01*
X143829254Y-72004145D01*
X144442325Y-72002668D01*
X154188537Y-71977075D01*
X154188537Y-67158103D01*
X154188537Y-62339130D01*
X144374900Y-62313537D01*
X134561264Y-62287944D01*
X134360474Y-62287944D01*
X134360474Y-56928877D01*
X134360483Y-56835301D01*
X134574971Y-56835301D01*
X134575322Y-57953271D01*
X134576708Y-58961559D01*
X134579105Y-59846649D01*
X134582489Y-60595024D01*
X134586834Y-61193169D01*
X134592116Y-61627567D01*
X134598310Y-61884703D01*
X134603470Y-61952925D01*
X134656672Y-61996121D01*
X134792844Y-62029541D01*
X135032610Y-62054270D01*
X135396592Y-62071394D01*
X135905414Y-62082000D01*
X136579699Y-62087172D01*
X137171541Y-62088142D01*
X137958319Y-62086759D01*
X138567066Y-62081697D01*
X139020528Y-62071590D01*
X139341450Y-62055069D01*
X139552579Y-62030767D01*
X139676660Y-61997316D01*
X139736439Y-61953349D01*
X139747153Y-61933273D01*
X139847779Y-61816613D01*
X139984632Y-61816613D01*
X140002129Y-61881331D01*
X140142389Y-61944732D01*
X140283794Y-61967987D01*
X140513474Y-61949881D01*
X140584976Y-61839888D01*
X140584979Y-61838749D01*
X140646031Y-61702530D01*
X140773272Y-61717031D01*
X140835968Y-61786956D01*
X140824677Y-61879320D01*
X140785770Y-61887352D01*
X140720301Y-61948508D01*
X140735572Y-61987747D01*
X140817118Y-62074863D01*
X140940185Y-62059191D01*
X141106324Y-61977381D01*
X141292904Y-61917798D01*
X141385334Y-61983203D01*
X141520042Y-62046703D01*
X141727060Y-62031347D01*
X141905994Y-61960488D01*
X142090908Y-61960488D01*
X142178286Y-62021106D01*
X142391735Y-62054361D01*
X142658228Y-62058901D01*
X142904736Y-62033373D01*
X143055974Y-61978360D01*
X143195155Y-61936285D01*
X143242441Y-61982872D01*
X143390357Y-62080030D01*
X143590131Y-62083052D01*
X143750458Y-62003675D01*
X143762388Y-61976362D01*
X143915955Y-61976362D01*
X144233274Y-62007153D01*
X144541789Y-62024601D01*
X144852685Y-62023759D01*
X145074782Y-62005466D01*
X145102766Y-61999155D01*
X145077005Y-61943408D01*
X145002371Y-61887352D01*
X144910076Y-61809549D01*
X145004963Y-61788818D01*
X145027470Y-61788494D01*
X145176314Y-61839465D01*
X145203161Y-61898093D01*
X145275143Y-61967893D01*
X145341520Y-61956136D01*
X145527499Y-61970479D01*
X145590835Y-62013998D01*
X145722967Y-62076543D01*
X145768512Y-62058233D01*
X145735479Y-61961408D01*
X145585782Y-61769429D01*
X145351072Y-61522490D01*
X145332050Y-61503966D01*
X144828868Y-61016419D01*
X145012450Y-60293521D01*
X145109489Y-59929059D01*
X145194890Y-59639329D01*
X145251757Y-59481239D01*
X145255719Y-59474046D01*
X145283457Y-59385036D01*
X145177351Y-59419762D01*
X144931183Y-59581434D01*
X144657504Y-59782941D01*
X144389649Y-59997736D01*
X144208961Y-60194111D01*
X144094076Y-60421594D01*
X144023632Y-60729713D01*
X143976267Y-61167996D01*
X143957972Y-61404782D01*
X143915955Y-61976362D01*
X143762388Y-61976362D01*
X143790303Y-61912450D01*
X143797944Y-61367159D01*
X143777571Y-60991797D01*
X143720595Y-60756443D01*
X143618426Y-60631176D01*
X143462474Y-60586078D01*
X143408853Y-60583751D01*
X143322120Y-60606360D01*
X143377634Y-60710572D01*
X143408853Y-60749243D01*
X143490732Y-60861313D01*
X143431212Y-60852757D01*
X143327350Y-60799440D01*
X143080107Y-60694286D01*
X142952305Y-60694685D01*
X142968354Y-60796809D01*
X143007272Y-60849638D01*
X143088126Y-60959949D01*
X143032301Y-60954007D01*
X142910571Y-60891702D01*
X142699623Y-60819014D01*
X142602652Y-60854830D01*
X142653537Y-60969653D01*
X142737725Y-61042200D01*
X142851105Y-61147111D01*
X142837962Y-61181392D01*
X142690446Y-61123474D01*
X142552995Y-61034015D01*
X142365461Y-60942776D01*
X142251877Y-60968657D01*
X142261840Y-61088772D01*
X142303818Y-61148990D01*
X142375113Y-61259961D01*
X142298377Y-61265795D01*
X142297330Y-61265546D01*
X142185795Y-61318107D01*
X142130044Y-61489734D01*
X142140506Y-61703889D01*
X142215025Y-61869578D01*
X142289902Y-61977040D01*
X142227540Y-61957506D01*
X142216402Y-61950896D01*
X142106036Y-61929248D01*
X142090908Y-61960488D01*
X141905994Y-61960488D01*
X141914032Y-61957305D01*
X141988976Y-61851369D01*
X141937516Y-61669518D01*
X141897691Y-61594983D01*
X141881467Y-61407349D01*
X141949426Y-61311724D01*
X142091966Y-61103718D01*
X142046810Y-60960588D01*
X141818666Y-60889793D01*
X141678979Y-60883399D01*
X141421736Y-60906045D01*
X141196319Y-60995666D01*
X140936902Y-61184785D01*
X140764564Y-61335178D01*
X140489083Y-61565232D01*
X140256807Y-61727949D01*
X140122343Y-61786956D01*
X139984632Y-61816613D01*
X139847779Y-61816613D01*
X139869864Y-61791009D01*
X140100586Y-61630608D01*
X140170682Y-61592572D01*
X140443049Y-61442238D01*
X140639352Y-61288940D01*
X140775338Y-61095927D01*
X140866751Y-60826452D01*
X140929337Y-60443764D01*
X140978842Y-59911116D01*
X140997404Y-59663059D01*
X141030165Y-59086514D01*
X141047359Y-58508048D01*
X141047889Y-57995014D01*
X141030752Y-57615803D01*
X141029257Y-56761168D01*
X141119532Y-56059677D01*
X141197056Y-55554448D01*
X141269153Y-54955612D01*
X141323388Y-54370229D01*
X141334700Y-54207114D01*
X141367925Y-53722933D01*
X141404826Y-53263986D01*
X141439543Y-52900403D01*
X141454227Y-52776482D01*
X141480787Y-52509708D01*
X141449073Y-52386153D01*
X141335177Y-52351208D01*
X141267415Y-52349802D01*
X141041898Y-52272398D01*
X140742853Y-52065095D01*
X140407837Y-51765256D01*
X140074406Y-51410245D01*
X139780120Y-51037425D01*
X139562534Y-50684159D01*
X139534596Y-50625934D01*
X139410870Y-50293449D01*
X139274753Y-49832208D01*
X139140040Y-49301802D01*
X139020530Y-48761824D01*
X138930019Y-48271865D01*
X138882305Y-47891515D01*
X138878260Y-47791146D01*
X138820887Y-47583847D01*
X138653354Y-47538919D01*
X138382546Y-47655581D01*
X138075098Y-47882213D01*
X137662856Y-48154984D01*
X137337734Y-48238003D01*
X137033817Y-48278365D01*
X136686451Y-48372444D01*
X136619367Y-48396770D01*
X136227319Y-48535755D01*
X135954700Y-48590860D01*
X135739454Y-48564112D01*
X135519523Y-48457537D01*
X135480937Y-48433948D01*
X135270707Y-48281049D01*
X135218941Y-48165374D01*
X135260614Y-48087120D01*
X135313240Y-47953437D01*
X135197409Y-47848921D01*
X135089765Y-47768245D01*
X135095865Y-47748538D01*
X135369733Y-47748538D01*
X135395241Y-47795900D01*
X135508790Y-47788994D01*
X135719613Y-47704996D01*
X135751692Y-47688825D01*
X136012797Y-47567140D01*
X136132502Y-47538346D01*
X136096622Y-47599421D01*
X135924327Y-47725605D01*
X135634298Y-47953938D01*
X135530219Y-48143050D01*
X135605556Y-48310869D01*
X135686655Y-48377590D01*
X135841125Y-48485851D01*
X135942958Y-48517449D01*
X136070645Y-48467466D01*
X136287344Y-48339964D01*
X136586720Y-48211716D01*
X136970254Y-48107039D01*
X137159680Y-48074286D01*
X137634428Y-47959455D01*
X138000558Y-47739032D01*
X138026815Y-47716472D01*
X138347924Y-47489325D01*
X138523650Y-47400052D01*
X139016770Y-47400052D01*
X139081301Y-47573427D01*
X139219166Y-47795174D01*
X139319900Y-47920937D01*
X139530829Y-48160452D01*
X139304940Y-48042899D01*
X139127398Y-47992227D01*
X139075977Y-48075962D01*
X139150807Y-48272166D01*
X139302258Y-48496144D01*
X139414848Y-48658200D01*
X139396343Y-48679649D01*
X139352456Y-48647984D01*
X139220548Y-48564922D01*
X139180973Y-48635200D01*
X139179446Y-48691711D01*
X139243080Y-48889352D01*
X139397042Y-49118183D01*
X139405335Y-49127645D01*
X139508567Y-49258371D01*
X139486289Y-49269249D01*
X139455594Y-49247368D01*
X139342043Y-49176200D01*
X139311106Y-49232412D01*
X139344221Y-49450045D01*
X139344440Y-49451197D01*
X139546842Y-50194754D01*
X139864694Y-50822775D01*
X140335032Y-51404566D01*
X140450724Y-51521541D01*
X140758489Y-51803507D01*
X141034742Y-52019813D01*
X141235251Y-52137200D01*
X141285194Y-52149012D01*
X141503681Y-52106741D01*
X141786642Y-52002787D01*
X141835000Y-51980546D01*
X142119523Y-51784551D01*
X142385116Y-51508168D01*
X142438160Y-51434481D01*
X142868482Y-50726386D01*
X143327912Y-49866869D01*
X143796052Y-48899102D01*
X144252504Y-47866255D01*
X144676872Y-46811499D01*
X144875508Y-46275889D01*
X145049467Y-45831811D01*
X145273003Y-45315082D01*
X145500800Y-44830004D01*
X145523934Y-44783531D01*
X145764842Y-44283364D01*
X146002502Y-43755490D01*
X146221087Y-43239025D01*
X146404766Y-42773088D01*
X146537711Y-42396795D01*
X146604093Y-42149264D01*
X146608695Y-42102794D01*
X146579339Y-41902768D01*
X146501126Y-41880391D01*
X146388838Y-42022873D01*
X146257258Y-42317425D01*
X146212078Y-42445951D01*
X146081393Y-42784852D01*
X145911407Y-43153747D01*
X145727218Y-43506475D01*
X145553925Y-43796875D01*
X145416627Y-43978786D01*
X145357865Y-44016996D01*
X145376571Y-43936618D01*
X145472890Y-43724744D01*
X145626675Y-43425266D01*
X145645876Y-43389525D01*
X145815482Y-43048601D01*
X145982843Y-42668017D01*
X146130646Y-42293780D01*
X146241574Y-41971899D01*
X146298312Y-41748381D01*
X146292639Y-41671015D01*
X145973999Y-41467017D01*
X145780373Y-41376575D01*
X145680114Y-41387647D01*
X145654805Y-41428319D01*
X145595150Y-41596921D01*
X145499325Y-41871298D01*
X145454688Y-41999832D01*
X145308653Y-42349137D01*
X145107726Y-42745422D01*
X144994583Y-42940807D01*
X144837834Y-43182364D01*
X144634489Y-43477367D01*
X144405316Y-43798220D01*
X144171082Y-44117328D01*
X143952557Y-44407097D01*
X143770508Y-44639930D01*
X143645703Y-44788233D01*
X143598909Y-44824411D01*
X143636864Y-44744861D01*
X143676128Y-44651934D01*
X143633200Y-44638439D01*
X143490181Y-44714482D01*
X143229174Y-44890173D01*
X142832278Y-45175616D01*
X142691393Y-45278761D01*
X142306065Y-45576202D01*
X141968842Y-45863226D01*
X141722267Y-46102098D01*
X141622353Y-46227057D01*
X141480801Y-46406624D01*
X141366855Y-46463365D01*
X141323871Y-46389936D01*
X141353070Y-46272674D01*
X141350405Y-46145534D01*
X141305849Y-46125296D01*
X141182016Y-46204769D01*
X141158924Y-46250790D01*
X141136829Y-46293702D01*
X141152045Y-46200330D01*
X141192236Y-46028948D01*
X141208868Y-45968778D01*
X141388141Y-45968778D01*
X141440558Y-46106140D01*
X141488537Y-46125296D01*
X141586058Y-46053240D01*
X141588932Y-46030826D01*
X141515955Y-45894857D01*
X141488537Y-45874308D01*
X141402588Y-45897068D01*
X141388141Y-45968778D01*
X141208868Y-45968778D01*
X141245065Y-45837828D01*
X141249258Y-45824110D01*
X141258358Y-45665128D01*
X141226483Y-45638088D01*
X141436131Y-45638088D01*
X141502728Y-45791012D01*
X141652657Y-45853551D01*
X141806968Y-45775692D01*
X141888809Y-45600660D01*
X141890118Y-45573122D01*
X141828206Y-45421150D01*
X141692187Y-45288843D01*
X141556633Y-45239925D01*
X141520191Y-45257015D01*
X141531754Y-45368930D01*
X141648111Y-45545678D01*
X141742393Y-45671036D01*
X141701693Y-45663573D01*
X141680090Y-45647560D01*
X141511712Y-45575987D01*
X141436131Y-45638088D01*
X141226483Y-45638088D01*
X141209074Y-45623320D01*
X141112298Y-45712767D01*
X141026642Y-45937326D01*
X140964567Y-46231323D01*
X140938532Y-46529084D01*
X140960997Y-46764933D01*
X140982085Y-46819701D01*
X141103196Y-46970340D01*
X141266497Y-47009404D01*
X141499215Y-46929131D01*
X141828573Y-46721755D01*
X142141106Y-46489176D01*
X142335358Y-46351374D01*
X142418048Y-46318749D01*
X142392094Y-46369848D01*
X142177228Y-46587770D01*
X141890615Y-46813023D01*
X141594757Y-47003076D01*
X141352152Y-47115395D01*
X141276176Y-47129249D01*
X141092895Y-47066082D01*
X140847519Y-46907240D01*
X140750911Y-46828063D01*
X140487564Y-46612447D01*
X140344449Y-46541165D01*
X140305307Y-46611282D01*
X140333802Y-46752767D01*
X140363557Y-46894440D01*
X140316985Y-46860543D01*
X140294551Y-46828902D01*
X140179480Y-46734890D01*
X140071360Y-46799548D01*
X140005430Y-46935879D01*
X140090548Y-47099895D01*
X140176569Y-47216471D01*
X140141323Y-47202251D01*
X140015944Y-47097610D01*
X139827948Y-47001755D01*
X139711041Y-47045609D01*
X139716547Y-47199411D01*
X139744966Y-47254743D01*
X139763863Y-47319794D01*
X139654894Y-47246100D01*
X139461241Y-47150172D01*
X139357558Y-47209071D01*
X139373146Y-47386219D01*
X139439457Y-47515027D01*
X139609983Y-47781818D01*
X139363145Y-47555929D01*
X139176689Y-47401608D01*
X139055700Y-47330566D01*
X139050632Y-47330039D01*
X139016770Y-47400052D01*
X138523650Y-47400052D01*
X138711654Y-47304541D01*
X138765593Y-47284172D01*
X139246550Y-47079955D01*
X139694190Y-46828621D01*
X140053915Y-46564698D01*
X140261902Y-46337901D01*
X140289159Y-46302398D01*
X140521220Y-46302398D01*
X140568048Y-46484751D01*
X140597552Y-46543378D01*
X140693926Y-46696628D01*
X140742620Y-46680137D01*
X140765694Y-46591510D01*
X140747071Y-46380844D01*
X140696463Y-46297017D01*
X140569770Y-46225509D01*
X140521220Y-46302398D01*
X140289159Y-46302398D01*
X140418869Y-46133444D01*
X140515681Y-46024901D01*
X140685375Y-46024901D01*
X140719628Y-46122686D01*
X140729647Y-46125296D01*
X140815362Y-46054946D01*
X140835968Y-46024901D01*
X140828008Y-45932388D01*
X140791695Y-45924506D01*
X140689460Y-45997384D01*
X140685375Y-46024901D01*
X140515681Y-46024901D01*
X140667895Y-45854242D01*
X140942653Y-45573122D01*
X141335255Y-45148565D01*
X141393611Y-45065221D01*
X141689327Y-45065221D01*
X141741744Y-45202583D01*
X141789723Y-45221739D01*
X141887244Y-45149682D01*
X141890118Y-45127269D01*
X141817141Y-44991300D01*
X141789723Y-44970751D01*
X141703774Y-44993510D01*
X141689327Y-45065221D01*
X141393611Y-45065221D01*
X141597056Y-44774660D01*
X141716700Y-44471915D01*
X141682833Y-44260837D01*
X141674936Y-44250644D01*
X141616405Y-44153821D01*
X141717682Y-44173106D01*
X141721827Y-44174690D01*
X141826935Y-44181572D01*
X141862204Y-44062460D01*
X141854710Y-43875802D01*
X141851728Y-43606695D01*
X141903735Y-43528544D01*
X142015741Y-43637834D01*
X142072238Y-43723223D01*
X142252020Y-43902468D01*
X142517582Y-44062593D01*
X142548167Y-44075953D01*
X142772056Y-44180993D01*
X142889114Y-44258345D01*
X142894070Y-44268518D01*
X142811552Y-44264453D01*
X142603320Y-44198244D01*
X142488324Y-44154208D01*
X142229893Y-44066776D01*
X142057380Y-44037948D01*
X142027754Y-44046685D01*
X142000223Y-44169295D01*
X141984108Y-44426764D01*
X141979178Y-44753502D01*
X141985203Y-45083915D01*
X142001953Y-45352411D01*
X142029196Y-45493398D01*
X142032854Y-45498335D01*
X142140904Y-45474412D01*
X142364312Y-45341340D01*
X142670122Y-45125319D01*
X143025378Y-44852551D01*
X143397125Y-44549237D01*
X143752406Y-44241579D01*
X144058267Y-43955778D01*
X144281751Y-43718034D01*
X144299880Y-43695954D01*
X144538146Y-43370353D01*
X144789523Y-42978585D01*
X145027871Y-42567794D01*
X145227049Y-42185123D01*
X145360916Y-41877715D01*
X145403952Y-41704792D01*
X145320333Y-41625274D01*
X145156002Y-41631501D01*
X144991010Y-41638551D01*
X144961136Y-41593007D01*
X145091880Y-41526691D01*
X145259284Y-41507114D01*
X145453082Y-41457625D01*
X145504347Y-41306324D01*
X145462304Y-41143185D01*
X145403952Y-41105533D01*
X145328482Y-41019617D01*
X145303557Y-40854545D01*
X145271677Y-40649062D01*
X145180425Y-40631317D01*
X145036376Y-40799397D01*
X144942884Y-40959425D01*
X144797989Y-41189411D01*
X144644013Y-41282780D01*
X144394311Y-41288122D01*
X144361055Y-41285710D01*
X144078803Y-41234059D01*
X143899616Y-41093772D01*
X143783782Y-40906309D01*
X143664924Y-40695016D01*
X143610429Y-40649513D01*
X143594493Y-40756185D01*
X143593497Y-40805914D01*
X143507095Y-41073457D01*
X143290592Y-41368680D01*
X142998536Y-41640386D01*
X142685476Y-41837382D01*
X142418498Y-41908695D01*
X142119346Y-42000592D01*
X141796056Y-42279618D01*
X141442973Y-42750774D01*
X141411910Y-42799051D01*
X140962068Y-43457883D01*
X140497568Y-44052966D01*
X140047632Y-44550615D01*
X139641480Y-44917150D01*
X139470777Y-45036551D01*
X139204658Y-45212651D01*
X139025959Y-45354559D01*
X138978655Y-45416621D01*
X138915038Y-45520423D01*
X138744883Y-45732628D01*
X138499236Y-46015393D01*
X138373247Y-46154582D01*
X137767838Y-46815279D01*
X137422716Y-46671078D01*
X137073126Y-46569628D01*
X136713719Y-46526882D01*
X136710694Y-46526877D01*
X136479345Y-46538066D01*
X136414020Y-46585820D01*
X136468774Y-46677470D01*
X136668050Y-46804131D01*
X136807351Y-46831256D01*
X137024833Y-46882501D01*
X137238001Y-46997964D01*
X137363949Y-47128850D01*
X137372331Y-47163791D01*
X137293480Y-47166481D01*
X137098023Y-47094581D01*
X137038417Y-47067163D01*
X136851759Y-46987786D01*
X136695594Y-46968520D01*
X136507818Y-47019205D01*
X136226329Y-47149684D01*
X136091976Y-47217134D01*
X135673667Y-47445751D01*
X135436233Y-47620133D01*
X135369733Y-47748538D01*
X135095865Y-47748538D01*
X135117591Y-47678344D01*
X135267139Y-47542969D01*
X135517433Y-47367943D01*
X135838824Y-47183445D01*
X135935809Y-47134841D01*
X136199723Y-46987944D01*
X136318401Y-46848635D01*
X136337637Y-46662657D01*
X136337390Y-46659065D01*
X136338579Y-46490745D01*
X136408526Y-46416175D01*
X136599413Y-46405308D01*
X136761719Y-46414717D01*
X137103609Y-46456153D01*
X137404000Y-46522556D01*
X137463514Y-46542460D01*
X137617730Y-46581176D01*
X137755787Y-46543363D01*
X137926516Y-46401761D01*
X138153795Y-46157083D01*
X138454518Y-45821925D01*
X138808122Y-45429891D01*
X139100021Y-45107757D01*
X139378920Y-44763472D01*
X139522276Y-44560519D01*
X139843388Y-44560519D01*
X139846735Y-44606708D01*
X139852317Y-44602518D01*
X140017943Y-44429892D01*
X140279920Y-44111793D01*
X140621972Y-43668975D01*
X141027820Y-43122191D01*
X141207280Y-42874993D01*
X141482505Y-42489690D01*
X141652690Y-42237833D01*
X141733004Y-42092039D01*
X141738618Y-42024923D01*
X141686935Y-42009091D01*
X141623688Y-41947793D01*
X141639130Y-41908695D01*
X141772125Y-41812048D01*
X141801573Y-41808300D01*
X141856003Y-41870157D01*
X141839920Y-41908695D01*
X141826475Y-41997242D01*
X141936578Y-41978822D01*
X142125765Y-41862200D01*
X142327410Y-41771751D01*
X142450369Y-41775094D01*
X142618983Y-41745850D01*
X142830748Y-41595462D01*
X143031583Y-41378463D01*
X143167408Y-41149388D01*
X143195256Y-41023963D01*
X143205410Y-40954940D01*
X143295651Y-40954940D01*
X143317131Y-41088889D01*
X143335108Y-41105533D01*
X143399843Y-41027029D01*
X143432352Y-40954940D01*
X143434439Y-40825666D01*
X143392896Y-40804348D01*
X143306606Y-40885711D01*
X143295651Y-40954940D01*
X143205410Y-40954940D01*
X143234047Y-40760279D01*
X143285490Y-40622056D01*
X143320979Y-40439323D01*
X143325906Y-40124137D01*
X143299989Y-39750197D01*
X143266632Y-39352287D01*
X143278197Y-39071088D01*
X143345868Y-38825376D01*
X143462434Y-38570553D01*
X143621504Y-38274397D01*
X143724710Y-38122479D01*
X143759018Y-38122490D01*
X143711393Y-38282123D01*
X143632542Y-38470158D01*
X143440869Y-39111873D01*
X143443489Y-39751978D01*
X143641755Y-40404122D01*
X143866236Y-40824882D01*
X144033729Y-41060750D01*
X144188856Y-41157306D01*
X144402531Y-41157941D01*
X144409164Y-41157112D01*
X144634986Y-41120708D01*
X144748810Y-41087388D01*
X144749829Y-41086380D01*
X144825858Y-40958671D01*
X144951533Y-40712585D01*
X145095495Y-40413469D01*
X145226386Y-40126674D01*
X145312848Y-39917547D01*
X145318743Y-39900790D01*
X145370139Y-39768738D01*
X145381950Y-39810444D01*
X145362712Y-40010256D01*
X145389334Y-40418264D01*
X145534061Y-40830902D01*
X145763096Y-41174352D01*
X145973335Y-41343990D01*
X146514101Y-41732820D01*
X147027379Y-42302685D01*
X147033084Y-42310276D01*
X147199865Y-42569325D01*
X147247957Y-42786408D01*
X147213923Y-43013043D01*
X147131224Y-43364427D01*
X147120948Y-42999067D01*
X147050458Y-42656011D01*
X146906832Y-42396695D01*
X146702993Y-42159684D01*
X146742361Y-42711857D01*
X146756600Y-42959447D01*
X146754354Y-43052583D01*
X146739049Y-42987944D01*
X146680004Y-42787593D01*
X146606886Y-42711857D01*
X146578552Y-42807049D01*
X146558322Y-43072057D01*
X146547203Y-43476035D01*
X146546200Y-43988136D01*
X146552037Y-44393478D01*
X146563650Y-44981112D01*
X146569803Y-45375661D01*
X146569901Y-45584773D01*
X146563346Y-45616095D01*
X146549542Y-45477275D01*
X146527892Y-45175959D01*
X146510900Y-44920553D01*
X146478674Y-44434616D01*
X146449343Y-44001505D01*
X146426451Y-43673028D01*
X146414722Y-43515020D01*
X146394315Y-43264031D01*
X146283740Y-43515020D01*
X146168456Y-43784738D01*
X146039017Y-44098056D01*
X146031192Y-44117391D01*
X145912562Y-44391810D01*
X145808906Y-44601373D01*
X145798455Y-44619367D01*
X145567773Y-45030170D01*
X145429206Y-45364581D01*
X145351631Y-45704728D01*
X145331927Y-45850396D01*
X145286259Y-46128487D01*
X145238477Y-46228158D01*
X145207582Y-46188096D01*
X145150194Y-46182882D01*
X145041042Y-46354915D01*
X144877601Y-46709065D01*
X144658813Y-47246457D01*
X144282829Y-48163856D01*
X143896343Y-49031489D01*
X143510488Y-49829263D01*
X143136394Y-50537086D01*
X142785192Y-51134864D01*
X142468013Y-51602505D01*
X142195987Y-51919915D01*
X141990147Y-52063788D01*
X141841713Y-52129058D01*
X141749787Y-52229441D01*
X141693614Y-52413808D01*
X141652438Y-52731034D01*
X141636385Y-52896807D01*
X141610893Y-53287780D01*
X141608916Y-53621553D01*
X141630735Y-53828895D01*
X141632565Y-53835047D01*
X141642356Y-54025334D01*
X141593016Y-54104195D01*
X141513563Y-54243995D01*
X141488537Y-54426123D01*
X141504067Y-54600684D01*
X141577467Y-54604180D01*
X141654644Y-54545692D01*
X141757870Y-54469567D01*
X141762053Y-54514819D01*
X141670094Y-54709091D01*
X141518423Y-55129443D01*
X141393049Y-55713689D01*
X141298473Y-56426115D01*
X141239193Y-57231012D01*
X141219710Y-58092667D01*
X141221040Y-58273122D01*
X141223699Y-58846915D01*
X141218145Y-59398229D01*
X141205469Y-59872022D01*
X141186758Y-60213253D01*
X141181523Y-60269015D01*
X141123692Y-60809177D01*
X141906624Y-60755514D01*
X142538853Y-60659828D01*
X143179749Y-60451896D01*
X143236220Y-60423959D01*
X143604316Y-60423959D01*
X143616736Y-60522336D01*
X143765926Y-60632708D01*
X143872924Y-60674682D01*
X143895182Y-60600500D01*
X143898023Y-60532016D01*
X143817660Y-60398915D01*
X143747430Y-60381423D01*
X143604316Y-60423959D01*
X143236220Y-60423959D01*
X143851026Y-60119808D01*
X144574397Y-59651651D01*
X145371574Y-59035517D01*
X145960057Y-58531983D01*
X146608695Y-57958970D01*
X146608695Y-54284294D01*
X146609930Y-53450142D01*
X146613447Y-52684887D01*
X146618962Y-52010367D01*
X146626192Y-51448421D01*
X146634853Y-51020888D01*
X146644662Y-50749606D01*
X146655336Y-50656414D01*
X146655770Y-50656693D01*
X146668526Y-50764928D01*
X146682538Y-51049572D01*
X146697143Y-51486254D01*
X146711676Y-52050602D01*
X146725473Y-52718244D01*
X146737871Y-53464808D01*
X146743585Y-53879344D01*
X146755427Y-54763160D01*
X146766900Y-55468629D01*
X146779658Y-56018187D01*
X146795353Y-56434268D01*
X146815641Y-56739305D01*
X146842176Y-56955734D01*
X146876610Y-57105988D01*
X146920599Y-57212501D01*
X146975795Y-57297709D01*
X146997695Y-57326177D01*
X147169777Y-57592755D01*
X147186478Y-57804832D01*
X147048425Y-58034309D01*
X147004317Y-58086308D01*
X146797568Y-58323320D01*
X146961255Y-58053965D01*
X147065364Y-57828635D01*
X147041564Y-57641319D01*
X146997772Y-57551989D01*
X146912198Y-57411625D01*
X146856419Y-57415544D01*
X146794719Y-57584576D01*
X146764747Y-57687882D01*
X146630063Y-58006847D01*
X146446448Y-58281980D01*
X146433003Y-58296724D01*
X146271537Y-58551835D01*
X146207114Y-58812593D01*
X146178195Y-58991354D01*
X146111103Y-59028797D01*
X146059380Y-58898987D01*
X146077967Y-58805612D01*
X146090304Y-58694925D01*
X146023650Y-58714193D01*
X145933769Y-58852850D01*
X145857142Y-59106445D01*
X145843456Y-59180616D01*
X145785846Y-59414534D01*
X145717803Y-59523890D01*
X145696434Y-59522684D01*
X145665257Y-59402302D01*
X145706489Y-59223323D01*
X145748646Y-59035956D01*
X145709866Y-58975889D01*
X145625646Y-59063463D01*
X145510411Y-59288788D01*
X145385490Y-59595765D01*
X145272212Y-59928299D01*
X145191909Y-60230291D01*
X145165986Y-60406293D01*
X145130675Y-60606869D01*
X145070902Y-60682379D01*
X145031311Y-60763219D01*
X145053640Y-60908498D01*
X145147738Y-61073954D01*
X145331177Y-61293773D01*
X145564107Y-61531132D01*
X145806676Y-61749211D01*
X146019035Y-61911187D01*
X146161334Y-61980239D01*
X146195829Y-61963884D01*
X146157508Y-61823225D01*
X146070335Y-61734445D01*
X145934796Y-61599165D01*
X145905928Y-61531216D01*
X145968260Y-61538949D01*
X146123972Y-61659219D01*
X146186940Y-61717430D01*
X146553088Y-61955656D01*
X146960016Y-61998933D01*
X147198540Y-61944182D01*
X147364411Y-61911727D01*
X147368307Y-61976991D01*
X147388046Y-62066703D01*
X147506327Y-62088142D01*
X147680701Y-62034370D01*
X147694087Y-61919374D01*
X147562450Y-61823262D01*
X147429146Y-61703713D01*
X147411857Y-61637915D01*
X147355149Y-61481209D01*
X147228769Y-61355544D01*
X147098331Y-61309363D01*
X147035781Y-61360276D01*
X146912480Y-61471132D01*
X146832128Y-61485770D01*
X146734670Y-61468239D01*
X146800328Y-61392165D01*
X146855832Y-61350408D01*
X146975167Y-61205042D01*
X146974791Y-61107995D01*
X146975723Y-60989021D01*
X147010329Y-60967044D01*
X147080079Y-60860821D01*
X147134401Y-60639463D01*
X147166183Y-60373843D01*
X147168314Y-60134836D01*
X147133683Y-59993316D01*
X147109383Y-59979842D01*
X147033579Y-59904003D01*
X147035375Y-59854348D01*
X146977865Y-59754023D01*
X146892721Y-59741474D01*
X146772978Y-59696281D01*
X146782414Y-59604394D01*
X146785540Y-59504059D01*
X146650139Y-59509379D01*
X146598783Y-59523054D01*
X146449910Y-59554316D01*
X146477784Y-59509341D01*
X146502592Y-59491632D01*
X146593006Y-59381077D01*
X146561664Y-59208226D01*
X146527690Y-59128948D01*
X146427294Y-58881673D01*
X146421394Y-58799345D01*
X146505375Y-58888946D01*
X146595714Y-59026087D01*
X146811150Y-59317124D01*
X147047117Y-59570662D01*
X147311462Y-59814052D01*
X147311462Y-59037662D01*
X147299609Y-58625575D01*
X147265515Y-58382197D01*
X147211372Y-58323133D01*
X147211066Y-58323320D01*
X147126870Y-58463579D01*
X147102745Y-58605332D01*
X147079154Y-58728069D01*
X147044181Y-58699802D01*
X146935667Y-58580628D01*
X146829714Y-58633556D01*
X146797839Y-58750000D01*
X146783562Y-58871468D01*
X146753430Y-58798990D01*
X146739784Y-58747422D01*
X146783313Y-58548871D01*
X146980737Y-58301087D01*
X147002418Y-58280463D01*
X147150402Y-58132425D01*
X147241638Y-57991496D01*
X147289943Y-57805308D01*
X147309133Y-57521498D01*
X147312999Y-57103396D01*
X147321959Y-56659482D01*
X147347601Y-56408584D01*
X147390884Y-56343547D01*
X147411857Y-56365612D01*
X147475365Y-56413078D01*
X147507013Y-56290135D01*
X147513908Y-56114624D01*
X147541868Y-55893853D01*
X147609434Y-55893853D01*
X147684033Y-55963756D01*
X147738141Y-55971957D01*
X147812124Y-55992137D01*
X147738141Y-56030521D01*
X147639664Y-56166240D01*
X147618846Y-56413664D01*
X147672718Y-56700610D01*
X147774787Y-56921319D01*
X147961511Y-57102536D01*
X148151269Y-57170312D01*
X148286053Y-57190620D01*
X148233347Y-57255692D01*
X148231892Y-57256617D01*
X148214953Y-57359745D01*
X148328453Y-57519753D01*
X148526139Y-57698140D01*
X148761759Y-57856407D01*
X148989060Y-57956054D01*
X149091253Y-57971937D01*
X149264187Y-57914249D01*
X149319391Y-57792725D01*
X149290923Y-57751972D01*
X149422955Y-57751972D01*
X149446632Y-58022255D01*
X149509593Y-58121909D01*
X149591943Y-58039814D01*
X149648013Y-57877772D01*
X149632633Y-57641295D01*
X149562929Y-57499725D01*
X149478356Y-57409555D01*
X149437456Y-57453404D01*
X149424011Y-57660502D01*
X149422955Y-57751972D01*
X149290923Y-57751972D01*
X149243911Y-57684674D01*
X149143675Y-57659105D01*
X149019943Y-57645082D01*
X149091237Y-57615447D01*
X149143675Y-57601546D01*
X149295771Y-57490817D01*
X149293960Y-57335121D01*
X149168774Y-57232864D01*
X149035220Y-57098693D01*
X149018181Y-57021332D01*
X148931838Y-56892956D01*
X148792292Y-56853917D01*
X148566402Y-56840245D01*
X148792292Y-56796736D01*
X148929820Y-56744363D01*
X148996918Y-56619444D01*
X149017498Y-56365858D01*
X149018181Y-56266601D01*
X148992801Y-55940974D01*
X148923726Y-55753397D01*
X148892687Y-55729335D01*
X148857472Y-55685138D01*
X148942885Y-55670772D01*
X149092670Y-55605429D01*
X149106834Y-55480423D01*
X148997282Y-55372301D01*
X148892687Y-55347988D01*
X148734509Y-55334819D01*
X148773379Y-55314248D01*
X148882263Y-55292174D01*
X149009930Y-55241573D01*
X149073510Y-55119092D01*
X149093075Y-54871073D01*
X149093109Y-54728573D01*
X149070724Y-54418668D01*
X149018509Y-54196035D01*
X148978039Y-54133355D01*
X148930009Y-54068900D01*
X148993082Y-54058059D01*
X149104298Y-53975656D01*
X149118576Y-53905929D01*
X149050489Y-53767823D01*
X148993082Y-53747410D01*
X148919100Y-53727230D01*
X148993082Y-53688846D01*
X149108996Y-53566338D01*
X149085077Y-53417956D01*
X148942885Y-53342109D01*
X148819153Y-53328086D01*
X148890446Y-53298451D01*
X148942885Y-53284550D01*
X149091244Y-53175552D01*
X149102070Y-53020019D01*
X148993082Y-52918268D01*
X148962285Y-52874511D01*
X149050045Y-52859704D01*
X149181297Y-52802300D01*
X149171455Y-52659437D01*
X149164913Y-52474979D01*
X149211889Y-52404377D01*
X149250049Y-52474292D01*
X149271252Y-52736635D01*
X149275601Y-53183768D01*
X149263198Y-53808056D01*
X149234145Y-54601862D01*
X149188543Y-55557548D01*
X149163630Y-56020721D01*
X149107640Y-57031166D01*
X149366112Y-57148934D01*
X149632209Y-57358765D01*
X149756456Y-57646618D01*
X149717439Y-57950952D01*
X149673417Y-58032153D01*
X149538415Y-58323957D01*
X149574480Y-58572437D01*
X149790065Y-58834029D01*
X149794108Y-58837785D01*
X150068060Y-59091674D01*
X150245887Y-58872067D01*
X150376756Y-58680315D01*
X150423715Y-58559654D01*
X150348741Y-58526497D01*
X150197825Y-58576318D01*
X150082613Y-58623057D01*
X150124325Y-58570722D01*
X150248023Y-58471081D01*
X150436441Y-58271505D01*
X150523427Y-58074764D01*
X150524110Y-58060426D01*
X150500543Y-57928426D01*
X150392294Y-57936492D01*
X150298221Y-57982030D01*
X150072331Y-58099583D01*
X150286097Y-57860068D01*
X150372389Y-57746790D01*
X150432760Y-57608675D01*
X150472474Y-57408782D01*
X150496791Y-57110170D01*
X150510974Y-56675901D01*
X150518239Y-56230329D01*
X150520235Y-55619598D01*
X150507093Y-55200663D01*
X150478247Y-54965061D01*
X150433134Y-54904328D01*
X150429967Y-54906017D01*
X150369290Y-55035259D01*
X150324200Y-55299940D01*
X150308241Y-55543277D01*
X150293162Y-56114624D01*
X150227249Y-55662846D01*
X150161337Y-55211067D01*
X150041537Y-55493690D01*
X149944570Y-55795892D01*
X149944172Y-56075961D01*
X150048431Y-56403018D01*
X150180602Y-56682339D01*
X150326744Y-57003978D01*
X150368413Y-57200865D01*
X150322804Y-57306472D01*
X150232558Y-57359678D01*
X150226429Y-57269170D01*
X150233560Y-57050964D01*
X150164435Y-56866622D01*
X149986975Y-56651749D01*
X149851444Y-56516477D01*
X149676377Y-56330049D01*
X149613519Y-56226664D01*
X149650653Y-56221200D01*
X149794697Y-56229835D01*
X149804495Y-56126158D01*
X149700869Y-55984110D01*
X149637242Y-55882344D01*
X149692892Y-55863636D01*
X149790003Y-55776787D01*
X149870545Y-55566622D01*
X149873179Y-55554993D01*
X149984318Y-55272072D01*
X150170385Y-54973991D01*
X150207440Y-54927523D01*
X150485164Y-54570783D01*
X150626376Y-54319348D01*
X150643850Y-54144242D01*
X150592211Y-54054677D01*
X150526515Y-53968784D01*
X150607576Y-54002570D01*
X150710455Y-54007878D01*
X150721509Y-53891804D01*
X150714175Y-53709862D01*
X150721706Y-53654940D01*
X150743181Y-53565106D01*
X150763103Y-53395816D01*
X150782540Y-53126539D01*
X150802562Y-52736748D01*
X150824235Y-52205911D01*
X150848629Y-51513501D01*
X150874018Y-50728064D01*
X150897069Y-49978217D01*
X150912142Y-49404110D01*
X150917923Y-48980802D01*
X150913096Y-48683353D01*
X150896346Y-48486823D01*
X150866357Y-48366271D01*
X150821816Y-48296757D01*
X150761407Y-48253342D01*
X150742997Y-48243282D01*
X150530489Y-48149242D01*
X150442612Y-48188710D01*
X150450197Y-48387213D01*
X150467288Y-48484585D01*
X150498096Y-48717757D01*
X150451985Y-48812346D01*
X150302770Y-48824322D01*
X150165499Y-48806971D01*
X150221851Y-48773912D01*
X150248023Y-48766763D01*
X150405225Y-48673792D01*
X150378158Y-48549198D01*
X150197825Y-48437516D01*
X150062928Y-48369488D01*
X150114436Y-48342043D01*
X150144477Y-48340356D01*
X150257137Y-48277157D01*
X150249026Y-48154243D01*
X150143570Y-48051619D01*
X150054419Y-48032806D01*
X149866513Y-47966539D01*
X149756803Y-47882213D01*
X149575432Y-47786391D01*
X149313245Y-47736161D01*
X149037827Y-47732065D01*
X148816762Y-47774648D01*
X148717634Y-47864453D01*
X148716995Y-47873847D01*
X148792903Y-48035063D01*
X148842489Y-48066711D01*
X148885165Y-48111475D01*
X148803033Y-48125275D01*
X148638171Y-48194051D01*
X148577422Y-48327260D01*
X148645400Y-48445310D01*
X148697461Y-48466649D01*
X148784116Y-48502727D01*
X148677998Y-48521633D01*
X148652582Y-48523136D01*
X148448687Y-48625817D01*
X148358507Y-48810869D01*
X148287821Y-49155119D01*
X148257063Y-49514393D01*
X148266769Y-49826167D01*
X148317477Y-50027919D01*
X148347746Y-50062818D01*
X148411010Y-50128003D01*
X148350553Y-50139569D01*
X148273047Y-50229473D01*
X148235836Y-50451654D01*
X148235098Y-50492490D01*
X148259284Y-50724759D01*
X148318755Y-50840844D01*
X148331379Y-50843873D01*
X148380306Y-50906744D01*
X148361846Y-50950361D01*
X148314005Y-51119955D01*
X148287836Y-51393309D01*
X148283278Y-51702212D01*
X148300270Y-51978448D01*
X148338753Y-52153804D01*
X148362941Y-52181586D01*
X148358524Y-52226102D01*
X148229598Y-52274684D01*
X148066869Y-52295303D01*
X148051469Y-52210890D01*
X148067886Y-52166785D01*
X148168689Y-51866971D01*
X148160533Y-51657720D01*
X148038538Y-51457886D01*
X148024221Y-51440483D01*
X147820118Y-51195257D01*
X147817397Y-51596838D01*
X147851650Y-51934046D01*
X147939182Y-52234467D01*
X147955014Y-52267409D01*
X148035231Y-52476092D01*
X148031230Y-52600521D01*
X148031140Y-52600611D01*
X147980133Y-52738435D01*
X147952129Y-52959091D01*
X147980901Y-53189509D01*
X148101273Y-53265005D01*
X148206036Y-53281114D01*
X148118179Y-53315150D01*
X148092323Y-53322025D01*
X148012026Y-53367106D01*
X147962704Y-53476235D01*
X147938659Y-53687152D01*
X147934193Y-54037595D01*
X147938717Y-54339431D01*
X147938641Y-54772920D01*
X147922576Y-55137903D01*
X147893588Y-55382769D01*
X147872859Y-55448181D01*
X147862800Y-55610846D01*
X147926070Y-55672533D01*
X147985335Y-55739146D01*
X147860234Y-55761416D01*
X147838537Y-55761704D01*
X147670818Y-55805807D01*
X147609434Y-55893853D01*
X147541868Y-55893853D01*
X147553331Y-55803341D01*
X147644449Y-55550946D01*
X147666038Y-55518163D01*
X147728726Y-55346681D01*
X147775954Y-55050993D01*
X147806576Y-54681451D01*
X147819446Y-54288409D01*
X147813416Y-53922219D01*
X147787340Y-53633234D01*
X147740070Y-53471807D01*
X147713043Y-53454150D01*
X147624487Y-53535683D01*
X147612647Y-53607894D01*
X147533229Y-53776584D01*
X147471669Y-53815736D01*
X147366428Y-53953359D01*
X147383573Y-54217401D01*
X147520298Y-54577297D01*
X147546335Y-54628809D01*
X147677612Y-54906091D01*
X147705914Y-55020486D01*
X147637922Y-54965426D01*
X147480316Y-54734344D01*
X147464673Y-54709091D01*
X147358695Y-54521338D01*
X147288352Y-54336833D01*
X147246653Y-54109368D01*
X147226607Y-53792736D01*
X147221224Y-53340732D01*
X147221641Y-53102767D01*
X147230047Y-52580344D01*
X147249544Y-52085241D01*
X147277085Y-51678241D01*
X147304670Y-51446245D01*
X147332036Y-51357132D01*
X147348521Y-51456944D01*
X147353682Y-51734088D01*
X147347079Y-52176971D01*
X147340982Y-52400000D01*
X147298574Y-53805533D01*
X147555492Y-53403952D01*
X147648150Y-53260634D01*
X147717351Y-53138941D01*
X147764171Y-53010097D01*
X147789687Y-52845326D01*
X147794976Y-52615851D01*
X147781112Y-52292895D01*
X147749173Y-51847681D01*
X147700234Y-51251432D01*
X147655819Y-50721355D01*
X147650265Y-50650965D01*
X147815123Y-50650965D01*
X147852262Y-50859633D01*
X147936329Y-51069164D01*
X147969724Y-51122720D01*
X148090484Y-51286286D01*
X148145415Y-51346032D01*
X148149078Y-51254952D01*
X148139447Y-51017171D01*
X148120905Y-50718562D01*
X148093714Y-50435164D01*
X148064285Y-50290696D01*
X148038894Y-50315618D01*
X148038431Y-50318287D01*
X147975706Y-50471490D01*
X147906655Y-50488054D01*
X147831169Y-50506119D01*
X147815123Y-50650965D01*
X147650265Y-50650965D01*
X147608124Y-50116843D01*
X147570436Y-49573597D01*
X147544749Y-49126312D01*
X147533056Y-48809687D01*
X147537323Y-48658533D01*
X147561516Y-48674003D01*
X147595050Y-48856160D01*
X147632706Y-49171431D01*
X147656201Y-49423326D01*
X147735955Y-50362068D01*
X147924628Y-50075895D01*
X148060594Y-49749026D01*
X148113962Y-49359044D01*
X148164908Y-48980140D01*
X148291165Y-48588324D01*
X148327081Y-48511914D01*
X148451277Y-48187467D01*
X148544731Y-47745901D01*
X148576396Y-47477100D01*
X148817390Y-47477100D01*
X148901284Y-47603645D01*
X149018181Y-47631225D01*
X149181583Y-47611598D01*
X149218972Y-47584560D01*
X149142119Y-47506781D01*
X149018181Y-47430435D01*
X148863779Y-47374442D01*
X148817918Y-47454706D01*
X148817390Y-47477100D01*
X148576396Y-47477100D01*
X148615007Y-47149339D01*
X148626702Y-47011127D01*
X148668068Y-46609828D01*
X148811355Y-46609828D01*
X148827410Y-46925086D01*
X148897685Y-47152763D01*
X148942885Y-47206652D01*
X149170322Y-47357205D01*
X149516310Y-47549383D01*
X149913406Y-47749148D01*
X150294172Y-47922465D01*
X150574307Y-48030014D01*
X150871794Y-48146927D01*
X151105998Y-48275639D01*
X151142610Y-48303929D01*
X151334162Y-48399713D01*
X151642068Y-48485951D01*
X151850801Y-48522751D01*
X152207262Y-48596057D01*
X152515509Y-48701477D01*
X152631777Y-48763987D01*
X152838257Y-48877755D01*
X152923132Y-48861685D01*
X152864841Y-48726251D01*
X152822408Y-48671365D01*
X152739135Y-48558235D01*
X152794978Y-48564161D01*
X152910572Y-48623384D01*
X153162559Y-48703452D01*
X153301263Y-48642930D01*
X153311879Y-48476211D01*
X153179601Y-48237687D01*
X153110794Y-48158286D01*
X152886411Y-47919441D01*
X153150669Y-48019911D01*
X153388765Y-48083039D01*
X153466012Y-48042955D01*
X153381160Y-47918290D01*
X153168678Y-47751554D01*
X152869806Y-47596092D01*
X152530662Y-47488536D01*
X152211402Y-47439785D01*
X151972180Y-47460739D01*
X151886604Y-47519248D01*
X151736408Y-47616561D01*
X151647631Y-47628939D01*
X151618068Y-47593994D01*
X151746276Y-47509013D01*
X151829248Y-47469337D01*
X152169311Y-47313654D01*
X152366884Y-47210628D01*
X152464465Y-47134838D01*
X152502740Y-47066482D01*
X152430103Y-47030532D01*
X152214189Y-47023410D01*
X151909765Y-47040872D01*
X151571602Y-47078675D01*
X151254470Y-47132575D01*
X151076284Y-47177011D01*
X150951776Y-47172308D01*
X150780189Y-47078856D01*
X150535787Y-46877476D01*
X150192833Y-46548991D01*
X150074687Y-46430665D01*
X149743619Y-46107915D01*
X149454706Y-45846545D01*
X149241543Y-45675682D01*
X149143546Y-45623320D01*
X149015615Y-45713735D01*
X148912747Y-45946636D01*
X148842230Y-46264506D01*
X148811355Y-46609828D01*
X148668068Y-46609828D01*
X148694260Y-46355730D01*
X148783383Y-45891318D01*
X148905595Y-45608337D01*
X149072422Y-45497233D01*
X149295388Y-45548452D01*
X149586016Y-45752439D01*
X149851227Y-45995937D01*
X150126004Y-46253023D01*
X150280741Y-46368614D01*
X150315134Y-46338772D01*
X150228881Y-46159560D01*
X150021681Y-45827039D01*
X149814363Y-45515513D01*
X149456424Y-44968780D01*
X149063914Y-44341278D01*
X148671009Y-43689987D01*
X148311885Y-43071890D01*
X148020721Y-42543967D01*
X147946073Y-42400619D01*
X147712342Y-41999233D01*
X147490933Y-41722859D01*
X147359314Y-41624708D01*
X147161887Y-41460585D01*
X147110671Y-41305325D01*
X147035095Y-41109326D01*
X146934979Y-41036723D01*
X146767594Y-40930844D01*
X146532860Y-40728935D01*
X146388632Y-40585925D01*
X146124850Y-40253536D01*
X145989538Y-39911712D01*
X145956471Y-39722928D01*
X145891098Y-39264587D01*
X145834147Y-38981210D01*
X145778934Y-38847540D01*
X145721914Y-38836272D01*
X145668109Y-38782290D01*
X145636449Y-38587347D01*
X145634504Y-38542905D01*
X145569700Y-38163259D01*
X145416152Y-37794298D01*
X145203463Y-37472936D01*
X144961239Y-37236087D01*
X144719083Y-37120663D01*
X144520725Y-37154123D01*
X144300119Y-37217702D01*
X144029801Y-37216139D01*
X143817557Y-37208265D01*
X143664862Y-37290066D01*
X143503303Y-37503071D01*
X143469390Y-37556341D01*
X143269181Y-37963551D01*
X143109257Y-38451595D01*
X143013721Y-38932525D01*
X143000824Y-39266223D01*
X142976645Y-39568417D01*
X142894904Y-39850593D01*
X142767670Y-40164709D01*
X142641431Y-40500188D01*
X142640367Y-40503162D01*
X142507039Y-40764888D01*
X142346219Y-40942560D01*
X142325837Y-40954940D01*
X142028536Y-41134567D01*
X141756116Y-41334912D01*
X141559297Y-41515086D01*
X141488537Y-41629968D01*
X141432040Y-41774840D01*
X141292208Y-41995554D01*
X141252120Y-42049812D01*
X141105529Y-42263515D01*
X140914281Y-42571894D01*
X140696490Y-42941916D01*
X140470271Y-43340548D01*
X140253737Y-43734757D01*
X140065003Y-44091511D01*
X139922182Y-44377776D01*
X139843388Y-44560519D01*
X139522276Y-44560519D01*
X139696829Y-44313400D01*
X140002988Y-43831359D01*
X140135570Y-43601828D01*
X140593324Y-42797591D01*
X140983866Y-42160321D01*
X141319548Y-41672636D01*
X141612725Y-41317149D01*
X141875748Y-41076477D01*
X141980710Y-41005138D01*
X142263400Y-40786491D01*
X142437182Y-40558959D01*
X142457805Y-40503162D01*
X142564524Y-40221719D01*
X142658061Y-40054143D01*
X142748206Y-39823296D01*
X142792683Y-39514819D01*
X142793675Y-39466263D01*
X142828464Y-39075699D01*
X142922003Y-38628221D01*
X143058053Y-38167900D01*
X143220375Y-37738805D01*
X143392730Y-37385005D01*
X143558876Y-37150569D01*
X143673393Y-37078968D01*
X143807014Y-37068535D01*
X144075650Y-37052722D01*
X144329785Y-37039529D01*
X144693028Y-37036479D01*
X144935881Y-37084128D01*
X145136196Y-37201267D01*
X145194198Y-37248180D01*
X145376910Y-37477241D01*
X145573277Y-37840814D01*
X145758240Y-38276387D01*
X145906742Y-38721448D01*
X145993723Y-39113486D01*
X146006323Y-39274138D01*
X146102618Y-39848087D01*
X146388859Y-40363532D01*
X146861087Y-40814083D01*
X147035375Y-40933688D01*
X147226707Y-41094375D01*
X147311246Y-41241339D01*
X147311462Y-41246894D01*
X147388275Y-41395510D01*
X147562036Y-41547809D01*
X147738660Y-41723170D01*
X147946411Y-42014407D01*
X148112200Y-42305475D01*
X148349569Y-42749197D01*
X148666196Y-43303856D01*
X149028867Y-43914057D01*
X149404369Y-44524402D01*
X149759488Y-45079496D01*
X149919046Y-45319045D01*
X150175051Y-45720979D01*
X150432493Y-46163316D01*
X150572487Y-46426482D01*
X150720082Y-46718810D01*
X150826851Y-46926655D01*
X150866188Y-46999105D01*
X150966343Y-46999003D01*
X151219129Y-46981113D01*
X151577525Y-46948985D01*
X151732569Y-46933687D01*
X152127984Y-46899698D01*
X152444950Y-46883583D01*
X152632136Y-46887532D01*
X152657781Y-46894232D01*
X152678832Y-47006525D01*
X152636410Y-47121775D01*
X152603783Y-47252836D01*
X152697462Y-47360779D01*
X152912225Y-47471779D01*
X153226841Y-47635961D01*
X153506993Y-47815892D01*
X153535968Y-47837960D01*
X153696831Y-47981366D01*
X153706818Y-48068950D01*
X153620601Y-48134196D01*
X153500159Y-48306699D01*
X153503471Y-48421358D01*
X153463212Y-48622214D01*
X153252747Y-48823176D01*
X153007448Y-48979759D01*
X152818839Y-49020970D01*
X152603635Y-48947866D01*
X152400581Y-48833969D01*
X152143890Y-48717411D01*
X151937872Y-48682390D01*
X151904585Y-48689620D01*
X151718236Y-48691009D01*
X151450571Y-48620353D01*
X151389189Y-48596347D01*
X151026086Y-48444633D01*
X151019879Y-50623107D01*
X151013260Y-51320422D01*
X150998395Y-52000808D01*
X150976868Y-52620495D01*
X150950262Y-53135712D01*
X150920160Y-53502688D01*
X150913846Y-53554545D01*
X150879675Y-53890070D01*
X150843265Y-54381438D01*
X150807269Y-54983761D01*
X150774338Y-55652152D01*
X150747124Y-56341723D01*
X150744361Y-56423968D01*
X150674703Y-58540426D01*
X150393507Y-58908751D01*
X150209209Y-59128404D01*
X150066602Y-59260169D01*
X150028707Y-59277075D01*
X149905712Y-59203836D01*
X149716219Y-59021229D01*
X149508103Y-58784918D01*
X149329239Y-58550567D01*
X149227500Y-58373843D01*
X149218972Y-58335580D01*
X149131487Y-58224252D01*
X148918452Y-58138101D01*
X148894349Y-58132901D01*
X148580124Y-57986827D01*
X148191134Y-57661535D01*
X148040989Y-57508845D01*
X147512252Y-56949714D01*
X147507226Y-57485924D01*
X147495540Y-58171417D01*
X147474492Y-58850985D01*
X147446082Y-59488031D01*
X147412312Y-60045958D01*
X147375181Y-60488169D01*
X147336692Y-60778067D01*
X147324242Y-60833314D01*
X147287345Y-61030975D01*
X147321481Y-61200072D01*
X147451078Y-61403096D01*
X147633475Y-61624421D01*
X148032309Y-62091018D01*
X151110423Y-62064481D01*
X154188537Y-62037944D01*
X154217853Y-52500395D01*
X154222265Y-50654012D01*
X154223696Y-48966209D01*
X154222182Y-47441902D01*
X154217757Y-46086012D01*
X154210457Y-44903455D01*
X154200318Y-43899150D01*
X154187374Y-43078015D01*
X154171662Y-42444968D01*
X154153216Y-42004928D01*
X154141298Y-41840284D01*
X153915517Y-40404961D01*
X153517833Y-39071738D01*
X152946805Y-37836599D01*
X152380448Y-36939130D01*
X152038184Y-36508918D01*
X151588931Y-36014566D01*
X151083172Y-35505797D01*
X150571387Y-35032337D01*
X150104060Y-34643909D01*
X149897584Y-34493537D01*
X149186332Y-34070371D01*
X148351136Y-33671532D01*
X147468628Y-33330638D01*
X146759288Y-33116858D01*
X145638228Y-32911362D01*
X144441134Y-32839828D01*
X143241542Y-32902258D01*
X142112986Y-33098651D01*
X142040711Y-33116858D01*
X140689071Y-33563890D01*
X139444640Y-34176936D01*
X138316732Y-34946703D01*
X137314661Y-35863895D01*
X136447741Y-36919218D01*
X135725286Y-38103376D01*
X135156610Y-39407076D01*
X134890540Y-40252174D01*
X134617258Y-41256126D01*
X134584420Y-51536918D01*
X134580381Y-52958456D01*
X134577476Y-54324377D01*
X134575681Y-55621164D01*
X134574971Y-56835301D01*
X134360483Y-56835301D01*
X134360675Y-54843847D01*
X134361338Y-52950042D01*
X134362554Y-51237897D01*
X134364412Y-49697846D01*
X134367004Y-48320323D01*
X134370418Y-47095764D01*
X134374746Y-46014603D01*
X134380077Y-45067274D01*
X134386502Y-44244212D01*
X134394110Y-43535853D01*
X134402993Y-42932629D01*
X134413240Y-42424977D01*
X134424941Y-42003330D01*
X134438187Y-41658124D01*
X134453067Y-41379793D01*
X134469673Y-41158772D01*
X134488093Y-40985494D01*
X134508419Y-40850396D01*
X134512270Y-40829483D01*
X134874597Y-39434617D01*
X135408936Y-38135182D01*
X136105252Y-36941902D01*
X136953506Y-35865504D01*
X137943663Y-34916714D01*
X139065686Y-34106258D01*
X140309538Y-33444861D01*
X141665182Y-32943249D01*
X141972900Y-32856608D01*
X142769235Y-32699492D01*
X143680759Y-32609664D01*
X144632843Y-32588945D01*
X145550858Y-32639156D01*
G37*
D15*
%TO.C,D1*%
X110140000Y-53040000D02*
X110140000Y-54960000D01*
X110140000Y-54960000D02*
X113000000Y-54960000D01*
X113000000Y-53040000D02*
X110140000Y-53040000D01*
%TO.C,C1*%
X111884165Y-58640000D02*
X112115835Y-58640000D01*
X111884165Y-59360000D02*
X112115835Y-59360000D01*
%TD*%
M02*
